{
copyright = "Copyright 2014-2022 Indian Type Foundry. All rights reserved.";
designer = "Jonny Pinhorn";
designerURL = "https://www.indiantypefoundry.com/designers";
familyName = Laila;
customParameters = (
{
name = glyphOrder;
value = (
.notdef,
circledotted,
indianrupee,
NULL,
CR,
space,
ITF,
zerowidthspace,
exclam,
quotedbl,
numbersign,
dollar,
S,
percent,
ampersand,
quotesingle,
parenleft,
parenright,
asterisk,
plus,
comma,
hyphen,
period,
slash,
zero,
one,
two,
three,
four,
five,
six,
seven,
eight,
nine,
colon,
semicolon,
less,
equal,
greater,
question,
at,
A,
B,
C,
D,
E,
F,
G,
H,
I,
J,
K,
L,
M,
N,
O,
P,
Q,
R,
T,
U,
V,
W,
X,
Y,
Z,
bracketleft,
backslash,
bracketright,
asciicircum,
underscore,
grave,
a,
b,
c,
d,
e,
f,
g,
h,
i,
j,
k,
l,
m,
n,
o,
p,
q,
r,
s,
t,
u,
v,
w,
x,
y,
z,
braceleft,
bar,
braceright,
asciitilde,
exclamdown,
cent,
sterling,
currency,
yen,
brokenbar,
section,
dieresis,
copyright,
ordfeminine,
guillemotleft,
logicalnot,
softhyphen,
registered,
macron,
degree,
plusminus,
twosuperior,
threesuperior,
acute,
micro,
paragraph,
periodcentered,
cedilla,
onesuperior,
ordmasculine,
guillemotright,
onequarter,
onehalf,
threequarters,
questiondown,
Agrave,
Aacute,
Acircumflex,
circumflex,
Atilde,
tilde,
Adieresis,
Aring,
ring,
AE,
Ccedilla,
Egrave,
Eacute,
Ecircumflex,
Edieresis,
Igrave,
Iacute,
Icircumflex,
Idieresis,
Eth,
Ntilde,
Ograve,
Oacute,
Ocircumflex,
Otilde,
Odieresis,
multiply,
Oslash,
Ugrave,
Uacute,
Ucircumflex,
Udieresis,
Yacute,
Thorn,
germandbls,
agrave,
aacute,
acircumflex,
atilde,
adieresis,
aring,
ae,
ccedilla,
egrave,
eacute,
ecircumflex,
edieresis,
igrave,
dotlessi,
iacute,
icircumflex,
idieresis,
eth,
ntilde,
ograve,
oacute,
ocircumflex,
otilde,
odieresis,
divide,
oslash,
ugrave,
uacute,
ucircumflex,
udieresis,
yacute,
thorn,
ydieresis,
Amacron,
amacron,
Abreve,
breve,
abreve,
Aogonek,
ogonek,
aogonek,
Cacute,
cacute,
Ccaron,
caron,
ccaron,
Dcaron,
dcaron,
commaaccentcomb.alt,
dcroat,
Emacron,
emacron,
Edotaccent,
dotaccent,

glyphs = (
{
glyphname = .notdef;
layers = (
{
layerId = "6252BF4E-2FA9-4219-B920-178DA9EE1F12";
paths = (
{
closed = 1;
nodes = (
"160 0 LINE",
"596 0 LINE",
"596 701 LINE",
"160 701 LINE"
);
},
{
closed = 1;
nodes = (
"241 625 LINE",
"516 625 LINE",
"516 76 LINE",
"241 76 LINE"
);
}
);
width = 756;
},
{
layerId = "F2B2A884-D9B7-4604-B025-F8D4318BA1DA";
paths = (
{
closed = 1;
nodes = (
"180 0 LINE",
"570 0 LINE",
"570 701 LINE",
"180 701 LINE"
);
},
{
closed = 1;
nodes = (
"234 651 LINE",
"516 651 LINE",
"516 50 LINE",
"234 50 LINE"
);
}
);
width = 750;
}
);
},
{
glyphname = circledotted;
layers = (
{
layerId = "6252BF4E-2FA9-4219-B920-178DA9EE1F12";
paths = (
{
closed = 1;
nodes = (
"139 491 OFFCURVE",
"157 472 OFFCURVE",
"183 472 CURVE SMOOTH",
"209 472 OFFCURVE",
"227 491 OFFCURVE",
"227 517 CURVE SMOOTH",
"227 542 OFFCURVE",
"209 561 OFFCURVE",
"183 561 CURVE SMOOTH",
"157 561 OFFCURVE",
"139 542 OFFCURVE",
"139 517 CURVE SMOOTH"
);
},
{
closed = 1;
nodes = (
"57 382 OFFCURVE",
"77 363 OFFCURVE",
"103 363 CURVE SMOOTH",
"127 363 OFFCURVE",
"147 382 OFFCURVE",
"147 407 CURVE SMOOTH",
"147 432 OFFCURVE",
"127 451 OFFCURVE",
"103 451 CURVE SMOOTH",
"77 451 OFFCURVE",
"57 432 OFFCURVE",
"57 407 CURVE SMOOTH"
);
},
{
closed = 1;
nodes = (
"44 256 OFFCURVE",
"63 238 OFFCURVE",
"88 238 CURVE SMOOTH",
"114 238 OFFCURVE",
"132 256 OFFCURVE",
"132 281 CURVE SMOOTH",
"132 307 OFFCURVE",
"114 326 OFFCURVE",
"88 326 CURVE SMOOTH",
"63 326 OFFCURVE",
"44 307 OFFCURVE",
"44 281 CURVE SMOOTH"
);
},
{
closed = 1;
nodes = (
"96 139 OFFCURVE",
"114 121 OFFCURVE",
"140 121 CURVE SMOOTH",
"165 121 OFFCURVE",
"184 139 OFFCURVE",
"184 165 CURVE SMOOTH",
"184 190 OFFCURVE",
"165 209 OFFCURVE",
"140 209 CURVE SMOOTH",
"114 209 OFFCURVE",
"96 190 OFFCURVE",
"96 165 CURVE SMOOTH"
);
},
{
closed = 1;
nodes = (
"197 64 OFFCURVE",
"216 44 OFFCURVE",
"242 44 CURVE SMOOTH",
"267 44 OFFCURVE",
"286 64 OFFCURVE",
"286 90 CURVE SMOOTH",
"286 114 OFFCURVE",
"267 134 OFFCURVE",
"242 134 CURVE SMOOTH",
"216 134 OFFCURVE",
"197 114 OFFCURVE",
"197 90 CURVE SMOOTH"
);
},
{
closed = 1;
nodes = (
"324 48 OFFCURVE",
"342 30 OFFCURVE",
"368 30 CURVE SMOOTH",
"394 30 OFFCURVE",
"413 48 OFFCURVE",
"413 74 CURVE SMOOTH",
"413 100 OFFCURVE",
"394 118 OFFCURVE",
"368 118 CURVE SMOOTH",
"342 118 OFFCURVE",
"324 100 OFFCURVE",
"324 74 CURVE SMOOTH"
);
},
{
closed = 1;
nodes = (
"445 101 OFFCURVE",
"464 83 OFFCURVE",
"489 83 CURVE SMOOTH",
"514 83 OFFCURVE",
"534 101 OFFCURVE",
"534 127 CURVE SMOOTH",
"534 152 OFFCURVE",
"514 171 OFFCURVE",
"489 171 CURVE SMOOTH",
"464 171 OFFCURVE",
"445 152 OFFCURVE",
"445 127 CURVE SMOOTH"
);
},
{
closed = 1;
nodes = (
"518 200 OFFCURVE",
"537 181 OFFCURVE",
"563 181 CURVE SMOOTH",
"587 181 OFFCURVE",
"606 200 OFFCURVE",
"606 225 CURVE SMOOTH",
"606 251 OFFCURVE",
"587 270 OFFCURVE",
"563 270 CURVE SMOOTH",
"537 270 OFFCURVE",
"518 251 OFFCURVE",
"518 225 CURVE SMOOTH"
);
},
{
closed = 1;
nodes = (
"528 333 OFFCURVE",
"546 315 OFFCURVE",
"572 315 CURVE SMOOTH",
"597 315 OFFCURVE",
"616 333 OFFCURVE",
"616 359 CURVE SMOOTH",
"616 385 OFFCURVE",
"597 403 OFFCURVE",
"572 403 CURVE SMOOTH",
"546 403 OFFCURVE",
"528 385 OFFCURVE",
"528 359 CURVE SMOOTH"
);
},
{
closed = 1;
nodes = (
"478 452 OFFCURVE",
"497 433 OFFCURVE",
"522 433 CURVE SMOOTH",
"548 433 OFFCURVE",
"566 452 OFFCURVE",
"566 477 CURVE SMOOTH",
"566 503 OFFCURVE",
"548 522 OFFCURVE",
"522 522 CURVE SMOOTH",
"497 522 OFFCURVE",
"478 503 OFFCURVE",
"478 477 CURVE SMOOTH"
);
},
{
closed = 1;
nodes = (
"383 521 OFFCURVE",
"402 501 OFFCURVE",
"428 501 CURVE SMOOTH",
"453 501 OFFCURVE",
"471 521 OFFCURVE",
"471 545 CURVE SMOOTH",
"471 571 OFFCURVE",
"453 590 OFFCURVE",
"428 590 CURVE SMOOTH",
"402 590 OFFCURVE",
"383 571 OFFCURVE",
"383 545 CURVE SMOOTH"
);
},
{
closed = 1;
nodes = (
"257 534 OFFCURVE",
"275 516 OFFCURVE",
"301 516 CURVE SMOOTH",
"327 516 OFFCURVE",
"345 534 OFFCURVE",
"345 560 CURVE SMOOTH",
"345 586 OFFCURVE",
"327 604 OFFCURVE",
"301 604 CURVE SMOOTH",
"275 604 OFFCURVE",
"257 586 OFFCURVE",
"257 560 CURVE SMOOTH"
);
}
);
width = 660;
},
{
layerId = "F2B2A884-D9B7-4604-B025-F8D4318BA1DA";
paths = (
{
closed = 1;
nodes = (
"139 491 OFFCURVE",
"157 472 OFFCURVE",
"183 472 CURVE SMOOTH",
"209 472 OFFCURVE",
"227 491 OFFCURVE",
"227 517 CURVE SMOOTH",
"227 542 OFFCURVE",
"209 561 OFFCURVE",
"183 561 CURVE SMOOTH",
"157 561 OFFCURVE",
"139 542 OFFCURVE",
"139 517 CURVE SMOOTH"
);
},
{
closed = 1;
nodes = (
"57 382 OFFCURVE",
"77 363 OFFCURVE",
"103 363 CURVE SMOOTH",
"127 363 OFFCURVE",
"147 382 OFFCURVE",
"147 407 CURVE SMOOTH",
"147 432 OFFCURVE",
"127 451 OFFCURVE",
"103 451 CURVE SMOOTH",
"77 451 OFFCURVE",
"57 432 OFFCURVE",
"57 407 CURVE SMOOTH"
);
},
{
closed = 1;
nodes = (
"44 256 OFFCURVE",
"63 238 OFFCURVE",
"88 238 CURVE SMOOTH",
"114 238 OFFCURVE",
"132 256 OFFCURVE",
"132 281 CURVE SMOOTH",
"132 307 OFFCURVE",
"114 326 OFFCURVE",
"88 326 CURVE SMOOTH",
"63 326 OFFCURVE",
"44 307 OFFCURVE",
"44 281 CURVE SMOOTH"
);
},
{
closed = 1;
nodes = (
"96 139 OFFCURVE",
"114 121 OFFCURVE",
"140 121 CURVE SMOOTH",
"165 121 OFFCURVE",
"184 139 OFFCURVE",
"184 165 CURVE SMOOTH",
"184 190 OFFCURVE",
"165 209 OFFCURVE",
"140 209 CURVE SMOOTH",
"114 209 OFFCURVE",
"96 190 OFFCURVE",
"96 165 CURVE SMOOTH"
);
},
{
closed = 1;
nodes = (
"197 64 OFFCURVE",
"216 44 OFFCURVE",
"242 44 CURVE SMOOTH",
"267 44 OFFCURVE",
"286 64 OFFCURVE",
"286 90 CURVE SMOOTH",
"286 114 OFFCURVE",
"267 134 OFFCURVE",
"242 134 CURVE SMOOTH",
"216 134 OFFCURVE",
"197 114 OFFCURVE",
"197 90 CURVE SMOOTH"
);
},
{
closed = 1;
nodes = (
"324 48 OFFCURVE",
"342 30 OFFCURVE",
"368 30 CURVE SMOOTH",
"394 30 OFFCURVE",
"413 48 OFFCURVE",
"413 74 CURVE SMOOTH",
"413 100 OFFCURVE",
"394 118 OFFCURVE",
"368 118 CURVE SMOOTH",
"342 118 OFFCURVE",
"324 100 OFFCURVE",
"324 74 CURVE SMOOTH"
);
},
{
closed = 1;
nodes = (
"445 101 OFFCURVE",
"464 83 OFFCURVE",
"489 83 CURVE SMOOTH",
"514 83 OFFCURVE",
"534 101 OFFCURVE",
"534 127 CURVE SMOOTH",
"534 152 OFFCURVE",
"514 171 OFFCURVE",
"489 171 CURVE SMOOTH",
"464 171 OFFCURVE",
"445 152 OFFCURVE",
"445 127 CURVE SMOOTH"
);
},
{
closed = 1;
nodes = (
"518 200 OFFCURVE",
"537 181 OFFCURVE",
"563 181 CURVE SMOOTH",
"587 181 OFFCURVE",
"606 200 OFFCURVE",
"606 225 CURVE SMOOTH",
"606 251 OFFCURVE",
"587 270 OFFCURVE",
"563 270 CURVE SMOOTH",
"537 270 OFFCURVE",
"518 251 OFFCURVE",
"518 225 CURVE SMOOTH"
);
},
{
closed = 1;
nodes = (
"528 333 OFFCURVE",
"546 315 OFFCURVE",
"572 315 CURVE SMOOTH",
"597 315 OFFCURVE",
"616 333 OFFCURVE",
"616 359 CURVE SMOOTH",
"616 385 OFFCURVE",
"597 403 OFFCURVE",
"572 403 CURVE SMOOTH",
"546 403 OFFCURVE",
"528 385 OFFCURVE",
"528 359 CURVE SMOOTH"
);
},
{
closed = 1;
nodes = (
"478 452 OFFCURVE",
"497 433 OFFCURVE",
"522 433 CURVE SMOOTH",
"548 433 OFFCURVE",
"566 452 OFFCURVE",
"566 477 CURVE SMOOTH",
"566 503 OFFCURVE",
"548 522 OFFCURVE",
"522 522 CURVE SMOOTH",
"497 522 OFFCURVE",
"478 503 OFFCURVE",
"478 477 CURVE SMOOTH"
);
},
{
closed = 1;
nodes = (
"383 521 OFFCURVE",
"402 501 OFFCURVE",
"428 501 CURVE SMOOTH",
"453 501 OFFCURVE",
"471 521 OFFCURVE",
"471 545 CURVE SMOOTH",
"471 571 OFFCURVE",
"453 590 OFFCURVE",
"428 590 CURVE SMOOTH",
"402 590 OFFCURVE",
"383 571 OFFCURVE",
"383 545 CURVE SMOOTH"
);
},
{
closed = 1;
nodes = (
"257 534 OFFCURVE",
"275 516 OFFCURVE",
"301 516 CURVE SMOOTH",
"327 516 OFFCURVE",
"345 534 OFFCURVE",
"345 560 CURVE SMOOTH",
"345 586 OFFCURVE",
"327 604 OFFCURVE",
"301 604 CURVE SMOOTH",
"275 604 OFFCURVE",
"257 586 OFFCURVE",
"257 560 CURVE SMOOTH"
);
}
);
width = 660;
}
);
unicode = 25CC;
},
{
glyphname = indianrupee;
layers = (
{
layerId = "6252BF4E-2FA9-4219-B920-178DA9EE1F12";
paths = (
{
closed = 1;
nodes = (
"230 600 LINE",
"290 569 OFFCURVE",
"341 472 OFFCURVE",
"341 391 CURVE SMOOTH",
"341 323 OFFCURVE",
"305 265 OFFCURVE",
"205 265 CURVE",
"290 208 LINE",
"287 266 OFFCURVE",
"248 364 OFFCURVE",
"165 364 CURVE SMOOTH",
"127 364 OFFCURVE",
"98 338 OFFCURVE",
"98 301 CURVE SMOOTH",
"98 230 OFFCURVE",
"181 194 OFFCURVE",
"244 194 CURVE SMOOTH",
"372 194 OFFCURVE",
"455 282 OFFCURVE",
"455 406 CURVE SMOOTH",
"455 495 OFFCURVE",
"415 567 OFFCURVE",
"357 611 CURVE"
);
},
{
closed = 1;
nodes = (
"135 669 LINE SMOOTH",
"106 669 OFFCURVE",
"38 669 OFFCURVE",
"38 604 CURVE SMOOTH",
"38 595 OFFCURVE",
"41 584 OFFCURVE",
"43 579 CURVE",
"462 579 LINE SMOOTH",
"490 579 OFFCURVE",
"559 579 OFFCURVE",
"559 647 CURVE SMOOTH",
"559 655 OFFCURVE",
"557 665 OFFCURVE",
"555 669 CURVE"
);
},
{
closed = 1;
nodes = (
"135 508 LINE SMOOTH",
"106 508 OFFCURVE",
"38 508 OFFCURVE",
"38 443 CURVE SMOOTH",
"38 434 OFFCURVE",
"41 423 OFFCURVE",
"43 418 CURVE",
"462 418 LINE SMOOTH",
"490 418 OFFCURVE",
"559 418 OFFCURVE",
"559 486 CURVE SMOOTH",
"559 494 OFFCURVE",
"557 504 OFFCURVE",
"555 508 CURVE"
);
},
{
closed = 1;
nodes = (
"164 248 LINE",
"191 133 OFFCURVE",
"243 -7 OFFCURVE",
"359 -7 CURVE SMOOTH",
"409 -7 OFFCURVE",
"447 26 OFFCURVE",
"442 77 CURVE",
"325 63 OFFCURVE",
"298 187 OFFCURVE",
"279 268 CURVE"
);
}
);
width = 531;
},
{
layerId = "F2B2A884-D9B7-4604-B025-F8D4318BA1DA";
paths = (
{
closed = 1;
nodes = (
"210 604 LINE",
"258 563 OFFCURVE",
"304 486 OFFCURVE",
"304 414 CURVE SMOOTH",
"304 317 OFFCURVE",
"237 259 OFFCURVE",
"158 259 CURVE",
"182 247 LINE",
"173 292 OFFCURVE",
"148 353 OFFCURVE",
"96 353 CURVE SMOOTH",
"66 353 OFFCURVE",
"52 331 OFFCURVE",
"52 310 CURVE SMOOTH",
"52 251 OFFCURVE",
"126 222 OFFCURVE",
"176 222 CURVE SMOOTH",
"284 222 OFFCURVE",
"354 304 OFFCURVE",
"354 408 CURVE SMOOTH",
"354 479 OFFCURVE",
"318 558 OFFCURVE",
"269 610 CURVE"
);
},
{
closed = 1;
nodes = (
"54 646 LINE",
"8 646 OFFCURVE",
"0 624 OFFCURVE",
"0 608 CURVE SMOOTH",
"0 603 OFFCURVE",
"1 597 OFFCURVE",
"2 595 CURVE",
"402 595 LINE SMOOTH",
"448 595 OFFCURVE",
"456 617 OFFCURVE",
"456 633 CURVE SMOOTH",
"456 638 OFFCURVE",
"455 644 OFFCURVE",
"454 646 CURVE"
);
},
{
closed = 1;
nodes = (
"54 500 LINE",
"8 500 OFFCURVE",
"0 478 OFFCURVE",
"0 462 CURVE SMOOTH",
"0 457 OFFCURVE",
"1 451 OFFCURVE",
"2 449 CURVE",
"402 449 LINE SMOOTH",
"448 449 OFFCURVE",
"456 471 OFFCURVE",
"456 487 CURVE SMOOTH",
"456 492 OFFCURVE",
"455 498 OFFCURVE",
"454 500 CURVE"
);
},
{
closed = 1;
nodes = (
"127 236 LINE",
"153 130 OFFCURVE",
"213 -4 OFFCURVE",
"324 -4 CURVE SMOOTH",
"386 -4 OFFCURVE",
"390 40 OFFCURVE",
"387 52 CURVE",
"270 18 OFFCURVE",
"214 120 OFFCURVE",
"186 225 CURVE"
);
}
);
width = 429;
}
);
unicode = 20B9;
},
{
glyphname = ITF;
layers = (
{
layerId = "6252BF4E-2FA9-4219-B920-178DA9EE1F12";
paths = (
{
closed = 1;
nodes = (
"147 0 LINE",
"343 0 LINE",
"343 634 LINE",
"147 634 LINE"
);
},
{
closed = 1;
nodes = (
"383 449 LINE",
"579 449 LINE",
"579 634 LINE",
"383 634 LINE"
);
},
{
closed = 1;
nodes = (
"619 0 LINE",
"815 0 LINE",
"815 634 LINE",
"619 634 LINE"
);
},
{
closed = 1;
nodes = (
"855 449 LINE",
"1051 449 LINE",
"1051 634 LINE",
"855 634 LINE"
);
},
{
closed = 1;
nodes = (
"1091 0 LINE",
"1287 0 LINE",
"1287 634 LINE",
"1091 634 LINE"
);
},
{
closed = 1;
nodes = (
"1327 449 LINE",
"1523 449 LINE",
"1523 634 LINE",
"1327 634 LINE"
);
},
{
closed = 1;
nodes = (
"1327 224 LINE",
"1523 224 LINE",
"1523 409 LINE",
"1327 409 LINE"
);
}
);
width = 1648;
},
{
layerId = "F2B2A884-D9B7-4604-B025-F8D4318BA1DA";
paths = (
{
closed = 1;
nodes = (
"147 0 LINE",
"343 0 LINE",
"343 634 LINE",
"147 634 LINE"
);
},
{
closed = 1;
nodes = (
"383 449 LINE",
"579 449 LINE",
"579 634 LINE",
"383 634 LINE"
);
},
{
closed = 1;
nodes = (
"619 0 LINE",
"815 0 LINE",
"815 634 LINE",
"619 634 LINE"
);
},
{
closed = 1;
nodes = (
"855 449 LINE",
"1051 449 LINE",
"1051 634 LINE",
"855 634 LINE"
);
},
{
closed = 1;
nodes = (
"1091 0 LINE",
"1287 0 LINE",
"1287 634 LINE",
"1091 634 LINE"
);
},
{
closed = 1;
nodes = (
"1327 449 LINE",
"1523 449 LINE",
"1523 634 LINE",
"1327 634 LINE"
);
},
{
closed = 1;
nodes = (
"1327 224 LINE",
"1523 224 LINE",
"1523 409 LINE",
"1327 409 LINE"
);
}
);
width = 1648;
}
);
},
{
glyphname = exclam;
layers = (
{
layerId = "6252BF4E-2FA9-4219-B920-178DA9EE1F12";
paths = (
{
closed = 1;
nodes = (
"259 131 OFFCURVE",
"230 162 OFFCURVE",
"186 162 CURVE SMOOTH",
"136 162 OFFCURVE",
"85 114 OFFCURVE",
"85 61 CURVE SMOOTH",
"85 20 OFFCURVE",
"114 -12 OFFCURVE",
"158 -12 CURVE SMOOTH",
"211 -12 OFFCURVE",
"259 36 OFFCURVE",
"259 90 CURVE SMOOTH"
);
},
{
closed = 1;
nodes = (
"263 605 LINE SMOOTH",
"283 708 OFFCURVE",
"230 773 OFFCURVE",
"164 773 CURVE SMOOTH",
"98 773 OFFCURVE",
"50 709 OFFCURVE",
"65 605 CURVE SMOOTH",
"104 314 LINE SMOOTH",
"113 256 OFFCURVE",
"133 222 OFFCURVE",
"173 222 CURVE SMOOTH",
"190 222 OFFCURVE",
"200 227 OFFCURVE",
"211 236 CURVE",
"205 275 OFFCURVE",
"209 324 OFFCURVE",
"217 370 CURVE SMOOTH"
);
}
);
width = 418;
},
{
layerId = "F2B2A884-D9B7-4604-B025-F8D4318BA1DA";
paths = (
{
closed = 1;
nodes = (
"233 77 OFFCURVE",
"215 95 OFFCURVE",
"191 95 CURVE SMOOTH",
"159 95 OFFCURVE",
"130 68 OFFCURVE",
"130 35 CURVE SMOOTH",
"130 10 OFFCURVE",
"147 -8 OFFCURVE",
"174 -8 CURVE SMOOTH",
"204 -8 OFFCURVE",
"233 21 OFFCURVE",
"233 52 CURVE SMOOTH"
);
},
{
closed = 1;
nodes = (
"212 718 LINE",
"212 763 OFFCURVE",
"196 782 OFFCURVE",
"176 782 CURVE SMOOTH",
"157 782 OFFCURVE",
"143 763 OFFCURVE",
"143 718 CURVE",
"150 235 LINE",
"152 193 OFFCURVE",
"164 176 OFFCURVE",
"185 176 CURVE SMOOTH",
"197 176 OFFCURVE",
"204 182 OFFCURVE",
"210 192 CURVE",
"202 208 OFFCURVE",
"197 223 OFFCURVE",
"199 275 CURVE"
);
}
);
width = 363;
}
);
unicode = 0021;
},
{
glyphname = quotedbl;
layers = (
{
layerId = "6252BF4E-2FA9-4219-B920-178DA9EE1F12";
paths = (
{
closed = 1;
nodes = (
"227 884 OFFCURVE",
"202 930 OFFCURVE",
"149 930 CURVE SMOOTH",
"101 930 OFFCURVE",
"72 884 OFFCURVE",
"72 812 CURVE SMOOTH",
"72 722 OFFCURVE",
"120 594 OFFCURVE",
"150 594 CURVE SMOOTH",
"182 594 OFFCURVE",
"227 722 OFFCURVE",
"227 812 CURVE SMOOTH"
);
},
{
closed = 1;
nodes = (
"443 884 OFFCURVE",
"418 930 OFFCURVE",
"365 930 CURVE SMOOTH",
"317 930 OFFCURVE",
"288 884 OFFCURVE",
"288 812 CURVE SMOOTH",
"288 722 OFFCURVE",
"336 594 OFFCURVE",
"366 594 CURVE SMOOTH",
"398 594 OFFCURVE",
"443 722 OFFCURVE",
"443 812 CURVE SMOOTH"
);
}
);
width = 515;
},
{
layerId = "F2B2A884-D9B7-4604-B025-F8D4318BA1DA";
paths = (
{
closed = 1;
nodes = (
"94 873 OFFCURVE",
"87 897 OFFCURVE",
"62 897 CURVE SMOOTH",
"38 897 OFFCURVE",
"32 873 OFFCURVE",
"32 844 CURVE SMOOTH",
"32 746 OFFCURVE",
"41 595 OFFCURVE",
"63 595 CURVE SMOOTH",
"86 595 OFFCURVE",
"94 745 OFFCURVE",
"94 843 CURVE SMOOTH"
);
},
{
closed = 1;
nodes = (
"231 873 OFFCURVE",
"223 897 OFFCURVE",
"199 897 CURVE SMOOTH",
"175 897 OFFCURVE",
"169 873 OFFCURVE",
"169 844 CURVE SMOOTH",
"169 746 OFFCURVE",
"178 595 OFFCURVE",
"200 595 CURVE SMOOTH",
"223 595 OFFCURVE",
"231 745 OFFCURVE",
"231 843 CURVE SMOOTH"
);
}
);
width = 263;
}
);
unicode = 0022;
},
{
glyphname = numbersign;
layers = (
{
layerId = "6252BF4E-2FA9-4219-B920-178DA9EE1F12";
paths = (
{
closed = 1;
nodes = (
"367 746 OFFCURVE",
"336 708 OFFCURVE",
"311 628 CURVE SMOOTH",
"146 103 LINE SMOOTH",
"134 67 OFFCURVE",
"118 44 OFFCURVE",
"91 32 CURVE",
"106 7 OFFCURVE",
"116 -11 OFFCURVE",
"157 -11 CURVE SMOOTH",
"226 -11 OFFCURVE",
"268 28 OFFCURVE",
"293 108 CURVE SMOOTH",
"458 634 LINE SMOOTH",
"469 668 OFFCURVE",
"487 691 OFFCURVE",
"514 703 CURVE",
"500 728 OFFCURVE",
"475 746 OFFCURVE",
"436 746 CURVE SMOOTH"
);
},
{
closed = 1;
nodes = (
"667 746 OFFCURVE",
"636 708 OFFCURVE",
"611 628 CURVE SMOOTH",
"446 103 LINE SMOOTH",
"434 67 OFFCURVE",
"418 44 OFFCURVE",
"391 32 CURVE",
"406 7 OFFCURVE",
"416 -11 OFFCURVE",
"457 -11 CURVE SMOOTH",
"526 -11 OFFCURVE",
"568 28 OFFCURVE",
"593 108 CURVE SMOOTH",
"758 634 LINE SMOOTH",
"769 668 OFFCURVE",
"787 691 OFFCURVE",
"814 703 CURVE",
"800 728 OFFCURVE",
"775 746 OFFCURVE",
"736 746 CURVE SMOOTH"
);
},
{
closed = 1;
nodes = (
"756 254 OFFCURVE",
"752 265 OFFCURVE",
"746 278 CURVE",
"198 278 LINE SMOOTH",
"101 278 OFFCURVE",
"65 247 OFFCURVE",
"65 215 CURVE SMOOTH",
"65 202 OFFCURVE",
"68 191 OFFCURVE",
"74 178 CURVE",
"623 178 LINE SMOOTH",
"720 178 OFFCURVE",
"756 209 OFFCURVE",
"756 241 CURVE SMOOTH"
);
},
{
closed = 1;
nodes = (
"844 534 OFFCURVE",
"840 545 OFFCURVE",
"834 558 CURVE",
"286 558 LINE SMOOTH",
"188 558 OFFCURVE",
"152 527 OFFCURVE",
"152 494 CURVE SMOOTH",
"152 481 OFFCURVE",
"156 470 OFFCURVE",
"162 457 CURVE",
"710 457 LINE SMOOTH",
"808 457 OFFCURVE",
"844 488 OFFCURVE",
"844 521 CURVE SMOOTH"
);
}
);
width = 908;
},
{
layerId = "F2B2A884-D9B7-4604-B025-F8D4318BA1DA";
paths = (
{
closed = 1;
nodes = (
"321 720 OFFCURVE",
"299 700 OFFCURVE",
"290 663 CURVE",
"117 51 LINE",
"113 33 OFFCURVE",
"103 26 OFFCURVE",
"88 21 CURVE",
"91 5 OFFCURVE",
"103 -8 OFFCURVE",
"121 -8 CURVE SMOOTH",
"147 -8 OFFCURVE",
"167 12 OFFCURVE",
"176 49 CURVE",
"349 660 LINE SMOOTH",
"354 679 OFFCURVE",
"363 686 OFFCURVE",
"379 691 CURVE",
"375 707 OFFCURVE",
"364 720 OFFCURVE",
"347 720 CURVE SMOOTH"
);
},
{
closed = 1;
nodes = (
"580 720 OFFCURVE",
"561 700 OFFCURVE",
"548 663 CURVE",
"378 51 LINE",
"372 33 OFFCURVE",
"362 26 OFFCURVE",
"349 21 CURVE",
"351 5 OFFCURVE",
"363 -8 OFFCURVE",
"381 -8 CURVE SMOOTH",
"407 -8 OFFCURVE",
"427 12 OFFCURVE",
"437 49 CURVE SMOOTH",
"608 660 LINE",
"614 679 OFFCURVE",
"623 686 OFFCURVE",
"639 691 CURVE",
"635 707 OFFCURVE",
"624 720 OFFCURVE",
"607 720 CURVE SMOOTH"
);
},
{
closed = 1;
nodes = (
"600 224 OFFCURVE",
"598 230 OFFCURVE",
"598 232 CURVE",
"119 232 LINE SMOOTH",
"88 232 OFFCURVE",
"53 224 OFFCURVE",
"53 190 CURVE SMOOTH",
"53 184 OFFCURVE",
"55 179 OFFCURVE",
"56 176 CURVE",
"534 176 LINE SMOOTH",
"566 176 OFFCURVE",
"600 185 OFFCURVE",
"600 219 CURVE SMOOTH"
);
},
{
closed = 1;
nodes = (
"683 526 OFFCURVE",
"682 532 OFFCURVE",
"681 534 CURVE",
"202 534 LINE SMOOTH",
"172 534 OFFCURVE",
"137 526 OFFCURVE",
"137 492 CURVE SMOOTH",
"137 487 OFFCURVE",
"138 481 OFFCURVE",
"140 478 CURVE",
"618 478 LINE SMOOTH",
"650 478 OFFCURVE",
"683 487 OFFCURVE",
"683 521 CURVE SMOOTH"
);
}
);
width = 736;
}
);
unicode = 0023;
},
{
glyphname = dollar;
layers = (
{
components = (
{
name = S;
alignment = -1;
}
);
layerId = "6252BF4E-2FA9-4219-B920-178DA9EE1F12";
paths = (
{
closed = 1;
nodes = (
"294 704 LINE",
"451 704 LINE",
"451 772 LINE SMOOTH",
"451 852 OFFCURVE",
"420 890 OFFCURVE",
"352 890 CURVE SMOOTH",
"312 890 OFFCURVE",
"282 872 OFFCURVE",
"260 847 CURVE",
"283 835 OFFCURVE",
"294 812 OFFCURVE",
"294 778 CURVE SMOOTH"
);
},
{
closed = 1;
nodes = (
"419 56 LINE",
"262 56 LINE",
"262 -36 LINE SMOOTH",
"262 -116 OFFCURVE",
"292 -155 OFFCURVE",
"360 -155 CURVE SMOOTH",
"401 -155 OFFCURVE",
"430 -137 OFFCURVE",
"451 -112 CURVE",
"428 -100 OFFCURVE",
"419 -77 OFFCURVE",
"419 -41 CURVE SMOOTH"
);
}
);
width = 709;
},
{
components = (
{
name = S;
alignment = -1;
}
);
layerId = "F2B2A884-D9B7-4604-B025-F8D4318BA1DA";
paths = (
{
closed = 1;
nodes = (
"293 697 LINE",
"356 697 LINE",
"356 800 LINE SMOOTH",
"356 837 OFFCURVE",
"341 856 OFFCURVE",
"312 856 CURVE SMOOTH",
"293 856 OFFCURVE",
"278 843 OFFCURVE",
"270 827 CURVE",
"284 822 OFFCURVE",
"293 815 OFFCURVE",
"293 796 CURVE SMOOTH"
);
},
{
closed = 1;
nodes = (
"328 19 LINE",
"264 19 LINE",
"264 -82 LINE SMOOTH",
"264 -119 OFFCURVE",
"280 -139 OFFCURVE",
"308 -139 CURVE SMOOTH",
"327 -139 OFFCURVE",
"342 -126 OFFCURVE",
"351 -110 CURVE",
"336 -104 OFFCURVE",
"328 -98 OFFCURVE",
"328 -80 CURVE SMOOTH"
);
}
);
width = 575;
}
);
unicode = 0024;
},
{
glyphname = S;
layers = (
{
anchors = (
{
name = bottom;
position = "{352, 0}";
},
{
name = top;
position = "{352, 736}";
}
);
layerId = "6252BF4E-2FA9-4219-B920-178DA9EE1F12";
paths = (
{
closed = 1;
nodes = (
"643 683 OFFCURVE",
"534 746 OFFCURVE",
"374 746 CURVE SMOOTH",
"221 746 OFFCURVE",
"91 670 OFFCURVE",
"91 540 CURVE SMOOTH",
"91 335 OFFCURVE",
"503 323 OFFCURVE",
"503 180 CURVE SMOOTH",
"503 121 OFFCURVE",
"454 86 OFFCURVE",
"368 86 CURVE SMOOTH",
"286 86 OFFCURVE",
"236 120 OFFCURVE",
"236 156 CURVE SMOOTH",
"236 178 OFFCURVE",
"245 198 OFFCURVE",
"260 212 CURVE",
"239 229 OFFCURVE",
"210 244 OFFCURVE",
"174 244 CURVE SMOOTH",
"128 244 OFFCURVE",
"78 211 OFFCURVE",
"78 152 CURVE SMOOTH",
"78 55 OFFCURVE",
"208 -11 OFFCURVE",
"368 -11 CURVE SMOOTH",
"524 -11 OFFCURVE",
"660 76 OFFCURVE",
"660 208 CURVE SMOOTH",
"660 433 OFFCURVE",
"248 457 OFFCURVE",
"248 574 CURVE SMOOTH",
"248 622 OFFCURVE",
"302 649 OFFCURVE",
"374 649 CURVE SMOOTH",
"449 649 OFFCURVE",
"486 616 OFFCURVE",
"486 581 CURVE SMOOTH",
"486 570 OFFCURVE",
"484 554 OFFCURVE",
"478 542 CURVE",
"503 524 OFFCURVE",
"532 516 OFFCURVE",
"563 516 CURVE SMOOTH",
"604 516 OFFCURVE",
"643 546 OFFCURVE",
"643 598 CURVE SMOOTH"
);
}
);
width = 702;
},
{
anchors = (
{
name = bottom;
position = "{315, 0}";
},
{
name = top;
position = "{315, 712}";
}
);
layerId = "F2B2A884-D9B7-4604-B025-F8D4318BA1DA";
paths = (
{
closed = 1;
nodes = (
"534 658 OFFCURVE",
"450 725 OFFCURVE",
"311 725 CURVE SMOOTH",
"201 725 OFFCURVE",
"86 652 OFFCURVE",
"86 544 CURVE SMOOTH",
"86 327 OFFCURVE",
"495 338 OFFCURVE",
"495 186 CURVE SMOOTH",
"495 108 OFFCURVE",
"401 46 OFFCURVE",
"304 46 CURVE SMOOTH",
"194 46 OFFCURVE",
"137 98 OFFCURVE",
"137 158 CURVE SMOOTH",
"137 182 OFFCURVE",
"147 199 OFFCURVE",
"160 211 CURVE",
"152 226 OFFCURVE",
"139 232 OFFCURVE",
"120 232 CURVE SMOOTH",
"88 232 OFFCURVE",
"65 204 OFFCURVE",
"65 165 CURVE SMOOTH",
"65 65 OFFCURVE",
"166 -8 OFFCURVE",
"304 -8 CURVE SMOOTH",
"443 -8 OFFCURVE",
"560 80 OFFCURVE",
"560 197 CURVE SMOOTH",
"560 381 OFFCURVE",
"151 377 OFFCURVE",
"151 552 CURVE SMOOTH",
"151 630 OFFCURVE",
"214 672 OFFCURVE",
"307 672 CURVE SMOOTH",
"415 672 OFFCURVE",
"462 607 OFFCURVE",
"462 563 CURVE SMOOTH",
"462 555 OFFCURVE",
"461 546 OFFCURVE",
"459 535 CURVE",
"467 534 OFFCURVE",
"476 531 OFFCURVE",
"486 531 CURVE SMOOTH",
"516 531 OFFCURVE",
"534 552 OFFCURVE",
"534 586 CURVE SMOOTH"
);
}
);
width = 628;
}
);
unicode = 0053;
},
{
glyphname = percent;
layers = (
{
layerId = "6252BF4E-2FA9-4219-B920-178DA9EE1F12";
paths = (
{
closed = 1;
nodes = (
"340 328 OFFCURVE",
"418 438 OFFCURVE",
"418 553 CURVE SMOOTH",
"418 653 OFFCURVE",
"356 746 OFFCURVE",
"251 746 CURVE SMOOTH",
"131 746 OFFCURVE",
"60 631 OFFCURVE",
"60 522 CURVE SMOOTH",
"60 419 OFFCURVE",
"118 328 OFFCURVE",
"221 328 CURVE SMOOTH"
);
},
{
closed = 1;
nodes = (
"266 646 OFFCURVE",
"286 586 OFFCURVE",
"286 528 CURVE SMOOTH",
"286 458 OFFCURVE",
"262 426 OFFCURVE",
"234 426 CURVE SMOOTH",
"204 426 OFFCURVE",
"185 486 OFFCURVE",
"185 542 CURVE SMOOTH",
"185 606 OFFCURVE",
"205 646 OFFCURVE",
"236 646 CURVE SMOOTH"
);
},
{
closed = 1;
nodes = (
"218 89 LINE",
"203 66 OFFCURVE",
"175 35 OFFCURVE",
"162 29 CURVE",
"181 -10 OFFCURVE",
"208 -12 OFFCURVE",
"221 -12 CURVE SMOOTH",
"262 -12 OFFCURVE",
"293 32 OFFCURVE",
"308 54 CURVE SMOOTH",
"732 648 LINE SMOOTH",
"748 670 OFFCURVE",
"768 700 OFFCURVE",
"787 707 CURVE",
"770 739 OFFCURVE",
"742 746 OFFCURVE",
"726 746 CURVE SMOOTH",
"686 746 OFFCURVE",
"654 703 OFFCURVE",
"640 683 CURVE SMOOTH"
);
},
{
closed = 1;
nodes = (
"809 -11 OFFCURVE",
"887 100 OFFCURVE",
"887 215 CURVE SMOOTH",
"887 314 OFFCURVE",
"826 408 OFFCURVE",
"720 408 CURVE SMOOTH",
"600 408 OFFCURVE",
"529 293 OFFCURVE",
"529 184 CURVE SMOOTH",
"529 80 OFFCURVE",
"587 -11 OFFCURVE",
"690 -11 CURVE SMOOTH"
);
},
{
closed = 1;
nodes = (
"736 307 OFFCURVE",
"755 247 OFFCURVE",
"755 190 CURVE SMOOTH",
"755 120 OFFCURVE",
"731 88 OFFCURVE",
"703 88 CURVE SMOOTH",
"673 88 OFFCURVE",
"654 148 OFFCURVE",
"654 204 CURVE SMOOTH",
"654 268 OFFCURVE",
"674 307 OFFCURVE",
"706 307 CURVE SMOOTH"
);
}
);
width = 947;
},
{
layerId = "F2B2A884-D9B7-4604-B025-F8D4318BA1DA";
paths = (
{
closed = 1;
nodes = (
"304 331 OFFCURVE",
"365 434 OFFCURVE",
"365 541 CURVE SMOOTH",
"365 634 OFFCURVE",
"319 720 OFFCURVE",
"235 720 CURVE SMOOTH",
"141 720 OFFCURVE",
"86 615 OFFCURVE",
"86 511 CURVE SMOOTH",
"86 416 OFFCURVE",
"132 331 OFFCURVE",
"211 331 CURVE SMOOTH"
);
},
{
closed = 1;
nodes = (
"289 668 OFFCURVE",
"320 604 OFFCURVE",
"320 535 CURVE SMOOTH",
"320 454 OFFCURVE",
"280 384 OFFCURVE",
"227 384 CURVE SMOOTH",
"167 384 OFFCURVE",
"132 445 OFFCURVE",
"132 519 CURVE SMOOTH",
"132 599 OFFCURVE",
"172 668 OFFCURVE",
"228 668 CURVE SMOOTH"
);
},
{
closed = 1;
nodes = (
"155 30 LINE",
"149 21 OFFCURVE",
"140 10 OFFCURVE",
"135 6 CURVE",
"146 -7 OFFCURVE",
"159 -8 OFFCURVE",
"167 -8 CURVE SMOOTH",
"184 -8 OFFCURVE",
"191 1 OFFCURVE",
"202 17 CURVE SMOOTH",
"668 682 LINE SMOOTH",
"675 691 OFFCURVE",
"682 702 OFFCURVE",
"689 706 CURVE",
"678 718 OFFCURVE",
"665 720 OFFCURVE",
"658 720 CURVE SMOOTH",
"639 720 OFFCURVE",
"627 703 OFFCURVE",
"621 696 CURVE"
);
},
{
closed = 1;
nodes = (
"676 -8 OFFCURVE",
"736 95 OFFCURVE",
"736 202 CURVE SMOOTH",
"736 294 OFFCURVE",
"690 381 OFFCURVE",
"607 381 CURVE SMOOTH",
"513 381 OFFCURVE",
"458 274 OFFCURVE",
"458 172 CURVE SMOOTH",
"458 77 OFFCURVE",
"503 -8 OFFCURVE",
"583 -8 CURVE SMOOTH"
);
},
{
closed = 1;
nodes = (
"660 328 OFFCURVE",
"691 265 OFFCURVE",
"691 194 CURVE SMOOTH",
"691 113 OFFCURVE",
"652 44 OFFCURVE",
"599 44 CURVE SMOOTH",
"539 44 OFFCURVE",
"503 105 OFFCURVE",
"503 179 CURVE SMOOTH",
"503 259 OFFCURVE",
"544 328 OFFCURVE",
"600 328 CURVE SMOOTH"
);
}
);
width = 823;
}
);
unicode = 0025;
},
{
glyphname = ampersand;
layers = (
{
layerId = "6252BF4E-2FA9-4219-B920-178DA9EE1F12";
paths = (
{
closed = 1;
nodes = (
"254 480 OFFCURVE",
"198 526 OFFCURVE",
"198 589 CURVE SMOOTH",
"198 635 OFFCURVE",
"226 661 OFFCURVE",
"260 661 CURVE SMOOTH",
"299 661 OFFCURVE",
"324 632 OFFCURVE",
"324 559 CURVE",
"404 534 OFFCURVE",
"466 581 OFFCURVE",
"466 640 CURVE SMOOTH",
"466 697 OFFCURVE",
"388 748 OFFCURVE",
"296 748 CURVE SMOOTH",
"193 748 OFFCURVE",
"78 653 OFFCURVE",
"78 523 CURVE SMOOTH",
"78 428 OFFCURVE",
"132 350 OFFCURVE",
"247 350 CURVE SMOOTH",
"355 350 OFFCURVE",
"371 439 OFFCURVE",
"335 480 CURVE"
);
},
{
closed = 1;
nodes = (
"205 383 LINE",
"126 347 OFFCURVE",
"60 293 OFFCURVE",
"60 202 CURVE SMOOTH",
"60 74 OFFCURVE",
"181 -11 OFFCURVE",
"344 -11 CURVE SMOOTH",
"516 -11 OFFCURVE",
"643 109 OFFCURVE",
"643 258 CURVE SMOOTH",
"643 308 OFFCURVE",
"629 341 OFFCURVE",
"606 383 CURVE",
"540 361 LINE",
"626 361 LINE SMOOTH",
"739 361 OFFCURVE",
"792 404 OFFCURVE",
"792 475 CURVE SMOOTH",
"792 545 OFFCURVE",
"721 604 OFFCURVE",
"624 560 CURVE",
"635 494 OFFCURVE",
"620 448 OFFCURVE",
"517 448 CURVE SMOOTH",
"430 448 OFFCURVE",
"433 386 OFFCURVE",
"457 349 CURVE",
"517 349 OFFCURVE",
"552 320 OFFCURVE",
"552 260 CURVE SMOOTH",
"552 182 OFFCURVE",
"472 133 OFFCURVE",
"376 133 CURVE SMOOTH",
"280 133 OFFCURVE",
"200 182 OFFCURVE",
"200 260 CURVE SMOOTH",
"200 304 OFFCURVE",
"217 335 OFFCURVE",
"266 367 CURVE"
);
}
);
width = 780;
},
{
layerId = "F2B2A884-D9B7-4604-B025-F8D4318BA1DA";
paths = (
{
closed = 1;
nodes = (
"214 422 OFFCURVE",
"165 467 OFFCURVE",
"165 551 CURVE SMOOTH",
"165 623 OFFCURVE",
"210 678 OFFCURVE",
"270 678 CURVE SMOOTH",
"327 678 OFFCURVE",
"355 656 OFFCURVE",
"361 598 CURVE",
"394 589 OFFCURVE",
"421 600 OFFCURVE",
"421 629 CURVE SMOOTH",
"421 684 OFFCURVE",
"375 719 OFFCURVE",
"295 719 CURVE SMOOTH",
"194 719 OFFCURVE",
"103 648 OFFCURVE",
"103 530 CURVE SMOOTH",
"103 437 OFFCURVE",
"166 376 OFFCURVE",
"257 376 CURVE SMOOTH",
"299 376 OFFCURVE",
"322 398 OFFCURVE",
"308 422 CURVE"
);
},
{
closed = 1;
nodes = (
"212 404 LINE",
"144 370 OFFCURVE",
"75 305 OFFCURVE",
"75 205 CURVE SMOOTH",
"75 85 OFFCURVE",
"169 -8 OFFCURVE",
"336 -8 CURVE SMOOTH",
"481 -8 OFFCURVE",
"589 95 OFFCURVE",
"589 224 CURVE SMOOTH",
"589 282 OFFCURVE",
"577 327 OFFCURVE",
"547 365 CURVE",
"520 348 LINE",
"551 348 LINE SMOOTH",
"661 348 OFFCURVE",
"708 394 OFFCURVE",
"708 452 CURVE SMOOTH",
"708 491 OFFCURVE",
"676 525 OFFCURVE",
"625 497 CURVE",
"638 434 OFFCURVE",
"619 391 OFFCURVE",
"497 391 CURVE SMOOTH",
"456 391 OFFCURVE",
"428 385 OFFCURVE",
"441 349 CURVE",
"518 349 OFFCURVE",
"544 291 OFFCURVE",
"544 220 CURVE SMOOTH",
"544 115 OFFCURVE",
"442 47 OFFCURVE",
"340 47 CURVE SMOOTH",
"211 47 OFFCURVE",
"141 108 OFFCURVE",
"141 214 CURVE SMOOTH",
"141 291 OFFCURVE",
"190 368 OFFCURVE",
"257 393 CURVE"
);
}
);
width = 714;
}
);
unicode = 0026;
},
{
glyphname = quotesingle;
layers = (
{
layerId = "6252BF4E-2FA9-4219-B920-178DA9EE1F12";
paths = (
{
closed = 1;
nodes = (
"227 884 OFFCURVE",
"202 930 OFFCURVE",
"149 930 CURVE SMOOTH",
"101 930 OFFCURVE",
"72 884 OFFCURVE",
"72 812 CURVE SMOOTH",
"72 722 OFFCURVE",
"120 594 OFFCURVE",
"150 594 CURVE SMOOTH",
"182 594 OFFCURVE",
"227 722 OFFCURVE",
"227 812 CURVE SMOOTH"
);
}
);
width = 299;
},
{
layerId = "F2B2A884-D9B7-4604-B025-F8D4318BA1DA";
paths = (
{
closed = 1;
nodes = (
"96 817 OFFCURVE",
"87 842 OFFCURVE",
"62 842 CURVE SMOOTH",
"38 842 OFFCURVE",
"30 817 OFFCURVE",
"30 789 CURVE SMOOTH",
"30 711 OFFCURVE",
"41 595 OFFCURVE",
"63 595 CURVE SMOOTH",
"86 595 OFFCURVE",
"96 709 OFFCURVE",
"96 788 CURVE SMOOTH"
);
}
);
width = 126;
}
);
unicode = 0027;
},
{
glyphname = parenleft;
layers = (
{
layerId = "6252BF4E-2FA9-4219-B920-178DA9EE1F12";
paths = (
{
closed = 1;
nodes = (
"484 989 OFFCURVE",
"456 998 OFFCURVE",
"430 998 CURVE SMOOTH",
"323 998 OFFCURVE",
"96 703 OFFCURVE",
"96 349 CURVE SMOOTH",
"96 -5 OFFCURVE",
"323 -299 OFFCURVE",
"430 -299 CURVE SMOOTH",
"456 -299 OFFCURVE",
"484 -289 OFFCURVE",
"493 -269 CURVE",
"389 -148 OFFCURVE",
"264 41 OFFCURVE",
"264 349 CURVE SMOOTH",
"264 658 OFFCURVE",
"389 847 OFFCURVE",
"493 968 CURVE"
);
}
);
width = 529;
},
{
layerId = "F2B2A884-D9B7-4604-B025-F8D4318BA1DA";
paths = (
{
closed = 1;
nodes = (
"402 722 OFFCURVE",
"394 726 OFFCURVE",
"386 726 CURVE SMOOTH",
"319 726 OFFCURVE",
"116 500 OFFCURVE",
"116 227 CURVE SMOOTH",
"116 -63 OFFCURVE",
"324 -273 OFFCURVE",
"386 -273 CURVE SMOOTH",
"396 -273 OFFCURVE",
"402 -268 OFFCURVE",
"406 -259 CURVE",
"300 -165 OFFCURVE",
"176 -15 OFFCURVE",
"176 228 CURVE SMOOTH",
"176 470 OFFCURVE",
"300 619 OFFCURVE",
"406 714 CURVE"
);
}
);
width = 431;
}
);
unicode = 0028;
},
{
glyphname = parenright;
layers = (
{
layerId = "6252BF4E-2FA9-4219-B920-178DA9EE1F12";
paths = (
{
closed = 1;
nodes = (
"457 703 OFFCURVE",
"230 998 OFFCURVE",
"124 998 CURVE SMOOTH",
"97 998 OFFCURVE",
"70 989 OFFCURVE",
"60 968 CURVE",
"164 847 OFFCURVE",
"289 658 OFFCURVE",
"289 349 CURVE SMOOTH",
"289 41 OFFCURVE",
"164 -148 OFFCURVE",
"60 -269 CURVE",
"70 -289 OFFCURVE",
"97 -299 OFFCURVE",
"124 -299 CURVE SMOOTH",
"230 -299 OFFCURVE",
"457 -5 OFFCURVE",
"457 349 CURVE SMOOTH"
);
}
);
width = 529;
},
{
layerId = "F2B2A884-D9B7-4604-B025-F8D4318BA1DA";
paths = (
{
closed = 1;
nodes = (
"313 500 OFFCURVE",
"110 726 OFFCURVE",
"43 726 CURVE SMOOTH",
"34 726 OFFCURVE",
"27 722 OFFCURVE",
"23 714 CURVE",
"128 619 OFFCURVE",
"254 470 OFFCURVE",
"254 228 CURVE SMOOTH",
"254 -15 OFFCURVE",
"128 -165 OFFCURVE",
"23 -259 CURVE",
"27 -268 OFFCURVE",
"32 -273 OFFCURVE",
"43 -273 CURVE SMOOTH",
"105 -273 OFFCURVE",
"313 -63 OFFCURVE",
"313 227 CURVE SMOOTH"
);
}
);
width = 431;
}
);
unicode = 0029;
},
{
glyphname = asterisk;
layers = (
{
layerId = "6252BF4E-2FA9-4219-B920-178DA9EE1F12";
paths = (
{
closed = 1;
nodes = (
"402 893 OFFCURVE",
"377 929 OFFCURVE",
"324 929 CURVE SMOOTH",
"277 929 OFFCURVE",
"252 894 OFFCURVE",
"252 850 CURVE SMOOTH",
"252 815 OFFCURVE",
"272 773 OFFCURVE",
"290 740 CURVE",
"259 776 OFFCURVE",
"210 816 OFFCURVE",
"170 816 CURVE SMOOTH",
"137 816 OFFCURVE",
"96 792 OFFCURVE",
"96 738 CURVE SMOOTH",
"96 694 OFFCURVE",
"139 664 OFFCURVE",
"196 664 CURVE SMOOTH",
"220 664 OFFCURVE",
"245 667 OFFCURVE",
"268 672 CURVE",
"217 650 OFFCURVE",
"154 608 OFFCURVE",
"154 557 CURVE SMOOTH",
"154 526 OFFCURVE",
"187 481 OFFCURVE",
"230 481 CURVE SMOOTH",
"299 481 OFFCURVE",
"320 570 OFFCURVE",
"326 635 CURVE",
"330 570 OFFCURVE",
"353 482 OFFCURVE",
"420 482 CURVE SMOOTH",
"457 482 OFFCURVE",
"499 518 OFFCURVE",
"499 554 CURVE SMOOTH",
"499 607 OFFCURVE",
"436 649 OFFCURVE",
"384 671 CURVE",
"407 666 OFFCURVE",
"434 661 OFFCURVE",
"458 661 CURVE SMOOTH",
"512 661 OFFCURVE",
"557 690 OFFCURVE",
"557 737 CURVE SMOOTH",
"557 788 OFFCURVE",
"523 815 OFFCURVE",
"486 815 CURVE SMOOTH",
"440 815 OFFCURVE",
"390 769 OFFCURVE",
"358 734 CURVE",
"378 766 OFFCURVE",
"402 811 OFFCURVE",
"402 847 CURVE SMOOTH"
);
}
);
width = 653;
},
{
layerId = "F2B2A884-D9B7-4604-B025-F8D4318BA1DA";
paths = (
{
closed = 1;
nodes = (
"299 932 OFFCURVE",
"287 958 OFFCURVE",
"260 958 CURVE SMOOTH",
"236 958 OFFCURVE",
"225 931 OFFCURVE",
"225 898 CURVE SMOOTH",
"225 861 OFFCURVE",
"231 809 OFFCURVE",
"239 775 CURVE",
"199 799 OFFCURVE",
"130 831 OFFCURVE",
"96 831 CURVE SMOOTH",
"78 831 OFFCURVE",
"56 823 OFFCURVE",
"56 800 CURVE SMOOTH",
"56 753 OFFCURVE",
"156 738 OFFCURVE",
"220 733 CURVE",
"222 733 OFFCURVE",
"224 733 OFFCURVE",
"225 733 CURVE",
"183 698 OFFCURVE",
"123 633 OFFCURVE",
"123 598 CURVE SMOOTH",
"123 582 OFFCURVE",
"133 565 OFFCURVE",
"154 565 CURVE SMOOTH",
"192 565 OFFCURVE",
"239 650 OFFCURVE",
"260 704 CURVE",
"283 648 OFFCURVE",
"330 566 OFFCURVE",
"368 566 CURVE SMOOTH",
"388 566 OFFCURVE",
"400 580 OFFCURVE",
"400 597 CURVE SMOOTH",
"400 635 OFFCURVE",
"338 699 OFFCURVE",
"296 733 CURVE",
"297 733 OFFCURVE",
"300 734 OFFCURVE",
"302 734 CURVE",
"367 737 OFFCURVE",
"466 755 OFFCURVE",
"466 800 CURVE SMOOTH",
"466 823 OFFCURVE",
"447 834 OFFCURVE",
"426 834 CURVE SMOOTH",
"389 834 OFFCURVE",
"324 799 OFFCURVE",
"285 776 CURVE",
"292 810 OFFCURVE",
"299 861 OFFCURVE",
"299 898 CURVE SMOOTH"
);
}
);
width = 522;
}
);
unicode = 002A;
},
{
glyphname = plus;
layers = (
{
layerId = "6252BF4E-2FA9-4219-B920-178DA9EE1F12";
paths = (
{
closed = 1;
nodes = (
"430 599 LINE",
"422 602 OFFCURVE",
"407 607 OFFCURVE",
"394 607 CURVE SMOOTH",
"308 607 OFFCURVE",
"296 529 OFFCURVE",
"296 481 CURVE SMOOTH",
"296 475 OFFCURVE",
"298 445 OFFCURVE",
"301 358 CURVE",
"191 361 OFFCURVE",
"186 361 OFFCURVE",
"181 361 CURVE SMOOTH",
"134 361 OFFCURVE",
"52 353 OFFCURVE",
"52 265 CURVE SMOOTH",
"52 252 OFFCURVE",
"56 236 OFFCURVE",
"60 229 CURVE",
"305 233 LINE",
"301 -11 LINE",
"305 -14 OFFCURVE",
"319 -17 OFFCURVE",
"329 -17 CURVE SMOOTH",
"410 -17 OFFCURVE",
"430 55 OFFCURVE",
"430 115 CURVE SMOOTH",
"430 119 OFFCURVE",
"430 146 OFFCURVE",
"426 233 CURVE",
"536 229 OFFCURVE",
"540 229 OFFCURVE",
"545 229 CURVE SMOOTH",
"592 229 OFFCURVE",
"676 238 OFFCURVE",
"676 330 CURVE SMOOTH",
"676 340 OFFCURVE",
"673 354 OFFCURVE",
"670 361 CURVE",
"426 358 LINE"
);
}
);
width = 728;
},
{
layerId = "F2B2A884-D9B7-4604-B025-F8D4318BA1DA";
paths = (
{
closed = 1;
nodes = (
"355 531 LINE",
"353 532 OFFCURVE",
"347 535 OFFCURVE",
"341 535 CURVE SMOOTH",
"301 535 OFFCURVE",
"303 492 OFFCURVE",
"303 476 CURVE",
"305 418 OFFCURVE",
"306 364 OFFCURVE",
"307 315 CURVE",
"256 316 OFFCURVE",
"194 317 OFFCURVE",
"133 318 CURVE SMOOTH",
"116 318 OFFCURVE",
"74 319 OFFCURVE",
"74 281 CURVE SMOOTH",
"74 275 OFFCURVE",
"76 269 OFFCURVE",
"78 265 CURVE",
"306 269 LINE",
"302 35 LINE",
"306 33 OFFCURVE",
"312 33 OFFCURVE",
"317 33 CURVE SMOOTH",
"357 33 OFFCURVE",
"355 76 OFFCURVE",
"355 91 CURVE",
"354 154 OFFCURVE",
"353 214 OFFCURVE",
"352 269 CURVE",
"403 269 OFFCURVE",
"465 267 OFFCURVE",
"526 265 CURVE",
"543 265 OFFCURVE",
"585 265 OFFCURVE",
"585 305 CURVE SMOOTH",
"585 308 OFFCURVE",
"584 316 OFFCURVE",
"582 318 CURVE",
"352 315 LINE"
);
}
);
width = 659;
}
);
unicode = 002B;
},
{
glyphname = comma;
layers = (
{
layerId = "6252BF4E-2FA9-4219-B920-178DA9EE1F12";
paths = (
{
closed = 1;
nodes = (
"156 -110 OFFCURVE",
"131 -158 OFFCURVE",
"82 -196 CURVE",
"88 -220 OFFCURVE",
"104 -229 OFFCURVE",
"121 -229 CURVE SMOOTH",
"192 -229 OFFCURVE",
"299 -120 OFFCURVE",
"299 8 CURVE SMOOTH",
"299 101 OFFCURVE",
"248 154 OFFCURVE",
"188 154 CURVE SMOOTH",
"137 154 OFFCURVE",
"101 114 OFFCURVE",
"86 72 CURVE",
"134 43 OFFCURVE",
"156 1 OFFCURVE",
"156 -53 CURVE SMOOTH"
);
}
);
width = 359;
},
{
layerId = "F2B2A884-D9B7-4604-B025-F8D4318BA1DA";
paths = (
{
closed = 1;
nodes = (
"130 -66 OFFCURVE",
"113 -109 OFFCURVE",
"79 -132 CURVE",
"81 -144 OFFCURVE",
"91 -150 OFFCURVE",
"101 -150 CURVE SMOOTH",
"144 -150 OFFCURVE",
"187 -80 OFFCURVE",
"187 10 CURVE SMOOTH",
"187 57 OFFCURVE",
"166 117 OFFCURVE",
"113 117 CURVE SMOOTH",
"84 117 OFFCURVE",
"60 93 OFFCURVE",
"62 67 CURVE",
"103 60 OFFCURVE",
"130 19 OFFCURVE",
"130 -27 CURVE SMOOTH"
);
}
);
width = 239;
}
);
unicode = 002C;
},
{
glyphname = hyphen;
layers = (
{
layerId = "6252BF4E-2FA9-4219-B920-178DA9EE1F12";
paths = (
{
closed = 1;
nodes = (
"528 338 OFFCURVE",
"526 352 OFFCURVE",
"522 359 CURVE",
"205 359 LINE SMOOTH",
"163 359 OFFCURVE",
"60 359 OFFCURVE",
"60 261 CURVE SMOOTH",
"60 248 OFFCURVE",
"65 232 OFFCURVE",
"68 225 CURVE",
"383 225 LINE SMOOTH",
"425 225 OFFCURVE",
"528 225 OFFCURVE",
"528 328 CURVE SMOOTH"
);
}
);
width = 588;
},
{
layerId = "F2B2A884-D9B7-4604-B025-F8D4318BA1DA";
paths = (
{
closed = 1;
nodes = (
"421 309 OFFCURVE",
"420 316 OFFCURVE",
"419 319 CURVE",
"117 319 LINE SMOOTH",
"100 319 OFFCURVE",
"60 319 OFFCURVE",
"60 281 CURVE SMOOTH",
"60 276 OFFCURVE",
"62 270 OFFCURVE",
"64 266 CURVE",
"364 266 LINE SMOOTH",
"381 266 OFFCURVE",
"421 266 OFFCURVE",
"421 305 CURVE SMOOTH"
);
}
);
width = 481;
}
);
unicode = 002D;
},
{
glyphname = period;
layers = (
{
layerId = "6252BF4E-2FA9-4219-B920-178DA9EE1F12";
paths = (
{
closed = 1;
nodes = (
"295 145 OFFCURVE",
"263 180 OFFCURVE",
"215 180 CURVE SMOOTH",
"158 180 OFFCURVE",
"103 127 OFFCURVE",
"103 68 CURVE SMOOTH",
"103 24 OFFCURVE",
"136 -12 OFFCURVE",
"184 -12 CURVE SMOOTH",
"242 -12 OFFCURVE",
"295 41 OFFCURVE",
"295 100 CURVE SMOOTH"
);
}
);
width = 396;
},
{
layerId = "F2B2A884-D9B7-4604-B025-F8D4318BA1DA";
paths = (
{
closed = 1;
nodes = (
"228 93 OFFCURVE",
"209 114 OFFCURVE",
"181 114 CURVE SMOOTH",
"148 114 OFFCURVE",
"115 82 OFFCURVE",
"115 48 CURVE SMOOTH",
"115 22 OFFCURVE",
"134 1 OFFCURVE",
"162 1 CURVE SMOOTH",
"196 1 OFFCURVE",
"228 33 OFFCURVE",
"228 67 CURVE SMOOTH"
);
}
);
width = 345;
}
);
unicode = 002E;
},
{
glyphname = slash;
layers = (
{
layerId = "6252BF4E-2FA9-4219-B920-178DA9EE1F12";
paths = (
{
closed = 1;
nodes = (
"545 1048 OFFCURVE",
"521 1052 OFFCURVE",
"505 1052 CURVE SMOOTH",
"450 1052 OFFCURVE",
"427 989 OFFCURVE",
"418 962 CURVE SMOOTH",
"64 -58 LINE SMOOTH",
"54 -85 OFFCURVE",
"37 -122 OFFCURVE",
"25 -132 CURVE",
"48 -152 OFFCURVE",
"69 -155 OFFCURVE",
"83 -155 CURVE SMOOTH",
"139 -155 OFFCURVE",
"162 -91 OFFCURVE",
"172 -64 CURVE SMOOTH",
"527 959 LINE SMOOTH",
"535 984 OFFCURVE",
"549 1019 OFFCURVE",
"565 1031 CURVE"
);
}
);
width = 510;
},
{
layerId = "F2B2A884-D9B7-4604-B025-F8D4318BA1DA";
paths = (
{
closed = 1;
nodes = (
"460 926 OFFCURVE",
"451 930 OFFCURVE",
"439 930 CURVE SMOOTH",
"409 930 OFFCURVE",
"398 896 OFFCURVE",
"393 881 CURVE SMOOTH",
"61 -67 LINE SMOOTH",
"56 -82 OFFCURVE",
"46 -101 OFFCURVE",
"40 -107 CURVE",
"54 -118 OFFCURVE",
"65 -119 OFFCURVE",
"71 -119 CURVE SMOOTH",
"102 -119 OFFCURVE",
"115 -86 OFFCURVE",
"118 -71 CURVE",
"450 879 LINE SMOOTH",
"455 892 OFFCURVE",
"462 912 OFFCURVE",
"472 919 CURVE"
);
}
);
width = 544;
}
);
unicode = 002F;
},
{
glyphname = zero;
layers = (
{
layerId = "6252BF4E-2FA9-4219-B920-178DA9EE1F12";
paths = (
{
closed = 1;
nodes = (
"48 158 OFFCURVE",
"140 -11 OFFCURVE",
"344 -11 CURVE SMOOTH",
"547 -11 OFFCURVE",
"641 158 OFFCURVE",
"641 368 CURVE SMOOTH",
"641 578 OFFCURVE",
"547 746 OFFCURVE",
"344 746 CURVE SMOOTH",
"140 746 OFFCURVE",
"48 578 OFFCURVE",
"48 368 CURVE SMOOTH"
);
},
{
closed = 1;
nodes = (
"436 643 OFFCURVE",
"472 515 OFFCURVE",
"479 368 CURVE SMOOTH",
"487 222 OFFCURVE",
"467 92 OFFCURVE",
"359 92 CURVE SMOOTH",
"253 92 OFFCURVE",
"217 222 OFFCURVE",
"210 368 CURVE SMOOTH",
"202 515 OFFCURVE",
"222 643 OFFCURVE",
"328 643 CURVE SMOOTH"
);
}
);
width = 689;
},
{
layerId = "F2B2A884-D9B7-4604-B025-F8D4318BA1DA";
paths = (
{
closed = 1;
nodes = (
"61 145 OFFCURVE",
"177 -8 OFFCURVE",
"322 -8 CURVE SMOOTH",
"467 -8 OFFCURVE",
"582 145 OFFCURVE",
"582 357 CURVE SMOOTH",
"582 582 OFFCURVE",
"467 720 OFFCURVE",
"322 720 CURVE SMOOTH",
"177 720 OFFCURVE",
"61 582 OFFCURVE",
"61 357 CURVE SMOOTH"
);
},
{
closed = 1;
nodes = (
"400 669 OFFCURVE",
"506 581 OFFCURVE",
"512 375 CURVE SMOOTH",
"520 170 OFFCURVE",
"418 44 OFFCURVE",
"329 44 CURVE SMOOTH",
"243 44 OFFCURVE",
"139 131 OFFCURVE",
"131 335 CURVE SMOOTH",
"123 541 OFFCURVE",
"226 669 OFFCURVE",
"313 669 CURVE SMOOTH"
);
}
);
width = 643;
}
);
unicode = 0030;
},
{
glyphname = one;
layers = (
{
layerId = "6252BF4E-2FA9-4219-B920-178DA9EE1F12";
paths = (
{
closed = 1;
nodes = (
"289 638 LINE SMOOTH",
"289 703 OFFCURVE",
"254 746 OFFCURVE",
"186 746 CURVE SMOOTH",
"95 746 OFFCURVE",
"28 686 OFFCURVE",
"28 640 CURVE SMOOTH",
"28 625 OFFCURVE",
"36 611 OFFCURVE",
"50 605 CURVE",
"67 618 OFFCURVE",
"86 626 OFFCURVE",
"106 626 CURVE SMOOTH",
"122 626 OFFCURVE",
"132 616 OFFCURVE",
"132 595 CURVE SMOOTH",
"132 108 LINE SMOOTH",
"132 28 OFFCURVE",
"162 -11 OFFCURVE",
"230 -11 CURVE SMOOTH",
"271 -11 OFFCURVE",
"300 7 OFFCURVE",
"322 32 CURVE",
"299 44 OFFCURVE",
"289 67 OFFCURVE",
"289 103 CURVE SMOOTH"
);
}
);
width = 394;
},
{
layerId = "F2B2A884-D9B7-4604-B025-F8D4318BA1DA";
paths = (
{
closed = 1;
nodes = (
"218 635 LINE SMOOTH",
"218 687 OFFCURVE",
"191 720 OFFCURVE",
"141 720 CURVE SMOOTH",
"83 720 OFFCURVE",
"24 676 OFFCURVE",
"24 650 CURVE SMOOTH",
"24 642 OFFCURVE",
"29 636 OFFCURVE",
"36 634 CURVE",
"64 651 OFFCURVE",
"93 662 OFFCURVE",
"117 662 CURVE SMOOTH",
"145 662 OFFCURVE",
"154 647 OFFCURVE",
"154 626 CURVE SMOOTH",
"154 49 LINE SMOOTH",
"154 12 OFFCURVE",
"170 -8 OFFCURVE",
"199 -8 CURVE SMOOTH",
"217 -8 OFFCURVE",
"233 5 OFFCURVE",
"241 21 CURVE",
"226 26 OFFCURVE",
"218 33 OFFCURVE",
"218 51 CURVE"
);
}
);
width = 339;
}
);
unicode = 0031;
},
{
glyphname = two;
layers = (
{
layerId = "6252BF4E-2FA9-4219-B920-178DA9EE1F12";
paths = (
{
closed = 1;
nodes = (
"532 644 OFFCURVE",
"440 746 OFFCURVE",
"283 746 CURVE SMOOTH",
"158 746 OFFCURVE",
"36 670 OFFCURVE",
"36 569 CURVE SMOOTH",
"36 497 OFFCURVE",
"97 461 OFFCURVE",
"157 461 CURVE SMOOTH",
"217 461 OFFCURVE",
"252 487 OFFCURVE",
"270 522 CURVE",
"234 533 OFFCURVE",
"211 559 OFFCURVE",
"211 590 CURVE SMOOTH",
"211 617 OFFCURVE",
"229 650 OFFCURVE",
"270 650 CURVE SMOOTH",
"325 650 OFFCURVE",
"358 608 OFFCURVE",
"358 523 CURVE SMOOTH",
"358 353 OFFCURVE",
"174 222 OFFCURVE",
"30 132 CURVE",
"6 50 OFFCURVE",
"50 0 OFFCURVE",
"130 0 CURVE SMOOTH",
"398 0 LINE SMOOTH",
"521 0 OFFCURVE",
"560 44 OFFCURVE",
"560 100 CURVE SMOOTH",
"560 126 OFFCURVE",
"547 156 OFFCURVE",
"533 174 CURVE",
"504 154 OFFCURVE",
"467 145 OFFCURVE",
"403 142 CURVE SMOOTH",
"98 122 LINE",
"108 97 LINE",
"394 199 OFFCURVE",
"532 374 OFFCURVE",
"532 523 CURVE SMOOTH"
);
}
);
width = 584;
},
{
layerId = "F2B2A884-D9B7-4604-B025-F8D4318BA1DA";
paths = (
{
closed = 1;
nodes = (
"479 637 OFFCURVE",
"393 720 OFFCURVE",
"268 720 CURVE SMOOTH",
"151 720 OFFCURVE",
"58 652 OFFCURVE",
"58 559 CURVE SMOOTH",
"58 519 OFFCURVE",
"82 490 OFFCURVE",
"111 490 CURVE SMOOTH",
"122 490 OFFCURVE",
"133 493 OFFCURVE",
"144 498 CURVE",
"130 514 OFFCURVE",
"123 533 OFFCURVE",
"123 557 CURVE SMOOTH",
"123 630 OFFCURVE",
"195 673 OFFCURVE",
"269 673 CURVE SMOOTH",
"343 673 OFFCURVE",
"413 621 OFFCURVE",
"413 516 CURVE SMOOTH",
"413 394 OFFCURVE",
"304 250 OFFCURVE",
"61 42 CURVE",
"63 20 OFFCURVE",
"81 0 OFFCURVE",
"114 0 CURVE SMOOTH",
"433 0 LINE SMOOTH",
"490 0 OFFCURVE",
"526 23 OFFCURVE",
"526 57 CURVE SMOOTH",
"526 69 OFFCURVE",
"521 79 OFFCURVE",
"507 88 CURVE",
"489 72 OFFCURVE",
"456 60 OFFCURVE",
"413 60 CURVE",
"87 49 LINE",
"128 31 LINE",
"342 232 OFFCURVE",
"479 356 OFFCURVE",
"479 509 CURVE SMOOTH"
);
}
);
width = 575;
}
);
unicode = 0032;
},
{
glyphname = three;
layers = (
{
layerId = "6252BF4E-2FA9-4219-B920-178DA9EE1F12";
paths = (
{
closed = 1;
nodes = (
"499 683 OFFCURVE",
"416 746 OFFCURVE",
"290 746 CURVE SMOOTH",
"190 746 OFFCURVE",
"88 690 OFFCURVE",
"88 631 CURVE SMOOTH",
"88 610 OFFCURVE",
"100 589 OFFCURVE",
"119 584 CURVE",
"148 606 OFFCURVE",
"197 634 OFFCURVE",
"252 634 CURVE SMOOTH",
"304 634 OFFCURVE",
"348 606 OFFCURVE",
"348 559 CURVE SMOOTH",
"348 456 OFFCURVE",
"154 438 OFFCURVE",
"154 368 CURVE SMOOTH",
"154 358 OFFCURVE",
"157 346 OFFCURVE",
"168 337 CURVE",
"179 340 OFFCURVE",
"198 341 OFFCURVE",
"211 341 CURVE SMOOTH",
"338 341 OFFCURVE",
"404 257 OFFCURVE",
"404 187 CURVE SMOOTH",
"404 139 OFFCURVE",
"371 97 OFFCURVE",
"304 97 CURVE SMOOTH",
"238 97 OFFCURVE",
"158 142 OFFCURVE",
"127 239 CURVE",
"109 239 OFFCURVE",
"36 216 OFFCURVE",
"36 138 CURVE SMOOTH",
"36 36 OFFCURVE",
"156 -11 OFFCURVE",
"248 -11 CURVE SMOOTH",
"383 -11 OFFCURVE",
"530 91 OFFCURVE",
"530 238 CURVE SMOOTH",
"530 346 OFFCURVE",
"462 421 OFFCURVE",
"382 442 CURVE",
"449 464 OFFCURVE",
"499 518 OFFCURVE",
"499 586 CURVE SMOOTH"
);
}
);
width = 578;
},
{
layerId = "F2B2A884-D9B7-4604-B025-F8D4318BA1DA";
paths = (
{
closed = 1;
nodes = (
"457 663 OFFCURVE",
"382 720 OFFCURVE",
"287 720 CURVE SMOOTH",
"180 720 OFFCURVE",
"91 646 OFFCURVE",
"91 621 CURVE SMOOTH",
"91 610 OFFCURVE",
"100 606 OFFCURVE",
"106 603 CURVE",
"144 635 OFFCURVE",
"206 662 OFFCURVE",
"273 662 CURVE SMOOTH",
"340 662 OFFCURVE",
"392 627 OFFCURVE",
"392 565 CURVE SMOOTH",
"392 437 OFFCURVE",
"158 411 OFFCURVE",
"158 355 CURVE SMOOTH",
"158 345 OFFCURVE",
"163 335 OFFCURVE",
"169 332 CURVE",
"189 337 OFFCURVE",
"209 340 OFFCURVE",
"230 340 CURVE SMOOTH",
"327 340 OFFCURVE",
"435 287 OFFCURVE",
"435 179 CURVE SMOOTH",
"435 104 OFFCURVE",
"363 42 OFFCURVE",
"268 42 CURVE SMOOTH",
"182 42 OFFCURVE",
"116 93 OFFCURVE",
"82 163 CURVE",
"57 157 OFFCURVE",
"49 139 OFFCURVE",
"49 120 CURVE SMOOTH",
"49 50 OFFCURVE",
"151 -8 OFFCURVE",
"247 -8 CURVE SMOOTH",
"389 -8 OFFCURVE",
"488 66 OFFCURVE",
"488 194 CURVE SMOOTH",
"488 303 OFFCURVE",
"400 386 OFFCURVE",
"285 394 CURVE",
"376 422 OFFCURVE",
"457 491 OFFCURVE",
"457 574 CURVE SMOOTH"
);
}
);
width = 549;
}
);
unicode = 0033;
},
{
glyphname = four;
layers = (
{
layerId = "6252BF4E-2FA9-4219-B920-178DA9EE1F12";
paths = (
{
closed = 1;
nodes = (
"510 626 LINE SMOOTH",
"510 706 OFFCURVE",
"484 746 OFFCURVE",
"431 746 CURVE SMOOTH",
"293 746 OFFCURVE",
"48 394 OFFCURVE",
"48 240 CURVE SMOOTH",
"48 194 OFFCURVE",
"77 176 OFFCURVE",
"127 176 CURVE SMOOTH",
"529 176 LINE SMOOTH",
"590 176 OFFCURVE",
"631 212 OFFCURVE",
"631 257 CURVE SMOOTH",
"631 278 OFFCURVE",
"622 296 OFFCURVE",
"613 306 CURVE",
"594 290 OFFCURVE",
"563 288 OFFCURVE",
"542 288 CURVE SMOOTH",
"206 288 LINE SMOOTH",
"180 288 OFFCURVE",
"169 293 OFFCURVE",
"169 311 CURVE SMOOTH",
"169 379 OFFCURVE",
"304 576 OFFCURVE",
"341 576 CURVE SMOOTH",
"352 576 OFFCURVE",
"353 565 OFFCURVE",
"353 558 CURVE SMOOTH",
"353 108 LINE SMOOTH",
"353 28 OFFCURVE",
"383 -11 OFFCURVE",
"451 -11 CURVE SMOOTH",
"492 -11 OFFCURVE",
"521 7 OFFCURVE",
"542 32 CURVE",
"520 44 OFFCURVE",
"510 67 OFFCURVE",
"510 103 CURVE SMOOTH"
);
}
);
width = 655;
},
{
layerId = "F2B2A884-D9B7-4604-B025-F8D4318BA1DA";
paths = (
{
closed = 1;
nodes = (
"426 672 LINE SMOOTH",
"426 707 OFFCURVE",
"413 720 OFFCURVE",
"388 720 CURVE SMOOTH",
"286 720 OFFCURVE",
"55 365 OFFCURVE",
"55 232 CURVE SMOOTH",
"55 180 OFFCURVE",
"89 165 OFFCURVE",
"137 165 CURVE SMOOTH",
"462 165 LINE SMOOTH",
"515 165 OFFCURVE",
"551 176 OFFCURVE",
"551 206 CURVE SMOOTH",
"551 218 OFFCURVE",
"546 228 OFFCURVE",
"542 233 CURVE",
"524 217 OFFCURVE",
"492 215 OFFCURVE",
"472 215 CURVE SMOOTH",
"133 215 LINE SMOOTH",
"114 215 OFFCURVE",
"106 220 OFFCURVE",
"106 237 CURVE SMOOTH",
"106 343 OFFCURVE",
"311 631 OFFCURVE",
"351 631 CURVE SMOOTH",
"359 631 OFFCURVE",
"363 629 OFFCURVE",
"363 615 CURVE SMOOTH",
"363 49 LINE SMOOTH",
"363 12 OFFCURVE",
"379 -8 OFFCURVE",
"408 -8 CURVE SMOOTH",
"426 -8 OFFCURVE",
"442 5 OFFCURVE",
"450 21 CURVE",
"435 26 OFFCURVE",
"426 33 OFFCURVE",
"426 51 CURVE SMOOTH"
);
}
);
width = 568;
}
);
unicode = 0034;
},
{
glyphname = five;
layers = (
{
layerId = "6252BF4E-2FA9-4219-B920-178DA9EE1F12";
paths = (
{
closed = 1;
nodes = (
"275 736 LINE SMOOTH",
"202 736 OFFCURVE",
"140 716 OFFCURVE",
"126 648 CURVE SMOOTH",
"90 474 OFFCURVE",
"76 416 OFFCURVE",
"76 388 CURVE SMOOTH",
"76 349 OFFCURVE",
"100 329 OFFCURVE",
"126 329 CURVE",
"157 342 OFFCURVE",
"196 350 OFFCURVE",
"236 350 CURVE SMOOTH",
"328 350 OFFCURVE",
"421 301 OFFCURVE",
"421 209 CURVE SMOOTH",
"421 148 OFFCURVE",
"376 115 OFFCURVE",
"307 115 CURVE SMOOTH",
"246 115 OFFCURVE",
"178 155 OFFCURVE",
"150 238 CURVE",
"115 238 OFFCURVE",
"48 211 OFFCURVE",
"48 136 CURVE SMOOTH",
"48 42 OFFCURVE",
"150 -11 OFFCURVE",
"256 -11 CURVE SMOOTH",
"419 -11 OFFCURVE",
"541 119 OFFCURVE",
"541 257 CURVE SMOOTH",
"541 396 OFFCURVE",
"434 485 OFFCURVE",
"323 485 CURVE SMOOTH",
"234 485 OFFCURVE",
"179 446 OFFCURVE",
"138 418 CURVE",
"166 380 LINE",
"214 595 LINE",
"338 595 LINE SMOOTH",
"448 595 OFFCURVE",
"490 631 OFFCURVE",
"490 697 CURVE SMOOTH",
"490 720 OFFCURVE",
"480 745 OFFCURVE",
"470 756 CURVE",
"449 739 OFFCURVE",
"416 736 OFFCURVE",
"392 736 CURVE SMOOTH"
);
}
);
width = 583;
},
{
layerId = "F2B2A884-D9B7-4604-B025-F8D4318BA1DA";
paths = (
{
closed = 1;
nodes = (
"255 712 LINE SMOOTH",
"186 712 OFFCURVE",
"149 694 OFFCURVE",
"137 635 CURVE SMOOTH",
"112 526 OFFCURVE",
"93 431 OFFCURVE",
"93 406 CURVE SMOOTH",
"93 379 OFFCURVE",
"110 369 OFFCURVE",
"126 368 CURVE",
"136 371 OFFCURVE",
"177 385 OFFCURVE",
"229 385 CURVE SMOOTH",
"329 385 OFFCURVE",
"421 324 OFFCURVE",
"421 206 CURVE SMOOTH",
"421 123 OFFCURVE",
"364 47 OFFCURVE",
"273 47 CURVE SMOOTH",
"200 47 OFFCURVE",
"143 84 OFFCURVE",
"117 152 CURVE",
"99 152 OFFCURVE",
"79 132 OFFCURVE",
"79 113 CURVE SMOOTH",
"79 41 OFFCURVE",
"172 -8 OFFCURVE",
"254 -8 CURVE SMOOTH",
"385 -8 OFFCURVE",
"475 107 OFFCURVE",
"475 225 CURVE SMOOTH",
"475 343 OFFCURVE",
"391 433 OFFCURVE",
"263 433 CURVE SMOOTH",
"214 433 OFFCURVE",
"156 424 OFFCURVE",
"113 403 CURVE",
"143 389 LINE",
"198 651 LINE",
"355 651 LINE SMOOTH",
"379 651 OFFCURVE",
"453 651 OFFCURVE",
"453 700 CURVE SMOOTH",
"453 711 OFFCURVE",
"448 722 OFFCURVE",
"437 731 CURVE",
"417 716 OFFCURVE",
"385 712 OFFCURVE",
"362 712 CURVE"
);
}
);
width = 543;
}
);
unicode = 0035;
},
{
glyphname = six;
layers = (
{
layerId = "6252BF4E-2FA9-4219-B920-178DA9EE1F12";
paths = (
{
closed = 1;
nodes = (
"60 143 OFFCURVE",
"158 -11 OFFCURVE",
"338 -11 CURVE SMOOTH",
"480 -11 OFFCURVE",
"592 86 OFFCURVE",
"592 241 CURVE SMOOTH",
"592 331 OFFCURVE",
"526 455 OFFCURVE",
"389 455 CURVE SMOOTH",
"323 455 OFFCURVE",
"272 409 OFFCURVE",
"271 347 CURVE",
"396 340 OFFCURVE",
"455 247 OFFCURVE",
"455 175 CURVE SMOOTH",
"455 119 OFFCURVE",
"414 83 OFFCURVE",
"367 83 CURVE SMOOTH",
"301 83 OFFCURVE",
"222 155 OFFCURVE",
"222 344 CURVE SMOOTH",
"222 532 OFFCURVE",
"320 665 OFFCURVE",
"478 682 CURVE",
"479 685 OFFCURVE",
"479 689 OFFCURVE",
"479 692 CURVE SMOOTH",
"479 730 OFFCURVE",
"440 746 OFFCURVE",
"408 746 CURVE SMOOTH",
"198 746 OFFCURVE",
"60 529 OFFCURVE",
"60 322 CURVE SMOOTH"
);
}
);
width = 640;
},
{
layerId = "F2B2A884-D9B7-4604-B025-F8D4318BA1DA";
paths = (
{
closed = 1;
nodes = (
"64 124 OFFCURVE",
"150 -8 OFFCURVE",
"312 -8 CURVE SMOOTH",
"427 -8 OFFCURVE",
"533 71 OFFCURVE",
"533 221 CURVE SMOOTH",
"533 344 OFFCURVE",
"437 432 OFFCURVE",
"316 432 CURVE SMOOTH",
"280 432 OFFCURVE",
"241 419 OFFCURVE",
"241 379 CURVE",
"375 393 OFFCURVE",
"468 324 OFFCURVE",
"468 201 CURVE SMOOTH",
"468 94 OFFCURVE",
"403 43 OFFCURVE",
"327 43 CURVE SMOOTH",
"187 43 OFFCURVE",
"131 177 OFFCURVE",
"131 302 CURVE SMOOTH",
"131 540 OFFCURVE",
"309 674 OFFCURVE",
"488 691 CURVE",
"489 693 OFFCURVE",
"489 696 OFFCURVE",
"489 698 CURVE",
"489 714 OFFCURVE",
"471 720 OFFCURVE",
"450 720 CURVE SMOOTH",
"259 720 OFFCURVE",
"64 537 OFFCURVE",
"64 297 CURVE SMOOTH"
);
}
);
width = 591;
}
);
unicode = 0036;
},
{
glyphname = seven;
layers = (
{
layerId = "6252BF4E-2FA9-4219-B920-178DA9EE1F12";
paths = (
{
closed = 1;
nodes = (
"169 736 LINE SMOOTH",
"126 736 OFFCURVE",
"18 736 OFFCURVE",
"18 634 CURVE SMOOTH",
"18 611 OFFCURVE",
"29 586 OFFCURVE",
"37 575 CURVE",
"59 592 OFFCURVE",
"92 595 OFFCURVE",
"115 595 CURVE SMOOTH",
"311 595 LINE SMOOTH",
"324 595 OFFCURVE",
"344 595 OFFCURVE",
"367 599 CURVE",
"299 470 OFFCURVE",
"118 266 OFFCURVE",
"118 125 CURVE SMOOTH",
"118 49 OFFCURVE",
"164 -11 OFFCURVE",
"239 -11 CURVE SMOOTH",
"317 -11 OFFCURVE",
"336 62 OFFCURVE",
"336 62 CURVE",
"298 78 OFFCURVE",
"274 108 OFFCURVE",
"274 164 CURVE SMOOTH",
"274 376 OFFCURVE",
"502 607 OFFCURVE",
"502 698 CURVE SMOOTH",
"502 720 OFFCURVE",
"497 731 OFFCURVE",
"493 736 CURVE"
);
}
);
width = 526;
},
{
layerId = "F2B2A884-D9B7-4604-B025-F8D4318BA1DA";
paths = (
{
closed = 1;
nodes = (
"110 712 LINE",
"56 712 OFFCURVE",
"25 687 OFFCURVE",
"25 651 CURVE SMOOTH",
"25 631 OFFCURVE",
"37 619 OFFCURVE",
"49 615 CURVE",
"67 636 OFFCURVE",
"89 648 OFFCURVE",
"126 648 CURVE SMOOTH",
"273 648 LINE SMOOTH",
"304 648 OFFCURVE",
"343 649 OFFCURVE",
"377 658 CURVE",
"263 487 OFFCURVE",
"111 222 OFFCURVE",
"111 79 CURVE SMOOTH",
"111 22 OFFCURVE",
"138 -8 OFFCURVE",
"172 -8 CURVE SMOOTH",
"198 -8 OFFCURVE",
"212 9 OFFCURVE",
"216 29 CURVE",
"196 34 OFFCURVE",
"186 57 OFFCURVE",
"186 85 CURVE SMOOTH",
"186 321 OFFCURVE",
"425 597 OFFCURVE",
"425 675 CURVE SMOOTH",
"425 695 OFFCURVE",
"420 707 OFFCURVE",
"417 712 CURVE"
);
}
);
width = 469;
}
);
unicode = 0037;
},
{
glyphname = eight;
layers = (
{
layerId = "6252BF4E-2FA9-4219-B920-178DA9EE1F12";
paths = (
{
closed = 1;
nodes = (
"200 269 OFFCURVE",
"212 305 OFFCURVE",
"235 335 CURVE",
"336 280 OFFCURVE",
"450 244 OFFCURVE",
"450 158 CURVE SMOOTH",
"450 102 OFFCURVE",
"398 74 OFFCURVE",
"353 74 CURVE SMOOTH",
"256 74 OFFCURVE",
"200 152 OFFCURVE",
"200 233 CURVE SMOOTH"
);
},
{
closed = 1;
nodes = (
"430 472 OFFCURVE",
"420 444 OFFCURVE",
"406 419 CURVE",
"311 469 OFFCURVE",
"212 506 OFFCURVE",
"212 583 CURVE SMOOTH",
"212 637 OFFCURVE",
"254 665 OFFCURVE",
"296 665 CURVE SMOOTH",
"374 665 OFFCURVE",
"430 590 OFFCURVE",
"430 509 CURVE SMOOTH"
);
},
{
closed = 1;
nodes = (
"571 676 OFFCURVE",
"430 746 OFFCURVE",
"320 746 CURVE SMOOTH",
"176 746 OFFCURVE",
"80 654 OFFCURVE",
"80 542 CURVE SMOOTH",
"80 468 OFFCURVE",
"116 420 OFFCURVE",
"164 380 CURVE",
"113 349 OFFCURVE",
"60 294 OFFCURVE",
"60 208 CURVE SMOOTH",
"60 65 OFFCURVE",
"210 -11 OFFCURVE",
"338 -11 CURVE SMOOTH",
"434 -11 OFFCURVE",
"593 47 OFFCURVE",
"593 198 CURVE SMOOTH",
"593 282 OFFCURVE",
"542 335 OFFCURVE",
"478 378 CURVE",
"528 412 OFFCURVE",
"571 461 OFFCURVE",
"571 541 CURVE SMOOTH"
);
}
);
width = 653;
},
{
layerId = "F2B2A884-D9B7-4604-B025-F8D4318BA1DA";
paths = (
{
closed = 1;
nodes = (
"125 276 OFFCURVE",
"165 331 OFFCURVE",
"208 368 CURVE",
"310 306 OFFCURVE",
"435 264 OFFCURVE",
"435 156 CURVE SMOOTH",
"435 81 OFFCURVE",
"368 37 OFFCURVE",
"300 37 CURVE SMOOTH",
"187 37 OFFCURVE",
"125 118 OFFCURVE",
"125 192 CURVE SMOOTH"
);
},
{
closed = 1;
nodes = (
"415 440 OFFCURVE",
"383 391 OFFCURVE",
"348 356 CURVE",
"248 413 OFFCURVE",
"136 453 OFFCURVE",
"136 557 CURVE SMOOTH",
"136 630 OFFCURVE",
"200 677 OFFCURVE",
"269 677 CURVE SMOOTH",
"364 677 OFFCURVE",
"415 593 OFFCURVE",
"415 519 CURVE SMOOTH"
);
},
{
closed = 1;
nodes = (
"480 647 OFFCURVE",
"371 720 OFFCURVE",
"277 720 CURVE SMOOTH",
"147 720 OFFCURVE",
"73 617 OFFCURVE",
"73 544 CURVE SMOOTH",
"73 467 OFFCURVE",
"122 421 OFFCURVE",
"184 382 CURVE",
"116 347 OFFCURVE",
"60 270 OFFCURVE",
"60 183 CURVE SMOOTH",
"60 62 OFFCURVE",
"186 -8 OFFCURVE",
"292 -8 CURVE SMOOTH",
"424 -8 OFFCURVE",
"494 95 OFFCURVE",
"494 174 CURVE SMOOTH",
"494 253 OFFCURVE",
"440 302 OFFCURVE",
"372 343 CURVE",
"429 376 OFFCURVE",
"480 442 OFFCURVE",
"480 527 CURVE SMOOTH"
);
}
);
width = 554;
}
);
unicode = 0038;
},
{
glyphname = nine;
layers = (
{
layerId = "6252BF4E-2FA9-4219-B920-178DA9EE1F12";
paths = (
{
closed = 1;
nodes = (
"580 593 OFFCURVE",
"481 746 OFFCURVE",
"301 746 CURVE SMOOTH",
"160 746 OFFCURVE",
"48 649 OFFCURVE",
"48 494 CURVE SMOOTH",
"48 404 OFFCURVE",
"114 281 OFFCURVE",
"251 281 CURVE SMOOTH",
"317 281 OFFCURVE",
"367 326 OFFCURVE",
"368 389 CURVE",
"244 396 OFFCURVE",
"185 488 OFFCURVE",
"185 560 CURVE SMOOTH",
"185 617 OFFCURVE",
"226 653 OFFCURVE",
"272 653 CURVE SMOOTH",
"338 653 OFFCURVE",
"418 581 OFFCURVE",
"418 391 CURVE SMOOTH",
"418 204 OFFCURVE",
"319 71 OFFCURVE",
"162 54 CURVE",
"161 50 OFFCURVE",
"161 47 OFFCURVE",
"161 43 CURVE SMOOTH",
"161 6 OFFCURVE",
"199 -11 OFFCURVE",
"232 -11 CURVE SMOOTH",
"442 -11 OFFCURVE",
"580 206 OFFCURVE",
"580 414 CURVE SMOOTH"
);
}
);
width = 640;
},
{
layerId = "F2B2A884-D9B7-4604-B025-F8D4318BA1DA";
paths = (
{
closed = 1;
nodes = (
"496 588 OFFCURVE",
"401 720 OFFCURVE",
"239 720 CURVE SMOOTH",
"124 720 OFFCURVE",
"28 641 OFFCURVE",
"28 505 CURVE SMOOTH",
"28 388 OFFCURVE",
"127 280 OFFCURVE",
"260 280 CURVE SMOOTH",
"296 280 OFFCURVE",
"335 293 OFFCURVE",
"335 333 CURVE",
"206 316 OFFCURVE",
"87 386 OFFCURVE",
"87 525 CURVE SMOOTH",
"87 616 OFFCURVE",
"151 666 OFFCURVE",
"228 666 CURVE SMOOTH",
"383 666 OFFCURVE",
"433 496 OFFCURVE",
"433 392 CURVE SMOOTH",
"433 191 OFFCURVE",
"283 38 OFFCURVE",
"103 21 CURVE",
"102 19 OFFCURVE",
"102 16 OFFCURVE",
"102 14 CURVE",
"102 -2 OFFCURVE",
"120 -8 OFFCURVE",
"141 -8 CURVE SMOOTH",
"332 -8 OFFCURVE",
"496 193 OFFCURVE",
"496 406 CURVE SMOOTH"
);
}
);
width = 534;
}
);
unicode = 0039;
},
{
glyphname = colon;
layers = (
{
layerId = "6252BF4E-2FA9-4219-B920-178DA9EE1F12";
paths = (
{
closed = 1;
nodes = (
"295 515 OFFCURVE",
"263 550 OFFCURVE",
"215 550 CURVE SMOOTH",
"158 550 OFFCURVE",
"103 497 OFFCURVE",
"103 438 CURVE SMOOTH",
"103 394 OFFCURVE",
"136 358 OFFCURVE",
"184 358 CURVE SMOOTH",
"242 358 OFFCURVE",
"295 410 OFFCURVE",
"295 469 CURVE SMOOTH"
);
},
{
closed = 1;
nodes = (
"295 146 OFFCURVE",
"263 181 OFFCURVE",
"215 181 CURVE SMOOTH",
"158 181 OFFCURVE",
"103 128 OFFCURVE",
"103 70 CURVE SMOOTH",
"103 25 OFFCURVE",
"136 -11 OFFCURVE",
"184 -11 CURVE SMOOTH",
"242 -11 OFFCURVE",
"295 42 OFFCURVE",
"295 101 CURVE SMOOTH"
);
}
);
width = 398;
},
{
layerId = "F2B2A884-D9B7-4604-B025-F8D4318BA1DA";
paths = (
{
closed = 1;
nodes = (
"209 477 OFFCURVE",
"190 497 OFFCURVE",
"162 497 CURVE SMOOTH",
"129 497 OFFCURVE",
"96 465 OFFCURVE",
"96 431 CURVE SMOOTH",
"96 404 OFFCURVE",
"116 384 OFFCURVE",
"144 384 CURVE SMOOTH",
"178 384 OFFCURVE",
"209 416 OFFCURVE",
"209 449 CURVE SMOOTH"
);
},
{
closed = 1;
nodes = (
"209 98 OFFCURVE",
"190 118 OFFCURVE",
"162 118 CURVE SMOOTH",
"129 118 OFFCURVE",
"96 86 OFFCURVE",
"96 52 CURVE SMOOTH",
"96 25 OFFCURVE",
"116 6 OFFCURVE",
"144 6 CURVE SMOOTH",
"178 6 OFFCURVE",
"209 37 OFFCURVE",
"209 70 CURVE SMOOTH"
);
}
);
width = 296;
}
);
unicode = 003A;
},
{
glyphname = semicolon;
layers = (
{
layerId = "6252BF4E-2FA9-4219-B920-178DA9EE1F12";
paths = (
{
closed = 1;
nodes = (
"295 515 OFFCURVE",
"263 550 OFFCURVE",
"215 550 CURVE SMOOTH",
"158 550 OFFCURVE",
"103 497 OFFCURVE",
"103 438 CURVE SMOOTH",
"103 394 OFFCURVE",
"136 358 OFFCURVE",
"184 358 CURVE SMOOTH",
"242 358 OFFCURVE",
"295 410 OFFCURVE",
"295 469 CURVE SMOOTH"
);
},
{
closed = 1;
nodes = (
"156 -95 OFFCURVE",
"131 -158 OFFCURVE",
"82 -196 CURVE",
"88 -220 OFFCURVE",
"104 -229 OFFCURVE",
"121 -229 CURVE SMOOTH",
"204 -229 OFFCURVE",
"294 -65 OFFCURVE",
"294 43 CURVE SMOOTH",
"294 113 OFFCURVE",
"263 178 OFFCURVE",
"188 178 CURVE SMOOTH",
"137 178 OFFCURVE",
"101 138 OFFCURVE",
"86 96 CURVE",
"134 67 OFFCURVE",
"156 17 OFFCURVE",
"156 -37 CURVE SMOOTH"
);
}
);
width = 398;
},
{
layerId = "F2B2A884-D9B7-4604-B025-F8D4318BA1DA";
paths = (
{
closed = 1;
nodes = (
"209 477 OFFCURVE",
"190 497 OFFCURVE",
"162 497 CURVE SMOOTH",
"129 497 OFFCURVE",
"96 465 OFFCURVE",
"96 431 CURVE SMOOTH",
"96 404 OFFCURVE",
"116 384 OFFCURVE",
"144 384 CURVE SMOOTH",
"178 384 OFFCURVE",
"209 416 OFFCURVE",
"209 449 CURVE SMOOTH"
);
},
{
closed = 1;
nodes = (
"167 -68 OFFCURVE",
"151 -109 OFFCURVE",
"116 -132 CURVE",
"118 -144 OFFCURVE",
"128 -150 OFFCURVE",
"139 -150 CURVE SMOOTH",
"179 -150 OFFCURVE",
"224 -86 OFFCURVE",
"224 7 CURVE SMOOTH",
"224 56 OFFCURVE",
"200 114 OFFCURVE",
"151 114 CURVE SMOOTH",
"121 114 OFFCURVE",
"97 91 OFFCURVE",
"98 64 CURVE",
"140 57 OFFCURVE",
"167 17 OFFCURVE",
"167 -28 CURVE SMOOTH"
);
}
);
width = 296;
}
);
unicode = 003B;
},
{
glyphname = less;
layers = (
{
layerId = "6252BF4E-2FA9-4219-B920-178DA9EE1F12";
paths = (
{
closed = 1;
nodes = (
"257 393 OFFCURVE",
"608 534 OFFCURVE",
"662 556 CURVE",
"662 604 OFFCURVE",
"617 620 OFFCURVE",
"589 620 CURVE SMOOTH",
"518 620 OFFCURVE",
"68 414 OFFCURVE",
"68 316 CURVE SMOOTH",
"68 225 OFFCURVE",
"473 28 OFFCURVE",
"559 28 CURVE SMOOTH",
"620 28 OFFCURVE",
"661 76 OFFCURVE",
"661 151 CURVE",
"551 195 OFFCURVE",
"257 322 OFFCURVE",
"257 354 CURVE SMOOTH"
);
}
);
width = 768;
},
{
layerId = "F2B2A884-D9B7-4604-B025-F8D4318BA1DA";
paths = (
{
closed = 1;
nodes = (
"137 324 OFFCURVE",
"415 445 OFFCURVE",
"537 482 CURVE",
"537 502 OFFCURVE",
"522 505 OFFCURVE",
"513 505 CURVE SMOOTH",
"453 505 OFFCURVE",
"65 348 OFFCURVE",
"65 272 CURVE SMOOTH",
"65 203 OFFCURVE",
"419 58 OFFCURVE",
"491 58 CURVE SMOOTH",
"523 58 OFFCURVE",
"544 73 OFFCURVE",
"544 106 CURVE",
"379 139 OFFCURVE",
"137 253 OFFCURVE",
"137 279 CURVE SMOOTH"
);
}
);
width = 634;
}
);
unicode = 003C;
},
{
glyphname = equal;
layers = (
{
layerId = "6252BF4E-2FA9-4219-B920-178DA9EE1F12";
paths = (
{
closed = 1;
nodes = (
"250 509 LINE SMOOTH",
"208 509 OFFCURVE",
"105 509 OFFCURVE",
"105 410 CURVE SMOOTH",
"105 397 OFFCURVE",
"110 382 OFFCURVE",
"113 374 CURVE",
"598 374 LINE SMOOTH",
"640 374 OFFCURVE",
"743 374 OFFCURVE",
"743 478 CURVE SMOOTH",
"743 487 OFFCURVE",
"741 502 OFFCURVE",
"737 509 CURVE"
);
},
{
closed = 1;
nodes = (
"250 228 LINE SMOOTH",
"208 228 OFFCURVE",
"105 228 OFFCURVE",
"105 130 CURVE SMOOTH",
"105 116 OFFCURVE",
"110 101 OFFCURVE",
"113 94 CURVE",
"598 94 LINE SMOOTH",
"640 94 OFFCURVE",
"743 94 OFFCURVE",
"743 197 CURVE SMOOTH",
"743 206 OFFCURVE",
"741 221 OFFCURVE",
"737 228 CURVE"
);
}
);
width = 848;
},
{
layerId = "F2B2A884-D9B7-4604-B025-F8D4318BA1DA";
paths = (
{
closed = 1;
nodes = (
"148 436 LINE",
"131 436 OFFCURVE",
"91 436 OFFCURVE",
"91 398 CURVE SMOOTH",
"91 393 OFFCURVE",
"93 387 OFFCURVE",
"94 384 CURVE",
"540 384 LINE SMOOTH",
"558 384 OFFCURVE",
"597 384 OFFCURVE",
"597 424 CURVE SMOOTH",
"597 428 OFFCURVE",
"597 433 OFFCURVE",
"596 436 CURVE"
);
},
{
closed = 1;
nodes = (
"148 207 LINE",
"131 207 OFFCURVE",
"91 207 OFFCURVE",
"91 168 CURVE SMOOTH",
"91 163 OFFCURVE",
"93 158 OFFCURVE",
"94 154 CURVE",
"540 154 LINE SMOOTH",
"558 154 OFFCURVE",
"597 154 OFFCURVE",
"597 195 CURVE SMOOTH",
"597 198 OFFCURVE",
"597 203 OFFCURVE",
"596 207 CURVE"
);
}
);
width = 689;
}
);
unicode = 003D;
},
{
glyphname = greater;
layers = (
{
layerId = "6252BF4E-2FA9-4219-B920-178DA9EE1F12";
paths = (
{
closed = 1;
nodes = (
"258 28 OFFCURVE",
"662 225 OFFCURVE",
"662 316 CURVE SMOOTH",
"662 414 OFFCURVE",
"212 620 OFFCURVE",
"142 620 CURVE SMOOTH",
"114 620 OFFCURVE",
"68 604 OFFCURVE",
"68 556 CURVE",
"122 534 OFFCURVE",
"474 393 OFFCURVE",
"474 354 CURVE SMOOTH",
"474 322 OFFCURVE",
"180 195 OFFCURVE",
"70 151 CURVE",
"70 76 OFFCURVE",
"110 28 OFFCURVE",
"172 28 CURVE SMOOTH"
);
}
);
width = 734;
},
{
layerId = "F2B2A884-D9B7-4604-B025-F8D4318BA1DA";
paths = (
{
closed = 1;
nodes = (
"215 68 OFFCURVE",
"569 213 OFFCURVE",
"569 282 CURVE SMOOTH",
"569 358 OFFCURVE",
"181 515 OFFCURVE",
"121 515 CURVE SMOOTH",
"112 515 OFFCURVE",
"97 512 OFFCURVE",
"97 492 CURVE",
"219 455 OFFCURVE",
"497 334 OFFCURVE",
"497 289 CURVE SMOOTH",
"497 263 OFFCURVE",
"255 149 OFFCURVE",
"90 116 CURVE",
"90 83 OFFCURVE",
"111 68 OFFCURVE",
"142 68 CURVE SMOOTH"
);
}
);
width = 634;
}
);
unicode = 003E;
},
{
glyphname = question;
layers = (
{
layerId = "6252BF4E-2FA9-4219-B920-178DA9EE1F12";
paths = (
{
closed = 1;
nodes = (
"365 419 OFFCURVE",
"544 473 OFFCURVE",
"544 617 CURVE SMOOTH",
"544 720 OFFCURVE",
"437 784 OFFCURVE",
"313 784 CURVE SMOOTH",
"184 784 OFFCURVE",
"66 720 OFFCURVE",
"66 620 CURVE SMOOTH",
"66 560 OFFCURVE",
"108 512 OFFCURVE",
"174 512 CURVE SMOOTH",
"236 512 OFFCURVE",
"277 564 OFFCURVE",
"277 577 CURVE",
"251 587 OFFCURVE",
"224 614 OFFCURVE",
"224 647 CURVE SMOOTH",
"224 683 OFFCURVE",
"248 704 OFFCURVE",
"290 704 CURVE SMOOTH",
"349 704 OFFCURVE",
"384 667 OFFCURVE",
"384 614 CURVE SMOOTH",
"384 470 OFFCURVE",
"232 432 OFFCURVE",
"232 317 CURVE SMOOTH",
"232 248 OFFCURVE",
"280 209 OFFCURVE",
"337 209 CURVE SMOOTH",
"379 209 OFFCURVE",
"414 234 OFFCURVE",
"418 272 CURVE",
"383 280 OFFCURVE",
"365 306 OFFCURVE",
"365 325 CURVE SMOOTH"
);
},
{
closed = 1;
nodes = (
"420 128 OFFCURVE",
"388 160 OFFCURVE",
"340 160 CURVE SMOOTH",
"283 160 OFFCURVE",
"228 113 OFFCURVE",
"228 60 CURVE SMOOTH",
"228 22 OFFCURVE",
"260 -11 OFFCURVE",
"308 -11 CURVE SMOOTH",
"367 -11 OFFCURVE",
"420 36 OFFCURVE",
"420 89 CURVE SMOOTH"
);
}
);
width = 610;
},
{
layerId = "F2B2A884-D9B7-4604-B025-F8D4318BA1DA";
paths = (
{
closed = 1;
nodes = (
"245 419 OFFCURVE",
"403 437 OFFCURVE",
"403 606 CURVE SMOOTH",
"403 683 OFFCURVE",
"340 754 OFFCURVE",
"234 754 CURVE SMOOTH",
"135 754 OFFCURVE",
"53 691 OFFCURVE",
"53 611 CURVE SMOOTH",
"53 549 OFFCURVE",
"88 509 OFFCURVE",
"140 509 CURVE SMOOTH",
"155 509 OFFCURVE",
"178 513 OFFCURVE",
"181 529 CURVE",
"134 547 OFFCURVE",
"114 584 OFFCURVE",
"114 624 CURVE SMOOTH",
"114 684 OFFCURVE",
"164 716 OFFCURVE",
"224 716 CURVE SMOOTH",
"297 716 OFFCURVE",
"337 653 OFFCURVE",
"337 599 CURVE SMOOTH",
"337 459 OFFCURVE",
"175 420 OFFCURVE",
"175 281 CURVE SMOOTH",
"175 235 OFFCURVE",
"212 202 OFFCURVE",
"252 202 CURVE SMOOTH",
"275 202 OFFCURVE",
"295 219 OFFCURVE",
"296 243 CURVE",
"263 245 OFFCURVE",
"245 269 OFFCURVE",
"245 302 CURVE SMOOTH"
);
},
{
closed = 1;
nodes = (
"283 80 OFFCURVE",
"265 98 OFFCURVE",
"238 98 CURVE SMOOTH",
"208 98 OFFCURVE",
"176 69 OFFCURVE",
"176 38 CURVE SMOOTH",
"176 11 OFFCURVE",
"194 -8 OFFCURVE",
"221 -8 CURVE SMOOTH",
"253 -8 OFFCURVE",
"283 22 OFFCURVE",
"283 55 CURVE SMOOTH"
);
}
);
width = 463;
}
);
unicode = 003F;
},
{
glyphname = at;
layers = (
{
layerId = "6252BF4E-2FA9-4219-B920-178DA9EE1F12";
paths = (
{
closed = 1;
nodes = (
"542 329 LINE",
"360 329 OFFCURVE",
"251 272 OFFCURVE",
"246 188 CURVE SMOOTH",
"241 118 OFFCURVE",
"295 80 OFFCURVE",
"378 80 CURVE SMOOTH",
"455 80 OFFCURVE",
"511 116 OFFCURVE",
"541 154 CURVE",
"538 212 LINE",
"512 180 OFFCURVE",
"484 162 OFFCURVE",
"452 162 CURVE SMOOTH",
"421 162 OFFCURVE",
"401 174 OFFCURVE",
"403 203 CURVE SMOOTH",
"406 240 OFFCURVE",
"439 272 OFFCURVE",
"539 276 CURVE"
);
},
{
closed = 1;
nodes = (
"677 384 LINE SMOOTH",
"684 496 OFFCURVE",
"604 534 OFFCURVE",
"499 534 CURVE SMOOTH",
"394 534 OFFCURVE",
"288 492 OFFCURVE",
"284 427 CURVE SMOOTH",
"282 388 OFFCURVE",
"308 358 OFFCURVE",
"367 358 CURVE SMOOTH",
"402 358 OFFCURVE",
"431 370 OFFCURVE",
"452 388 CURVE",
"444 398 OFFCURVE",
"439 413 OFFCURVE",
"440 424 CURVE SMOOTH",
"442 448 OFFCURVE",
"462 464 OFFCURVE",
"488 464 CURVE SMOOTH",
"520 464 OFFCURVE",
"538 448 OFFCURVE",
"535 408 CURVE SMOOTH",
"521 179 LINE SMOOTH",
"516 112 OFFCURVE",
"562 80 OFFCURVE",
"629 80 CURVE SMOOTH",
"768 80 OFFCURVE",
"886 187 OFFCURVE",
"886 370 CURVE SMOOTH",
"886 534 OFFCURVE",
"769 695 OFFCURVE",
"535 695 CURVE SMOOTH",
"250 695 OFFCURVE",
"54 486 OFFCURVE",
"54 238 CURVE SMOOTH",
"54 22 OFFCURVE",
"200 -96 OFFCURVE",
"395 -96 CURVE SMOOTH",
"532 -96 OFFCURVE",
"671 -42 OFFCURVE",
"631 2 CURVE",
"560 -24 OFFCURVE",
"490 -36 OFFCURVE",
"416 -36 CURVE SMOOTH",
"224 -36 OFFCURVE",
"120 60 OFFCURVE",
"120 238 CURVE SMOOTH",
"120 455 OFFCURVE",
"264 628 OFFCURVE",
"516 635 CURVE SMOOTH",
"720 641 OFFCURVE",
"826 520 OFFCURVE",
"820 348 CURVE SMOOTH",
"815 216 OFFCURVE",
"751 152 OFFCURVE",
"696 152 CURVE SMOOTH",
"674 152 OFFCURVE",
"664 166 OFFCURVE",
"666 194 CURVE SMOOTH"
);
}
);
width = 958;
},
{
layerId = "F2B2A884-D9B7-4604-B025-F8D4318BA1DA";
paths = (
{
closed = 1;
nodes = (
"529 328 LINE",
"335 322 OFFCURVE",
"250 265 OFFCURVE",
"246 187 CURVE SMOOTH",
"242 120 OFFCURVE",
"296 82 OFFCURVE",
"366 82 CURVE SMOOTH",
"436 82 OFFCURVE",
"495 116 OFFCURVE",
"531 176 CURVE",
"525 204 LINE",
"489 155 OFFCURVE",
"438 129 OFFCURVE",
"384 129 CURVE SMOOTH",
"336 129 OFFCURVE",
"305 147 OFFCURVE",
"308 192 CURVE",
"310 244 OFFCURVE",
"374 290 OFFCURVE",
"527 296 CURVE"
);
},
{
closed = 1;
nodes = (
"584 384 LINE SMOOTH",
"587 460 OFFCURVE",
"535 512 OFFCURVE",
"437 512 CURVE SMOOTH",
"349 512 OFFCURVE",
"279 471 OFFCURVE",
"276 422 CURVE SMOOTH",
"274 397 OFFCURVE",
"294 384 OFFCURVE",
"318 384 CURVE SMOOTH",
"325 384 OFFCURVE",
"339 387 OFFCURVE",
"349 392 CURVE",
"340 401 OFFCURVE",
"338 412 OFFCURVE",
"339 422 CURVE",
"340 450 OFFCURVE",
"369 481 OFFCURVE",
"437 481 CURVE SMOOTH",
"505 481 OFFCURVE",
"528 444 OFFCURVE",
"525 370 CURVE SMOOTH",
"513 167 LINE SMOOTH",
"509 113 OFFCURVE",
"542 80 OFFCURVE",
"592 80 CURVE SMOOTH",
"667 80 OFFCURVE",
"775 172 OFFCURVE",
"775 339 CURVE SMOOTH",
"775 534 OFFCURVE",
"622 649 OFFCURVE",
"453 649 CURVE SMOOTH",
"247 649 OFFCURVE",
"74 505 OFFCURVE",
"74 249 CURVE SMOOTH",
"74 9 OFFCURVE",
"239 -70 OFFCURVE",
"362 -70 CURVE SMOOTH",
"516 -70 OFFCURVE",
"572 -5 OFFCURVE",
"546 17 CURVE",
"503 -10 OFFCURVE",
"441 -29 OFFCURVE",
"368 -29 CURVE SMOOTH",
"268 -29 OFFCURVE",
"120 33 OFFCURVE",
"120 249 CURVE SMOOTH",
"120 480 OFFCURVE",
"260 609 OFFCURVE",
"448 609 CURVE",
"595 608 OFFCURVE",
"728 509 OFFCURVE",
"729 341 CURVE",
"729 187 OFFCURVE",
"650 125 OFFCURVE",
"601 125 CURVE SMOOTH",
"579 125 OFFCURVE",
"569 135 OFFCURVE",
"571 161 CURVE SMOOTH"
);
}
);
width = 847;
}
);
unicode = 0040;
},
{
glyphname = A;
layers = (
{
anchors = (
{
name = ogonek;
position = "{692, 29}";
},
{
name = top;
position = "{371, 736}";
}
);
layerId = "6252BF4E-2FA9-4219-B920-178DA9EE1F12";
paths = (
{
closed = 1;
nodes = (
"547 140 LINE",
"510 236 LINE",
"232 236 LINE",
"198 140 LINE"
);
},
{
closed = 1;
nodes = (
"474 622 LINE SMOOTH",
"444 702 OFFCURVE",
"425 746 OFFCURVE",
"352 746 CURVE SMOOTH",
"308 746 OFFCURVE",
"274 726 OFFCURVE",
"256 698 CURVE",
"274 685 OFFCURVE",
"286 670 OFFCURVE",
"295 644 CURVE",
"90 115 LINE SMOOTH",
"72 70 OFFCURVE",
"60 50 OFFCURVE",
"36 40 CURVE",
"48 10 OFFCURVE",
"92 -11 OFFCURVE",
"134 -11 CURVE SMOOTH",
"176 -11 OFFCURVE",
"212 13 OFFCURVE",
"234 87 CURVE SMOOTH",
"388 598 LINE",
"337 620 LINE",
"505 86 LINE SMOOTH",
"529 10 OFFCURVE",
"562 -11 OFFCURVE",
"616 -11 CURVE SMOOTH",
"666 -11 OFFCURVE",
"706 12 OFFCURVE",
"722 46 CURVE",
"691 61 OFFCURVE",
"670 91 OFFCURVE",
"653 138 CURVE SMOOTH"
);
}
);
width = 742;
},
{
anchors = (
{
name = ogonek;
position = "{604, 10}";
},
{
name = top;
position = "{319, 712}";
}
);
layerId = "F2B2A884-D9B7-4604-B025-F8D4318BA1DA";
paths = (
{
closed = 1;
nodes = (
"500 177 LINE",
"483 228 LINE",
"153 228 LINE",
"133 177 LINE"
);
},
{
closed = 1;
nodes = (
"349 672 LINE SMOOTH",
"337 704 OFFCURVE",
"322 719 OFFCURVE",
"299 719 CURVE SMOOTH",
"283 719 OFFCURVE",
"270 712 OFFCURVE",
"259 700 CURVE",
"271 691 OFFCURVE",
"278 677 OFFCURVE",
"285 660 CURVE",
"47 52 LINE SMOOTH",
"40 34 OFFCURVE",
"33 24 OFFCURVE",
"18 19 CURVE",
"22 3 OFFCURVE",
"38 -7 OFFCURVE",
"57 -7 CURVE SMOOTH",
"84 -7 OFFCURVE",
"98 8 OFFCURVE",
"112 46 CURVE SMOOTH",
"328 640 LINE",
"300 619 LINE",
"517 45 LINE SMOOTH",
"531 8 OFFCURVE",
"545 -7 OFFCURVE",
"571 -7 CURVE SMOOTH",
"590 -7 OFFCURVE",
"607 4 OFFCURVE",
"614 19 CURVE",
"600 23 OFFCURVE",
"591 33 OFFCURVE",
"582 56 CURVE SMOOTH"
);
}
);
width = 632;
}
);
unicode = 0041;
},
{
glyphname = B;
layers = (
{
layerId = "6252BF4E-2FA9-4219-B920-178DA9EE1F12";
paths = (
{
closed = 1;
nodes = (
"685 640 OFFCURVE",
"600 736 OFFCURVE",
"399 736 CURVE SMOOTH",
"162 736 LINE SMOOTH",
"122 736 OFFCURVE",
"92 718 OFFCURVE",
"70 692 CURVE",
"93 680 OFFCURVE",
"104 658 OFFCURVE",
"104 623 CURVE SMOOTH",
"104 166 LINE SMOOTH",
"104 39 OFFCURVE",
"152 0 OFFCURVE",
"304 0 CURVE SMOOTH",
"432 0 LINE SMOOTH",
"641 0 OFFCURVE",
"733 105 OFFCURVE",
"733 205 CURVE SMOOTH",
"733 297 OFFCURVE",
"656 372 OFFCURVE",
"543 388 CURVE",
"629 407 OFFCURVE",
"685 461 OFFCURVE",
"685 540 CURVE SMOOTH"
);
},
{
closed = 1;
nodes = (
"262 629 LINE",
"399 629 LINE SMOOTH",
"488 629 OFFCURVE",
"524 579 OFFCURVE",
"524 528 CURVE SMOOTH",
"524 469 OFFCURVE",
"488 426 OFFCURVE",
"399 427 CURVE SMOOTH",
"262 428 LINE"
);
},
{
closed = 1;
nodes = (
"262 320 LINE",
"432 320 LINE SMOOTH",
"519 320 OFFCURVE",
"571 283 OFFCURVE",
"571 214 CURVE SMOOTH",
"571 151 OFFCURVE",
"519 108 OFFCURVE",
"432 108 CURVE SMOOTH",
"327 108 LINE SMOOTH",
"275 108 OFFCURVE",
"262 124 OFFCURVE",
"262 166 CURVE SMOOTH"
);
}
);
width = 785;
},
{
layerId = "F2B2A884-D9B7-4604-B025-F8D4318BA1DA";
paths = (
{
closed = 1;
nodes = (
"576 635 OFFCURVE",
"497 712 OFFCURVE",
"336 712 CURVE SMOOTH",
"151 712 LINE SMOOTH",
"108 712 OFFCURVE",
"89 702 OFFCURVE",
"74 678 CURVE",
"89 672 OFFCURVE",
"97 666 OFFCURVE",
"97 646 CURVE SMOOTH",
"95 127 LINE SMOOTH",
"95 38 OFFCURVE",
"133 0 OFFCURVE",
"231 0 CURVE SMOOTH",
"379 0 LINE SMOOTH",
"527 0 OFFCURVE",
"622 78 OFFCURVE",
"622 194 CURVE SMOOTH",
"622 279 OFFCURVE",
"549 355 OFFCURVE",
"446 370 CURVE",
"522 393 OFFCURVE",
"576 445 OFFCURVE",
"576 534 CURVE SMOOTH"
);
},
{
closed = 1;
nodes = (
"163 662 LINE",
"326 662 LINE SMOOTH",
"446 662 OFFCURVE",
"505 608 OFFCURVE",
"505 526 CURVE SMOOTH",
"505 440 OFFCURVE",
"446 386 OFFCURVE",
"326 386 CURVE SMOOTH",
"161 386 LINE"
);
},
{
closed = 1;
nodes = (
"161 336 LINE",
"379 336 LINE SMOOTH",
"494 336 OFFCURVE",
"551 281 OFFCURVE",
"551 193 CURVE SMOOTH",
"551 105 OFFCURVE",
"494 50 OFFCURVE",
"379 50 CURVE SMOOTH",
"231 50 LINE SMOOTH",
"181 50 OFFCURVE",
"160 66 OFFCURVE",
"160 127 CURVE SMOOTH"
);
}
);
width = 674;
}
);
unicode = 0042;
},
{
glyphname = C;
layers = (
{
anchors = (
{
name = bottom;
position = "{370, 0}";
},
{
name = top;
position = "{370, 736}";
}
);
layerId = "6252BF4E-2FA9-4219-B920-178DA9EE1F12";
paths = (
{
closed = 1;
nodes = (
"670 683 OFFCURVE",
"553 746 OFFCURVE",
"415 746 CURVE SMOOTH",
"197 746 OFFCURVE",
"62 593 OFFCURVE",
"62 361 CURVE SMOOTH",
"62 125 OFFCURVE",
"185 -11 OFFCURVE",
"395 -11 CURVE SMOOTH",
"554 -11 OFFCURVE",
"672 89 OFFCURVE",
"672 164 CURVE SMOOTH",
"672 208 OFFCURVE",
"644 223 OFFCURVE",
"637 226 CURVE",
"599 180 OFFCURVE",
"522 130 OFFCURVE",
"436 130 CURVE SMOOTH",
"317 130 OFFCURVE",
"227 185 OFFCURVE",
"227 383 CURVE SMOOTH",
"227 558 OFFCURVE",
"310 658 OFFCURVE",
"401 658 CURVE SMOOTH",
"467 658 OFFCURVE",
"496 611 OFFCURVE",
"482 532 CURVE",
"506 517 OFFCURVE",
"534 511 OFFCURVE",
"558 511 CURVE SMOOTH",
"616 511 OFFCURVE",
"670 534 OFFCURVE",
"670 599 CURVE SMOOTH"
);
}
);
width = 738;
},
{
anchors = (
{
name = bottom;
position = "{332, 0}";
},
{
name = top;
position = "{332, 712}";
}
);
layerId = "F2B2A884-D9B7-4604-B025-F8D4318BA1DA";
paths = (
{
closed = 1;
nodes = (
"588 667 OFFCURVE",
"511 720 OFFCURVE",
"400 720 CURVE SMOOTH",
"222 720 OFFCURVE",
"66 575 OFFCURVE",
"66 336 CURVE SMOOTH",
"66 128 OFFCURVE",
"198 -8 OFFCURVE",
"362 -8 CURVE SMOOTH",
"498 -8 OFFCURVE",
"588 71 OFFCURVE",
"588 105 CURVE SMOOTH",
"588 120 OFFCURVE",
"580 128 OFFCURVE",
"572 129 CURVE",
"535 92 OFFCURVE",
"465 51 OFFCURVE",
"380 51 CURVE SMOOTH",
"226 51 OFFCURVE",
"138 167 OFFCURVE",
"138 351 CURVE SMOOTH",
"138 567 OFFCURVE",
"266 661 OFFCURVE",
"382 661 CURVE SMOOTH",
"481 661 OFFCURVE",
"527 614 OFFCURVE",
"521 566 CURVE",
"529 563 OFFCURVE",
"536 563 OFFCURVE",
"545 563 CURVE SMOOTH",
"571 563 OFFCURVE",
"588 581 OFFCURVE",
"588 607 CURVE SMOOTH"
);
}
);
width = 661;
}
);
unicode = 0043;
},
{
glyphname = D;
layers = (
{
anchors = (
{
name = top;
position = "{402, 730}";
}
);
layerId = "6252BF4E-2FA9-4219-B920-178DA9EE1F12";
paths = (
{
closed = 1;
nodes = (
"262 622 LINE",
"294 634 OFFCURVE",
"318 640 OFFCURVE",
"356 640 CURVE SMOOTH",
"498 640 OFFCURVE",
"582 529 OFFCURVE",
"582 367 CURVE SMOOTH",
"582 205 OFFCURVE",
"498 96 OFFCURVE",
"356 96 CURVE SMOOTH",
"284 96 OFFCURVE",
"262 120 OFFCURVE",
"262 158 CURVE SMOOTH"
);
},
{
closed = 1;
nodes = (
"744 611 OFFCURVE",
"581 746 OFFCURVE",
"356 746 CURVE SMOOTH",
"251 746 OFFCURVE",
"168 727 OFFCURVE",
"77 694 CURVE",
"96 665 OFFCURVE",
"104 626 OFFCURVE",
"104 584 CURVE SMOOTH",
"104 169 LINE SMOOTH",
"104 41 OFFCURVE",
"184 -11 OFFCURVE",
"356 -11 CURVE SMOOTH",
"581 -11 OFFCURVE",
"744 124 OFFCURVE",
"744 367 CURVE SMOOTH"
);
}
);
width = 803;
},
{
anchors = (
{
name = top;
position = "{350, 700}";
}
);
layerId = "F2B2A884-D9B7-4604-B025-F8D4318BA1DA";
paths = (
{
closed = 1;
nodes = (
"163 651 LINE",
"213 665 OFFCURVE",
"243 666 OFFCURVE",
"290 666 CURVE SMOOTH",
"441 666 OFFCURVE",
"593 574 OFFCURVE",
"593 355 CURVE SMOOTH",
"593 134 OFFCURVE",
"441 42 OFFCURVE",
"290 42 CURVE SMOOTH",
"162 42 OFFCURVE",
"160 63 OFFCURVE",
"160 105 CURVE SMOOTH"
);
},
{
closed = 1;
nodes = (
"664 617 OFFCURVE",
"466 720 OFFCURVE",
"290 720 CURVE SMOOTH",
"215 720 OFFCURVE",
"148 711 OFFCURVE",
"85 689 CURVE",
"94 679 OFFCURVE",
"97 666 OFFCURVE",
"97 647 CURVE SMOOTH",
"95 102 LINE SMOOTH",
"95 40 OFFCURVE",
"118 -8 OFFCURVE",
"290 -8 CURVE SMOOTH",
"466 -8 OFFCURVE",
"664 94 OFFCURVE",
"664 355 CURVE SMOOTH"
);
}
);
width = 700;
}
);
unicode = 0044;
},
{
glyphname = E;
layers = (
{
anchors = (
{
name = bottom;
position = "{359, 0}";
},
{
name = ogonek;
position = "{576, 24}";
},
{
name = top;
position = "{383, 736}";
}
);
layerId = "6252BF4E-2FA9-4219-B920-178DA9EE1F12";
paths = (
{
closed = 1;
nodes = (
"175 736 LINE SMOOTH",
"136 736 OFFCURVE",
"106 718 OFFCURVE",
"84 692 CURVE",
"107 680 OFFCURVE",
"118 658 OFFCURVE",
"118 623 CURVE SMOOTH",
"118 179 LINE SMOOTH",
"118 54 OFFCURVE",
"179 0 OFFCURVE",
"311 0 CURVE SMOOTH",
"528 0 LINE SMOOTH",
"617 0 OFFCURVE",
"656 42 OFFCURVE",
"656 95 CURVE SMOOTH",
"656 124 OFFCURVE",
"643 152 OFFCURVE",
"624 168 CURVE",
"588 142 OFFCURVE",
"548 128 OFFCURVE",
"498 128 CURVE SMOOTH",
"337 128 LINE SMOOTH",
"295 128 OFFCURVE",
"275 150 OFFCURVE",
"275 199 CURVE SMOOTH",
"275 607 LINE",
"498 607 LINE SMOOTH",
"548 607 OFFCURVE",
"589 602 OFFCURVE",
"624 588 CURVE",
"643 604 OFFCURVE",
"656 625 OFFCURVE",
"656 654 CURVE SMOOTH",
"656 707 OFFCURVE",
"617 736 OFFCURVE",
"509 736 CURVE SMOOTH"
);
},
{
closed = 1;
nodes = (
"258 457 LINE",
"258 329 LINE",
"402 329 LINE SMOOTH",
"452 329 OFFCURVE",
"492 329 OFFCURVE",
"528 317 CURVE",
"547 332 OFFCURVE",
"560 354 OFFCURVE",
"560 383 CURVE SMOOTH",
"560 436 OFFCURVE",
"521 457 OFFCURVE",
"413 457 CURVE SMOOTH"
);
}
);
width = 716;
},
{
anchors = (
{
name = bottom;
position = "{310, 0}";
},
{
name = ogonek;
position = "{534, 28}";
},
{
name = top;
position = "{307, 712}";
}
);
layerId = "F2B2A884-D9B7-4604-B025-F8D4318BA1DA";
paths = (
{
closed = 1;
nodes = (
"161 712 LINE SMOOTH",
"118 712 OFFCURVE",
"99 702 OFFCURVE",
"84 678 CURVE",
"99 672 OFFCURVE",
"107 666 OFFCURVE",
"107 646 CURVE SMOOTH",
"107 120 LINE SMOOTH",
"107 32 OFFCURVE",
"154 0 OFFCURVE",
"247 0 CURVE SMOOTH",
"454 0 LINE SMOOTH",
"532 0 OFFCURVE",
"560 24 OFFCURVE",
"560 58 CURVE SMOOTH",
"560 72 OFFCURVE",
"548 89 OFFCURVE",
"531 93 CURVE",
"517 64 OFFCURVE",
"495 51 OFFCURVE",
"458 51 CURVE SMOOTH",
"245 51 LINE SMOOTH",
"191 51 OFFCURVE",
"171 70 OFFCURVE",
"171 118 CURVE SMOOTH",
"171 660 LINE",
"458 660 LINE SMOOTH",
"495 660 OFFCURVE",
"515 653 OFFCURVE",
"531 633 CURVE",
"548 637 OFFCURVE",
"560 650 OFFCURVE",
"560 668 CURVE SMOOTH",
"560 695 OFFCURVE",
"532 712 OFFCURVE",
"472 712 CURVE"
);
},
{
closed = 1;
nodes = (
"151 391 LINE",
"151 339 LINE",
"395 339 LINE SMOOTH",
"430 339 OFFCURVE",
"452 335 OFFCURVE",
"468 324 CURVE",
"481 330 OFFCURVE",
"491 341 OFFCURVE",
"491 359 CURVE SMOOTH",
"491 385 OFFCURVE",
"463 391 OFFCURVE",
"402 391 CURVE"
);
}
);
width = 620;
}
);
unicode = 0045;
},
{
glyphname = F;
layers = (
{
layerId = "6252BF4E-2FA9-4219-B920-178DA9EE1F12";
paths = (
{
closed = 1;
nodes = (
"258 442 LINE",
"258 334 LINE",
"402 334 LINE SMOOTH",
"452 334 OFFCURVE",
"492 334 OFFCURVE",
"528 324 CURVE",
"547 337 OFFCURVE",
"560 356 OFFCURVE",
"560 380 CURVE SMOOTH",
"560 424 OFFCURVE",
"521 442 OFFCURVE",
"413 442 CURVE SMOOTH"
);
},
{
closed = 1;
nodes = (
"118 108 LINE SMOOTH",
"118 28 OFFCURVE",
"148 -11 OFFCURVE",
"216 -11 CURVE SMOOTH",
"257 -11 OFFCURVE",
"286 7 OFFCURVE",
"307 32 CURVE",
"284 44 OFFCURVE",
"275 67 OFFCURVE",
"275 103 CURVE SMOOTH",
"275 619 LINE",
"498 619 LINE SMOOTH",
"548 619 OFFCURVE",
"589 614 OFFCURVE",
"624 600 CURVE",
"643 616 OFFCURVE",
"656 637 OFFCURVE",
"656 666 CURVE SMOOTH",
"656 707 OFFCURVE",
"629 736 OFFCURVE",
"521 736 CURVE SMOOTH",
"175 736 LINE SMOOTH",
"136 736 OFFCURVE",
"106 718 OFFCURVE",
"84 692 CURVE",
"107 680 OFFCURVE",
"118 658 OFFCURVE",
"118 623 CURVE SMOOTH"
);
}
);
width = 670;
},
{
layerId = "F2B2A884-D9B7-4604-B025-F8D4318BA1DA";
paths = (
{
closed = 1;
nodes = (
"151 393 LINE",
"151 338 LINE",
"395 338 LINE SMOOTH",
"430 338 OFFCURVE",
"452 334 OFFCURVE",
"468 323 CURVE",
"481 329 OFFCURVE",
"491 341 OFFCURVE",
"491 359 CURVE SMOOTH",
"491 387 OFFCURVE",
"463 393 OFFCURVE",
"402 393 CURVE"
);
},
{
closed = 1;
nodes = (
"107 50 LINE SMOOTH",
"107 13 OFFCURVE",
"123 -7 OFFCURVE",
"151 -7 CURVE SMOOTH",
"170 -7 OFFCURVE",
"185 6 OFFCURVE",
"194 22 CURVE",
"178 27 OFFCURVE",
"171 34 OFFCURVE",
"171 52 CURVE SMOOTH",
"171 659 LINE",
"458 659 LINE SMOOTH",
"495 659 OFFCURVE",
"515 651 OFFCURVE",
"531 632 CURVE",
"548 636 OFFCURVE",
"560 649 OFFCURVE",
"560 667 CURVE SMOOTH",
"560 695 OFFCURVE",
"531 712 OFFCURVE",
"470 712 CURVE SMOOTH",
"161 712 LINE SMOOTH",
"118 712 OFFCURVE",
"99 702 OFFCURVE",
"84 678 CURVE",
"99 672 OFFCURVE",
"107 666 OFFCURVE",
"107 646 CURVE"
);
}
);
width = 591;
}
);
unicode = 0046;
},
{
glyphname = G;
layers = (
{
anchors = (
{
name = bottom;
position = "{395, 0}";
},
{
name = top;
position = "{445, 736}";
}
);
layerId = "6252BF4E-2FA9-4219-B920-178DA9EE1F12";
paths = (
{
closed = 1;
nodes = (
"720 679 OFFCURVE",
"604 746 OFFCURVE",
"462 746 CURVE SMOOTH",
"199 746 OFFCURVE",
"62 572 OFFCURVE",
"62 341 CURVE SMOOTH",
"62 98 OFFCURVE",
"238 -11 OFFCURVE",
"382 -11 CURVE SMOOTH",
"490 -11 OFFCURVE",
"559 40 OFFCURVE",
"584 115 CURVE",
"559 115 LINE",
"559 12 LINE SMOOTH",
"559 -68 OFFCURVE",
"589 -107 OFFCURVE",
"658 -107 CURVE SMOOTH",
"698 -107 OFFCURVE",
"727 -89 OFFCURVE",
"749 -64 CURVE",
"726 -52 OFFCURVE",
"716 -29 OFFCURVE",
"716 7 CURVE SMOOTH",
"716 280 LINE SMOOTH",
"716 362 OFFCURVE",
"684 397 OFFCURVE",
"577 397 CURVE SMOOTH",
"456 397 OFFCURVE",
"415 383 OFFCURVE",
"415 334 CURVE SMOOTH",
"415 323 OFFCURVE",
"420 294 OFFCURVE",
"433 275 CURVE",
"475 277 OFFCURVE",
"502 277 OFFCURVE",
"527 277 CURVE SMOOTH",
"559 277 LINE",
"559 230 LINE SMOOTH",
"559 149 OFFCURVE",
"515 109 OFFCURVE",
"428 109 CURVE SMOOTH",
"301 109 OFFCURVE",
"228 212 OFFCURVE",
"230 373 CURVE SMOOTH",
"233 545 OFFCURVE",
"307 658 OFFCURVE",
"430 658 CURVE SMOOTH",
"498 658 OFFCURVE",
"541 611 OFFCURVE",
"533 532 CURVE",
"557 517 OFFCURVE",
"584 511 OFFCURVE",
"608 511 CURVE SMOOTH",
"666 511 OFFCURVE",
"720 546 OFFCURVE",
"720 596 CURVE SMOOTH"
);
}
);
width = 790;
},
{
anchors = (
{
name = bottom;
position = "{348, 0}";
},
{
name = top;
position = "{405, 712}";
}
);
layerId = "F2B2A884-D9B7-4604-B025-F8D4318BA1DA";
paths = (
{
closed = 1;
nodes = (
"628 660 OFFCURVE",
"560 720 OFFCURVE",
"430 720 CURVE SMOOTH",
"222 720 OFFCURVE",
"66 558 OFFCURVE",
"66 316 CURVE SMOOTH",
"66 117 OFFCURVE",
"190 -8 OFFCURVE",
"356 -8 CURVE SMOOTH",
"457 -8 OFFCURVE",
"538 60 OFFCURVE",
"566 103 CURVE",
"552 103 LINE",
"551 -41 LINE SMOOTH",
"551 -78 OFFCURVE",
"568 -97 OFFCURVE",
"596 -97 CURVE SMOOTH",
"616 -97 OFFCURVE",
"631 -85 OFFCURVE",
"639 -68 CURVE",
"625 -63 OFFCURVE",
"616 -57 OFFCURVE",
"616 -38 CURVE SMOOTH",
"619 321 LINE SMOOTH",
"619 360 OFFCURVE",
"610 374 OFFCURVE",
"509 374 CURVE SMOOTH",
"389 374 OFFCURVE",
"350 362 OFFCURVE",
"350 336 CURVE SMOOTH",
"350 326 OFFCURVE",
"355 319 OFFCURVE",
"360 314 CURVE",
"380 316 OFFCURVE",
"440 320 OFFCURVE",
"489 320 CURVE SMOOTH",
"556 320 LINE",
"554 143 LINE",
"494 83 OFFCURVE",
"438 51 OFFCURVE",
"360 51 CURVE SMOOTH",
"223 51 OFFCURVE",
"138 150 OFFCURVE",
"138 332 CURVE",
"137 545 OFFCURVE",
"248 661 OFFCURVE",
"414 661 CURVE SMOOTH",
"518 661 OFFCURVE",
"566 614 OFFCURVE",
"561 561 CURVE",
"569 558 OFFCURVE",
"576 557 OFFCURVE",
"585 557 CURVE SMOOTH",
"611 557 OFFCURVE",
"628 575 OFFCURVE",
"628 600 CURVE SMOOTH"
);
}
);
width = 695;
}
);
unicode = 0047;
},
{
glyphname = H;
layers = (
{
layerId = "6252BF4E-2FA9-4219-B920-178DA9EE1F12";
paths = (
{
closed = 1;
nodes = (
"268 628 LINE SMOOTH",
"268 708 OFFCURVE",
"236 746 OFFCURVE",
"168 746 CURVE SMOOTH",
"128 746 OFFCURVE",
"98 728 OFFCURVE",
"77 703 CURVE",
"100 691 OFFCURVE",
"110 668 OFFCURVE",
"110 634 CURVE SMOOTH",
"110 108 LINE SMOOTH",
"110 28 OFFCURVE",
"140 -11 OFFCURVE",
"209 -11 CURVE SMOOTH",
"250 -11 OFFCURVE",
"278 7 OFFCURVE",
"300 32 CURVE",
"277 44 OFFCURVE",
"268 67 OFFCURVE",
"268 103 CURVE SMOOTH"
);
},
{
closed = 1;
nodes = (
"743 628 LINE SMOOTH",
"743 708 OFFCURVE",
"712 746 OFFCURVE",
"643 746 CURVE SMOOTH",
"604 746 OFFCURVE",
"574 728 OFFCURVE",
"552 703 CURVE",
"575 691 OFFCURVE",
"586 668 OFFCURVE",
"586 634 CURVE SMOOTH",
"586 108 LINE SMOOTH",
"586 28 OFFCURVE",
"616 -11 OFFCURVE",
"684 -11 CURVE SMOOTH",
"725 -11 OFFCURVE",
"754 7 OFFCURVE",
"775 32 CURVE",
"752 44 OFFCURVE",
"743 67 OFFCURVE",
"743 103 CURVE SMOOTH"
);
},
{
closed = 1;
nodes = (
"620 425 LINE",
"230 425 LINE",
"230 323 LINE",
"620 323 LINE"
);
}
);
width = 852;
},
{
layerId = "F2B2A884-D9B7-4604-B025-F8D4318BA1DA";
paths = (
{
closed = 1;
nodes = (
"156 663 LINE SMOOTH",
"156 700 OFFCURVE",
"140 720 OFFCURVE",
"111 720 CURVE SMOOTH",
"93 720 OFFCURVE",
"77 707 OFFCURVE",
"69 691 CURVE",
"84 686 OFFCURVE",
"92 679 OFFCURVE",
"92 660 CURVE SMOOTH",
"92 49 LINE SMOOTH",
"92 12 OFFCURVE",
"107 -8 OFFCURVE",
"136 -8 CURVE SMOOTH",
"154 -8 OFFCURVE",
"170 5 OFFCURVE",
"179 21 CURVE",
"164 26 OFFCURVE",
"156 33 OFFCURVE",
"156 51 CURVE"
);
},
{
closed = 1;
nodes = (
"623 663 LINE SMOOTH",
"623 700 OFFCURVE",
"608 720 OFFCURVE",
"578 720 CURVE SMOOTH",
"560 720 OFFCURVE",
"544 707 OFFCURVE",
"537 691 CURVE",
"551 686 OFFCURVE",
"560 679 OFFCURVE",
"560 660 CURVE SMOOTH",
"560 49 LINE SMOOTH",
"560 12 OFFCURVE",
"574 -8 OFFCURVE",
"604 -8 CURVE SMOOTH",
"622 -8 OFFCURVE",
"637 5 OFFCURVE",
"646 21 CURVE",
"631 26 OFFCURVE",
"623 33 OFFCURVE",
"623 51 CURVE"
);
},
{
closed = 1;
nodes = (
"585 380 LINE",
"129 380 LINE",
"129 329 LINE",
"585 329 LINE"
);
}
);
width = 720;
}
);
unicode = 0048;
},
{
glyphname = I;
layers = (
{
anchors = (
{
name = ogonek;
position = "{280, 10}";
},
{
name = top;
position = "{188, 736}";
}
);
layerId = "6252BF4E-2FA9-4219-B920-178DA9EE1F12";
paths = (
{
closed = 1;
nodes = (
"268 628 LINE SMOOTH",
"268 708 OFFCURVE",
"236 746 OFFCURVE",
"168 746 CURVE SMOOTH",
"128 746 OFFCURVE",
"98 728 OFFCURVE",
"77 703 CURVE",
"100 691 OFFCURVE",
"110 668 OFFCURVE",
"110 634 CURVE SMOOTH",
"110 108 LINE SMOOTH",
"110 28 OFFCURVE",
"140 -11 OFFCURVE",
"209 -11 CURVE SMOOTH",
"250 -11 OFFCURVE",
"278 7 OFFCURVE",
"300 32 CURVE",
"277 44 OFFCURVE",
"268 67 OFFCURVE",
"268 103 CURVE SMOOTH"
);
}
);
width = 377;
},
{
anchors = (
{
name = ogonek;
position = "{189, 12}";
},
{
name = top;
position = "{126, 712}";
}
);
layerId = "F2B2A884-D9B7-4604-B025-F8D4318BA1DA";
paths = (
{
closed = 1;
nodes = (
"156 663 LINE SMOOTH",
"156 700 OFFCURVE",
"140 720 OFFCURVE",
"111 720 CURVE SMOOTH",
"93 720 OFFCURVE",
"77 707 OFFCURVE",
"69 691 CURVE",
"84 686 OFFCURVE",
"92 679 OFFCURVE",
"92 660 CURVE SMOOTH",
"92 49 LINE SMOOTH",
"92 12 OFFCURVE",
"107 -8 OFFCURVE",
"136 -8 CURVE SMOOTH",
"154 -8 OFFCURVE",
"170 5 OFFCURVE",
"179 21 CURVE",
"164 26 OFFCURVE",
"156 33 OFFCURVE",
"156 51 CURVE"
);
}
);
width = 253;
}
);
unicode = 0049;
},
{
glyphname = J;
layers = (
{
layerId = "6252BF4E-2FA9-4219-B920-178DA9EE1F12";
paths = (
{
closed = 1;
nodes = (
"313 -11 OFFCURVE",
"403 56 OFFCURVE",
"403 197 CURVE SMOOTH",
"403 628 LINE SMOOTH",
"403 708 OFFCURVE",
"372 746 OFFCURVE",
"304 746 CURVE SMOOTH",
"264 746 OFFCURVE",
"234 728 OFFCURVE",
"212 703 CURVE",
"235 691 OFFCURVE",
"246 668 OFFCURVE",
"246 634 CURVE SMOOTH",
"246 190 LINE SMOOTH",
"246 139 OFFCURVE",
"209 114 OFFCURVE",
"162 114 CURVE SMOOTH",
"116 114 OFFCURVE",
"80 130 OFFCURVE",
"43 162 CURVE",
"29 149 OFFCURVE",
"18 126 OFFCURVE",
"18 101 CURVE SMOOTH",
"18 40 OFFCURVE",
"86 -11 OFFCURVE",
"190 -11 CURVE SMOOTH"
);
}
);
width = 468;
},
{
layerId = "F2B2A884-D9B7-4604-B025-F8D4318BA1DA";
paths = (
{
closed = 1;
nodes = (
"235 -7 OFFCURVE",
"291 43 OFFCURVE",
"291 134 CURVE SMOOTH",
"291 663 LINE SMOOTH",
"291 700 OFFCURVE",
"275 720 OFFCURVE",
"247 720 CURVE SMOOTH",
"229 720 OFFCURVE",
"213 707 OFFCURVE",
"204 691 CURVE",
"220 686 OFFCURVE",
"227 679 OFFCURVE",
"227 660 CURVE SMOOTH",
"227 133 LINE SMOOTH",
"227 73 OFFCURVE",
"199 48 OFFCURVE",
"143 48 CURVE SMOOTH",
"98 48 OFFCURVE",
"66 59 OFFCURVE",
"38 77 CURVE",
"32 70 OFFCURVE",
"30 62 OFFCURVE",
"30 52 CURVE SMOOTH",
"30 22 OFFCURVE",
"71 -7 OFFCURVE",
"150 -7 CURVE SMOOTH"
);
}
);
width = 377;
}
);
unicode = 004A;
},
{
glyphname = K;
layers = (
{
anchors = (
{
name = bottom;
position = "{401, 0}";
},
{
name = top;
position = "{385, 700}";
}
);
layerId = "6252BF4E-2FA9-4219-B920-178DA9EE1F12";
paths = (
{
closed = 1;
nodes = (
"268 628 LINE SMOOTH",
"268 708 OFFCURVE",
"236 746 OFFCURVE",
"168 746 CURVE SMOOTH",
"128 746 OFFCURVE",
"98 728 OFFCURVE",
"77 703 CURVE",
"100 691 OFFCURVE",
"110 668 OFFCURVE",
"110 634 CURVE SMOOTH",
"110 108 LINE SMOOTH",
"110 28 OFFCURVE",
"140 -11 OFFCURVE",
"209 -11 CURVE SMOOTH",
"250 -11 OFFCURVE",
"278 7 OFFCURVE",
"300 32 CURVE",
"277 44 OFFCURVE",
"268 67 OFFCURVE",
"268 103 CURVE SMOOTH"
);
},
{
closed = 1;
nodes = (
"712 700 OFFCURVE",
"670 746 OFFCURVE",
"610 746 CURVE SMOOTH",
"537 746 OFFCURVE",
"492 706 OFFCURVE",
"399 573 CURVE SMOOTH",
"262 378 LINE",
"262 343 LINE",
"451 102 LINE SMOOTH",
"516 20 OFFCURVE",
"555 -11 OFFCURVE",
"613 -11 CURVE SMOOTH",
"668 -11 OFFCURVE",
"721 35 OFFCURVE",
"721 106 CURVE",
"685 103 OFFCURVE",
"654 119 OFFCURVE",
"617 156 CURVE SMOOTH",
"366 410 LINE",
"364 347 LINE",
"597 573 LINE SMOOTH",
"647 622 OFFCURVE",
"682 633 OFFCURVE",
"715 638 CURVE"
);
}
);
width = 769;
},
{
anchors = (
{
name = bottom;
position = "{314, 0}";
},
{
name = top;
position = "{305, 700}";
}
);
layerId = "F2B2A884-D9B7-4604-B025-F8D4318BA1DA";
paths = (
{
closed = 1;
nodes = (
"156 663 LINE SMOOTH",
"156 700 OFFCURVE",
"140 720 OFFCURVE",
"111 720 CURVE SMOOTH",
"93 720 OFFCURVE",
"77 707 OFFCURVE",
"69 691 CURVE",
"84 686 OFFCURVE",
"92 679 OFFCURVE",
"92 660 CURVE SMOOTH",
"92 49 LINE SMOOTH",
"92 12 OFFCURVE",
"107 -8 OFFCURVE",
"136 -8 CURVE SMOOTH",
"154 -8 OFFCURVE",
"170 5 OFFCURVE",
"179 21 CURVE",
"164 26 OFFCURVE",
"156 33 OFFCURVE",
"156 51 CURVE SMOOTH"
);
},
{
closed = 1;
nodes = (
"562 701 OFFCURVE",
"545 719 OFFCURVE",
"516 719 CURVE SMOOTH",
"490 719 OFFCURVE",
"470 707 OFFCURVE",
"438 672 CURVE SMOOTH",
"148 354 LINE",
"148 342 LINE",
"395 76 LINE SMOOTH",
"457 9 OFFCURVE",
"476 -8 OFFCURVE",
"514 -7 CURVE SMOOTH",
"542 -6 OFFCURVE",
"559 22 OFFCURVE",
"559 51 CURVE",
"517 46 OFFCURVE",
"499 61 OFFCURVE",
"446 114 CURVE SMOOTH",
"187 371 LINE",
"187 338 LINE",
"486 630 LINE SMOOTH",
"514 658 OFFCURVE",
"539 673 OFFCURVE",
"566 673 CURVE"
);
}
);
width = 610;
}
);
unicode = 004B;
},
{
glyphname = L;
layers = (
{
anchors = (
{
name = bottom;
position = "{335, 0}";
},
{
name = top;
position = "{188, 736}";
},
{
name = topright;
position = "{239, 700}";
}
);
layerId = "6252BF4E-2FA9-4219-B920-178DA9EE1F12";
paths = (
{
closed = 1;
nodes = (
"268 628 LINE SMOOTH",
"268 708 OFFCURVE",
"236 746 OFFCURVE",
"168 746 CURVE SMOOTH",
"128 746 OFFCURVE",
"98 728 OFFCURVE",
"77 703 CURVE",
"100 691 OFFCURVE",
"110 668 OFFCURVE",
"110 634 CURVE SMOOTH",
"110 167 LINE SMOOTH",
"110 42 OFFCURVE",
"160 0 OFFCURVE",
"292 0 CURVE SMOOTH",
"442 0 LINE SMOOTH",
"526 0 OFFCURVE",
"565 50 OFFCURVE",
"565 103 CURVE SMOOTH",
"565 124 OFFCURVE",
"558 144 OFFCURVE",
"541 156 CURVE",
"517 130 OFFCURVE",
"484 116 OFFCURVE",
"433 116 CURVE SMOOTH",
"330 116 LINE SMOOTH",
"288 116 OFFCURVE",
"268 138 OFFCURVE",
"268 187 CURVE SMOOTH"
);
}
);
width = 589;
},
{
anchors = (
{
name = bottom;
position = "{318, 0}";
},
{
name = top;
position = "{126, 712}";
},
{
name = topright;
position = "{219, 700}";
}
);
layerId = "F2B2A884-D9B7-4604-B025-F8D4318BA1DA";
paths = (
{
closed = 1;
nodes = (
"164 663 LINE SMOOTH",
"164 700 OFFCURVE",
"148 720 OFFCURVE",
"120 720 CURVE SMOOTH",
"101 720 OFFCURVE",
"85 707 OFFCURVE",
"77 691 CURVE",
"91 686 OFFCURVE",
"100 679 OFFCURVE",
"100 660 CURVE SMOOTH",
"100 121 LINE SMOOTH",
"100 33 OFFCURVE",
"148 0 OFFCURVE",
"241 0 CURVE SMOOTH",
"416 0 LINE SMOOTH",
"494 0 OFFCURVE",
"522 24 OFFCURVE",
"522 57 CURVE SMOOTH",
"522 72 OFFCURVE",
"510 90 OFFCURVE",
"492 94 CURVE",
"476 65 OFFCURVE",
"454 52 OFFCURVE",
"418 52 CURVE SMOOTH",
"238 52 LINE SMOOTH",
"184 52 OFFCURVE",
"164 71 OFFCURVE",
"164 119 CURVE SMOOTH"
);
}
);
width = 573;
}
);
unicode = 004C;
},
{
glyphname = M;
layers = (
{
layerId = "6252BF4E-2FA9-4219-B920-178DA9EE1F12";
paths = (
{
closed = 1;
nodes = (
"863 630 LINE",
"860 665 OFFCURVE",
"864 697 OFFCURVE",
"880 724 CURVE",
"852 736 OFFCURVE",
"812 746 OFFCURVE",
"770 746 CURVE SMOOTH",
"664 746 OFFCURVE",
"608 716 OFFCURVE",
"568 570 CURVE SMOOTH",
"481 257 LINE",
"498 257 LINE",
"410 575 LINE SMOOTH",
"379 689 OFFCURVE",
"347 746 OFFCURVE",
"246 746 CURVE SMOOTH",
"181 746 OFFCURVE",
"119 727 OFFCURVE",
"82 707 CURVE",
"98 685 OFFCURVE",
"104 652 OFFCURVE",
"102 619 CURVE SMOOTH",
"62 108 LINE SMOOTH",
"60 74 OFFCURVE",
"50 47 OFFCURVE",
"30 28 CURVE",
"53 4 OFFCURVE",
"84 -11 OFFCURVE",
"121 -11 CURVE SMOOTH",
"175 -11 OFFCURVE",
"197 25 OFFCURVE",
"202 98 CURVE SMOOTH",
"236 696 LINE",
"204 684 LINE",
"412 47 LINE",
"420 20 OFFCURVE",
"428 1 OFFCURVE",
"469 0 CURVE SMOOTH",
"510 0 OFFCURVE",
"524 19 OFFCURVE",
"533 46 CURVE SMOOTH",
"736 690 LINE",
"703 688 LINE",
"736 95 LINE SMOOTH",
"740 13 OFFCURVE",
"780 -7 OFFCURVE",
"834 -7 CURVE SMOOTH",
"870 -7 OFFCURVE",
"889 -1 OFFCURVE",
"913 10 CURVE",
"902 30 OFFCURVE",
"894 80 OFFCURVE",
"893 112 CURVE"
);
}
);
width = 970;
},
{
layerId = "F2B2A884-D9B7-4604-B025-F8D4318BA1DA";
paths = (
{
closed = 1;
nodes = (
"806 661 LINE",
"805 680 OFFCURVE",
"810 696 OFFCURVE",
"821 704 CURVE",
"807 713 OFFCURVE",
"797 720 OFFCURVE",
"779 720 CURVE SMOOTH",
"753 720 OFFCURVE",
"726 701 OFFCURVE",
"708 661 CURVE SMOOTH",
"451 58 LINE",
"494 58 LINE",
"247 661 LINE SMOOTH",
"231 699 OFFCURVE",
"202 720 OFFCURVE",
"173 720 CURVE SMOOTH",
"155 720 OFFCURVE",
"148 713 OFFCURVE",
"136 704 CURVE",
"144 696 OFFCURVE",
"150 680 OFFCURVE",
"149 660 CURVE SMOOTH",
"104 54 LINE SMOOTH",
"102 33 OFFCURVE",
"100 16 OFFCURVE",
"89 8 CURVE",
"98 0 OFFCURVE",
"110 -8 OFFCURVE",
"125 -8 CURVE SMOOTH",
"154 -8 OFFCURVE",
"166 11 OFFCURVE",
"170 54 CURVE SMOOTH",
"213 654 LINE",
"190 651 LINE",
"441 33 LINE",
"446 18 OFFCURVE",
"457 12 OFFCURVE",
"472 12 CURVE SMOOTH",
"488 12 OFFCURVE",
"498 19 OFFCURVE",
"503 33 CURVE",
"764 650 LINE",
"740 655 LINE",
"784 51 LINE",
"790 11 OFFCURVE",
"800 -8 OFFCURVE",
"829 -8 CURVE SMOOTH",
"844 -8 OFFCURVE",
"856 -1 OFFCURVE",
"866 8 CURVE",
"855 17 OFFCURVE",
"853 34 OFFCURVE",
"852 54 CURVE SMOOTH"
);
}
);
width = 952;
}
);
unicode = 004D;
},
{
glyphname = N;
layers = (
{
anchors = (
{
name = bottom;
position = "{428, 0}";
},
{
name = top;
position = "{428, 736}";
}
);
layerId = "6252BF4E-2FA9-4219-B920-178DA9EE1F12";
paths = (
{
closed = 1;
nodes = (
"326 658 LINE SMOOTH",
"288 721 OFFCURVE",
"244 746 OFFCURVE",
"185 746 CURVE SMOOTH",
"128 746 OFFCURVE",
"98 728 OFFCURVE",
"77 703 CURVE",
"100 691 OFFCURVE",
"110 668 OFFCURVE",
"110 634 CURVE SMOOTH",
"110 108 LINE SMOOTH",
"110 28 OFFCURVE",
"140 -11 OFFCURVE",
"209 -11 CURVE SMOOTH",
"250 -11 OFFCURVE",
"278 7 OFFCURVE",
"300 32 CURVE",
"277 44 OFFCURVE",
"268 67 OFFCURVE",
"268 103 CURVE SMOOTH",
"268 514 LINE",
"488 145 LINE SMOOTH",
"557 32 OFFCURVE",
"612 -11 OFFCURVE",
"685 -11 CURVE SMOOTH",
"728 -11 OFFCURVE",
"761 1 OFFCURVE",
"779 18 CURVE",
"764 40 OFFCURVE",
"760 67 OFFCURVE",
"760 103 CURVE SMOOTH",
"760 628 LINE SMOOTH",
"760 708 OFFCURVE",
"728 746 OFFCURVE",
"660 746 CURVE SMOOTH",
"620 746 OFFCURVE",
"590 728 OFFCURVE",
"569 703 CURVE",
"592 691 OFFCURVE",
"602 668 OFFCURVE",
"602 634 CURVE SMOOTH",
"602 200 LINE"
);
}
);
width = 856;
},
{
anchors = (
{
name = bottom;
position = "{383, 0}";
},
{
name = top;
position = "{373, 712}";
}
);
layerId = "F2B2A884-D9B7-4604-B025-F8D4318BA1DA";
paths = (
{
closed = 1;
nodes = (
"211 658 LINE SMOOTH",
"185 698 OFFCURVE",
"165 720 OFFCURVE",
"126 720 CURVE SMOOTH",
"108 720 OFFCURVE",
"94 707 OFFCURVE",
"85 691 CURVE",
"100 686 OFFCURVE",
"108 679 OFFCURVE",
"108 660 CURVE SMOOTH",
"108 49 LINE SMOOTH",
"108 12 OFFCURVE",
"124 -8 OFFCURVE",
"152 -8 CURVE SMOOTH",
"171 -8 OFFCURVE",
"186 5 OFFCURVE",
"194 21 CURVE",
"179 26 OFFCURVE",
"171 33 OFFCURVE",
"171 51 CURVE SMOOTH",
"171 611 LINE",
"534 56 LINE SMOOTH",
"563 14 OFFCURVE",
"587 -8 OFFCURVE",
"616 -8 CURVE SMOOTH",
"638 -8 OFFCURVE",
"651 5 OFFCURVE",
"660 22 CURVE",
"644 27 OFFCURVE",
"636 33 OFFCURVE",
"636 51 CURVE SMOOTH",
"636 663 LINE SMOOTH",
"636 700 OFFCURVE",
"620 720 OFFCURVE",
"592 720 CURVE SMOOTH",
"573 720 OFFCURVE",
"557 707 OFFCURVE",
"549 691 CURVE",
"563 686 OFFCURVE",
"572 679 OFFCURVE",
"572 660 CURVE SMOOTH",
"572 94 LINE"
);
}
);
width = 745;
}
);
unicode = 004E;
},
{
glyphname = O;
layers = (
{
anchors = (
{
name = top;
position = "{397, 736}";
}
);
layerId = "6252BF4E-2FA9-4219-B920-178DA9EE1F12";
paths = (
{
closed = 1;
nodes = (
"728 578 OFFCURVE",
"638 746 OFFCURVE",
"397 746 CURVE SMOOTH",
"164 746 OFFCURVE",
"66 578 OFFCURVE",
"66 368 CURVE SMOOTH",
"66 158 OFFCURVE",
"164 -11 OFFCURVE",
"397 -11 CURVE SMOOTH",
"637 -11 OFFCURVE",
"728 158 OFFCURVE",
"728 368 CURVE SMOOTH"
);
},
{
closed = 1;
nodes = (
"290 88 OFFCURVE",
"238 215 OFFCURVE",
"229 368 CURVE SMOOTH",
"220 522 OFFCURVE",
"256 648 OFFCURVE",
"379 648 CURVE SMOOTH",
"505 648 OFFCURVE",
"557 522 OFFCURVE",
"565 368 CURVE SMOOTH",
"575 215 OFFCURVE",
"539 88 OFFCURVE",
"414 88 CURVE SMOOTH"
);
}
);
width = 794;
},
{
anchors = (
{
name = top;
position = "{382, 712}";
}
);
layerId = "F2B2A884-D9B7-4604-B025-F8D4318BA1DA";
paths = (
{
closed = 1;
nodes = (
"687 587 OFFCURVE",
"557 720 OFFCURVE",
"382 720 CURVE SMOOTH",
"204 720 OFFCURVE",
"74 582 OFFCURVE",
"74 357 CURVE SMOOTH",
"74 128 OFFCURVE",
"204 -8 OFFCURVE",
"382 -8 CURVE SMOOTH",
"557 -8 OFFCURVE",
"687 132 OFFCURVE",
"687 357 CURVE SMOOTH"
);
},
{
closed = 1;
nodes = (
"275 47 OFFCURVE",
"158 133 OFFCURVE",
"140 335 CURVE SMOOTH",
"122 539 OFFCURVE",
"229 666 OFFCURVE",
"358 666 CURVE SMOOTH",
"488 666 OFFCURVE",
"607 578 OFFCURVE",
"622 375 CURVE SMOOTH",
"639 173 OFFCURVE",
"533 47 OFFCURVE",
"403 47 CURVE SMOOTH"
);
}
);
width = 761;
}
);
unicode = 004F;
},
{
glyphname = P;
layers = (
{
layerId = "6252BF4E-2FA9-4219-B920-178DA9EE1F12";
paths = (
{
closed = 1;
nodes = (
"618 665 OFFCURVE",
"472 737 OFFCURVE",
"323 736 CURVE",
"136 736 LINE SMOOTH",
"96 736 OFFCURVE",
"66 718 OFFCURVE",
"44 692 CURVE",
"67 680 OFFCURVE",
"78 658 OFFCURVE",
"78 623 CURVE SMOOTH",
"78 108 LINE SMOOTH",
"78 28 OFFCURVE",
"108 -11 OFFCURVE",
"176 -11 CURVE SMOOTH",
"217 -11 OFFCURVE",
"246 7 OFFCURVE",
"268 32 CURVE",
"245 44 OFFCURVE",
"235 67 OFFCURVE",
"235 103 CURVE SMOOTH",
"235 262 LINE",
"323 262 LINE SMOOTH",
"472 262 OFFCURVE",
"618 334 OFFCURVE",
"618 499 CURVE SMOOTH"
);
},
{
closed = 1;
nodes = (
"236 643 LINE",
"293 643 LINE SMOOTH",
"386 643 OFFCURVE",
"437 587 OFFCURVE",
"437 499 CURVE SMOOTH",
"437 412 OFFCURVE",
"386 354 OFFCURVE",
"293 354 CURVE SMOOTH",
"236 354 LINE"
);
}
);
width = 630;
},
{
layerId = "F2B2A884-D9B7-4604-B025-F8D4318BA1DA";
paths = (
{
closed = 1;
nodes = (
"567 622 OFFCURVE",
"473 712 OFFCURVE",
"319 712 CURVE SMOOTH",
"165 712 LINE SMOOTH",
"122 712 OFFCURVE",
"103 702 OFFCURVE",
"88 678 CURVE",
"103 672 OFFCURVE",
"111 666 OFFCURVE",
"111 646 CURVE SMOOTH",
"111 49 LINE SMOOTH",
"111 12 OFFCURVE",
"127 -8 OFFCURVE",
"155 -8 CURVE SMOOTH",
"174 -8 OFFCURVE",
"189 5 OFFCURVE",
"198 21 CURVE",
"182 26 OFFCURVE",
"175 33 OFFCURVE",
"175 51 CURVE SMOOTH",
"175 275 LINE",
"319 275 LINE SMOOTH",
"473 275 OFFCURVE",
"567 365 OFFCURVE",
"567 494 CURVE SMOOTH"
);
},
{
closed = 1;
nodes = (
"174 656 LINE",
"322 656 LINE SMOOTH",
"443 656 OFFCURVE",
"499 584 OFFCURVE",
"499 492 CURVE SMOOTH",
"499 401 OFFCURVE",
"443 330 OFFCURVE",
"322 330 CURVE SMOOTH",
"174 330 LINE"
);
}
);
width = 619;
}
);
unicode = 0050;
},
{
glyphname = Q;
layers = (
{
layerId = "6252BF4E-2FA9-4219-B920-178DA9EE1F12";
paths = (
{
closed = 1;
nodes = (
"756 625 OFFCURVE",
"618 746 OFFCURVE",
"434 746 CURVE SMOOTH",
"214 746 OFFCURVE",
"70 578 OFFCURVE",
"70 353 CURVE SMOOTH",
"70 179 OFFCURVE",
"174 106 OFFCURVE",
"275 106 CURVE SMOOTH",
"349 106 OFFCURVE",
"387 153 OFFCURVE",
"387 201 CURVE SMOOTH",
"387 209 OFFCURVE",
"386 217 OFFCURVE",
"384 225 CURVE",
"379 225 OFFCURVE",
"374 224 OFFCURVE",
"369 224 CURVE SMOOTH",
"286 224 OFFCURVE",
"227 287 OFFCURVE",
"227 412 CURVE SMOOTH",
"227 552 OFFCURVE",
"288 643 OFFCURVE",
"398 643 CURVE SMOOTH",
"509 643 OFFCURVE",
"593 529 OFFCURVE",
"593 391 CURVE SMOOTH",
"593 246 OFFCURVE",
"520 130 OFFCURVE",
"368 59 CURVE SMOOTH",
"314 34 OFFCURVE",
"304 22 OFFCURVE",
"304 2 CURVE SMOOTH",
"304 -71 OFFCURVE",
"444 -208 OFFCURVE",
"614 -208 CURVE SMOOTH",
"769 -208 OFFCURVE",
"800 -76 OFFCURVE",
"742 -17 CURVE",
"709 -40 OFFCURVE",
"670 -50 OFFCURVE",
"629 -50 CURVE SMOOTH",
"548 -50 OFFCURVE",
"481 -36 OFFCURVE",
"426 -2 CURVE",
"648 60 OFFCURVE",
"756 230 OFFCURVE",
"756 415 CURVE SMOOTH"
);
}
);
width = 844;
},
{
layerId = "F2B2A884-D9B7-4604-B025-F8D4318BA1DA";
paths = (
{
closed = 1;
nodes = (
"696 589 OFFCURVE",
"567 720 OFFCURVE",
"391 720 CURVE SMOOTH",
"227 720 OFFCURVE",
"90 574 OFFCURVE",
"90 374 CURVE SMOOTH",
"90 230 OFFCURVE",
"181 114 OFFCURVE",
"281 114 CURVE SMOOTH",
"318 114 OFFCURVE",
"335 135 OFFCURVE",
"335 162 CURVE SMOOTH",
"335 165 OFFCURVE",
"335 167 OFFCURVE",
"335 169 CURVE",
"329 168 OFFCURVE",
"324 168 OFFCURVE",
"318 168 CURVE SMOOTH",
"227 168 OFFCURVE",
"162 260 OFFCURVE",
"162 401 CURVE SMOOTH",
"162 560 OFFCURVE",
"255 669 OFFCURVE",
"377 669 CURVE SMOOTH",
"519 669 OFFCURVE",
"622 572 OFFCURVE",
"622 395 CURVE SMOOTH",
"622 175 OFFCURVE",
"498 67 OFFCURVE",
"360 34 CURVE SMOOTH",
"296 18 OFFCURVE",
"282 7 OFFCURVE",
"282 -9 CURVE SMOOTH",
"282 -80 OFFCURVE",
"450 -222 OFFCURVE",
"584 -222 CURVE SMOOTH",
"700 -222 OFFCURVE",
"726 -146 OFFCURVE",
"702 -113 CURVE",
"673 -141 OFFCURVE",
"634 -156 OFFCURVE",
"589 -156 CURVE SMOOTH",
"517 -156 OFFCURVE",
"405 -109 OFFCURVE",
"336 -25 CURVE",
"522 15 OFFCURVE",
"696 138 OFFCURVE",
"696 401 CURVE SMOOTH"
);
}
);
width = 756;
}
);
unicode = 0051;
},
{
glyphname = R;
layers = (
{
anchors = (
{
name = bottom;
position = "{346, 0}";
},
{
name = top;
position = "{328, 736}";
}
);
layerId = "6252BF4E-2FA9-4219-B920-178DA9EE1F12";
paths = (
{
closed = 1;
nodes = (
"395 319 LINE",
"281 297 LINE",
"371 132 LINE SMOOTH",
"425 32 OFFCURVE",
"465 -11 OFFCURVE",
"532 -11 CURVE SMOOTH",
"596 -11 OFFCURVE",
"635 34 OFFCURVE",
"635 106 CURVE",
"590 106 OFFCURVE",
"556 136 OFFCURVE",
"494 207 CURVE SMOOTH"
);
},
{
closed = 1;
nodes = (
"598 660 OFFCURVE",
"451 736 OFFCURVE",
"302 736 CURVE SMOOTH",
"136 736 LINE SMOOTH",
"96 736 OFFCURVE",
"66 718 OFFCURVE",
"44 692 CURVE",
"67 680 OFFCURVE",
"78 658 OFFCURVE",
"78 623 CURVE SMOOTH",
"78 108 LINE SMOOTH",
"78 28 OFFCURVE",
"108 -11 OFFCURVE",
"176 -11 CURVE SMOOTH",
"217 -11 OFFCURVE",
"246 7 OFFCURVE",
"268 32 CURVE",
"245 44 OFFCURVE",
"235 67 OFFCURVE",
"235 103 CURVE SMOOTH",
"235 277 LINE",
"302 277 LINE SMOOTH",
"451 277 OFFCURVE",
"598 353 OFFCURVE",
"598 506 CURVE SMOOTH"
);
},
{
closed = 1;
nodes = (
"236 624 LINE",
"293 624 LINE SMOOTH",
"386 624 OFFCURVE",
"437 582 OFFCURVE",
"437 506 CURVE SMOOTH",
"437 431 OFFCURVE",
"386 389 OFFCURVE",
"293 389 CURVE SMOOTH",
"236 389 LINE"
);
}
);
width = 676;
},
{
anchors = (
{
name = bottom;
position = "{325, 0}";
},
{
name = top;
position = "{309, 700}";
}
);
layerId = "F2B2A884-D9B7-4604-B025-F8D4318BA1DA";
paths = (
{
closed = 1;
nodes = (
"329 332 LINE",
"250 333 LINE",
"452 55 LINE SMOOTH",
"486 10 OFFCURVE",
"500 -7 OFFCURVE",
"533 -7 CURVE SMOOTH",
"555 -7 OFFCURVE",
"574 10 OFFCURVE",
"584 37 CURVE",
"560 36 OFFCURVE",
"547 45 OFFCURVE",
"531 66 CURVE SMOOTH"
);
},
{
closed = 1;
nodes = (
"569 636 OFFCURVE",
"475 712 OFFCURVE",
"321 712 CURVE SMOOTH",
"165 712 LINE SMOOTH",
"122 712 OFFCURVE",
"103 702 OFFCURVE",
"88 678 CURVE",
"103 672 OFFCURVE",
"111 666 OFFCURVE",
"111 646 CURVE SMOOTH",
"111 49 LINE SMOOTH",
"111 12 OFFCURVE",
"127 -8 OFFCURVE",
"155 -8 CURVE SMOOTH",
"174 -8 OFFCURVE",
"189 5 OFFCURVE",
"198 21 CURVE",
"182 26 OFFCURVE",
"175 33 OFFCURVE",
"175 51 CURVE SMOOTH",
"175 300 LINE",
"321 300 LINE SMOOTH",
"475 300 OFFCURVE",
"569 376 OFFCURVE",
"569 506 CURVE SMOOTH"
);
},
{
closed = 1;
nodes = (
"174 658 LINE",
"322 658 LINE SMOOTH",
"443 658 OFFCURVE",
"499 597 OFFCURVE",
"499 505 CURVE SMOOTH",
"499 412 OFFCURVE",
"443 353 OFFCURVE",
"322 353 CURVE SMOOTH",
"174 353 LINE"
);
}
);
width = 618;
}
);
unicode = 0052;
},
{
glyphname = T;
layers = (
{
anchors = (
{
name = bottom;
position = "{340, 0}";
},
{
name = top;
position = "{325, 700}";
}
);
layerId = "6252BF4E-2FA9-4219-B920-178DA9EE1F12";
paths = (
{
closed = 1;
nodes = (
"403 676 LINE",
"246 676 LINE",
"246 108 LINE SMOOTH",
"246 28 OFFCURVE",
"276 -11 OFFCURVE",
"344 -11 CURVE SMOOTH",
"385 -11 OFFCURVE",
"414 7 OFFCURVE",
"436 32 CURVE",
"413 44 OFFCURVE",
"403 67 OFFCURVE",
"403 103 CURVE SMOOTH"
);
},
{
closed = 1;
nodes = (
"167 736 LINE SMOOTH",
"115 736 OFFCURVE",
"83 739 OFFCURVE",
"49 754 CURVE",
"36 738 OFFCURVE",
"24 715 OFFCURVE",
"24 696 CURVE SMOOTH",
"24 653 OFFCURVE",
"44 619 OFFCURVE",
"120 619 CURVE SMOOTH",
"482 619 LINE SMOOTH",
"534 619 OFFCURVE",
"566 616 OFFCURVE",
"600 601 CURVE",
"613 617 OFFCURVE",
"625 640 OFFCURVE",
"625 659 CURVE SMOOTH",
"625 702 OFFCURVE",
"605 736 OFFCURVE",
"529 736 CURVE SMOOTH"
);
}
);
width = 649;
},
{
anchors = (
{
name = bottom;
position = "{269, 0}";
},
{
name = top;
position = "{262, 700}";
}
);
layerId = "F2B2A884-D9B7-4604-B025-F8D4318BA1DA";
paths = (
{
closed = 1;
nodes = (
"292 683 LINE",
"228 683 LINE",
"228 49 LINE SMOOTH",
"228 12 OFFCURVE",
"244 -8 OFFCURVE",
"274 -8 CURVE SMOOTH",
"292 -8 OFFCURVE",
"307 5 OFFCURVE",
"315 21 CURVE",
"301 26 OFFCURVE",
"292 33 OFFCURVE",
"292 51 CURVE SMOOTH"
);
},
{
closed = 1;
nodes = (
"77 712 LINE SMOOTH",
"55 712 OFFCURVE",
"39 716 OFFCURVE",
"24 724 CURVE",
"17 718 OFFCURVE",
"11 705 OFFCURVE",
"11 694 CURVE SMOOTH",
"11 674 OFFCURVE",
"21 658 OFFCURVE",
"55 658 CURVE SMOOTH",
"446 658 LINE SMOOTH",
"469 658 OFFCURVE",
"490 651 OFFCURVE",
"499 645 CURVE",
"505 651 OFFCURVE",
"512 664 OFFCURVE",
"512 676 CURVE SMOOTH",
"512 695 OFFCURVE",
"503 712 OFFCURVE",
"467 712 CURVE"
);
}
);
width = 523;
}
);
unicode = 0054;
},
{
glyphname = U;
layers = (
{
anchors = (
{
name = ogonek;
position = "{456, 3}";
},
{
name = top;
position = "{391, 736}";
}
);
layerId = "6252BF4E-2FA9-4219-B920-178DA9EE1F12";
paths = (
{
closed = 1;
nodes = (
"251 628 LINE SMOOTH",
"251 708 OFFCURVE",
"220 746 OFFCURVE",
"151 746 CURVE SMOOTH",
"112 746 OFFCURVE",
"82 728 OFFCURVE",
"60 703 CURVE",
"83 691 OFFCURVE",
"94 668 OFFCURVE",
"94 634 CURVE SMOOTH",
"94 263 LINE SMOOTH",
"94 97 OFFCURVE",
"185 -11 OFFCURVE",
"395 -11 CURVE SMOOTH",
"605 -11 OFFCURVE",
"697 97 OFFCURVE",
"697 263 CURVE SMOOTH",
"697 628 LINE SMOOTH",
"697 708 OFFCURVE",
"666 746 OFFCURVE",
"598 746 CURVE SMOOTH",
"558 746 OFFCURVE",
"528 728 OFFCURVE",
"506 703 CURVE",
"529 691 OFFCURVE",
"540 668 OFFCURVE",
"540 634 CURVE SMOOTH",
"540 240 LINE SMOOTH",
"540 149 OFFCURVE",
"478 106 OFFCURVE",
"395 106 CURVE SMOOTH",
"314 106 OFFCURVE",
"251 149 OFFCURVE",
"251 240 CURVE SMOOTH"
);
}
);
width = 757;
},
{
anchors = (
{
name = ogonek;
position = "{428, 13}";
},
{
name = top;
position = "{366, 712}";
}
);
layerId = "F2B2A884-D9B7-4604-B025-F8D4318BA1DA";
paths = (
{
closed = 1;
nodes = (
"166 663 LINE SMOOTH",
"166 700 OFFCURVE",
"151 720 OFFCURVE",
"122 720 CURVE SMOOTH",
"103 720 OFFCURVE",
"89 707 OFFCURVE",
"80 691 CURVE",
"95 686 OFFCURVE",
"103 679 OFFCURVE",
"103 660 CURVE SMOOTH",
"103 256 LINE SMOOTH",
"103 101 OFFCURVE",
"180 -7 OFFCURVE",
"357 -7 CURVE SMOOTH",
"538 -7 OFFCURVE",
"610 101 OFFCURVE",
"610 256 CURVE SMOOTH",
"610 663 LINE SMOOTH",
"610 700 OFFCURVE",
"595 720 OFFCURVE",
"566 720 CURVE SMOOTH",
"547 720 OFFCURVE",
"532 707 OFFCURVE",
"524 691 CURVE",
"539 686 OFFCURVE",
"547 679 OFFCURVE",
"547 660 CURVE SMOOTH",
"547 249 LINE SMOOTH",
"547 117 OFFCURVE",
"491 51 OFFCURVE",
"357 51 CURVE SMOOTH",
"217 51 OFFCURVE",
"166 123 OFFCURVE",
"166 249 CURVE SMOOTH"
);
}
);
width = 690;
}
);
unicode = 0055;
},
{
glyphname = V;
layers = (
{
layerId = "6252BF4E-2FA9-4219-B920-178DA9EE1F12";
paths = (
{
closed = 1;
nodes = (
"521 390 OFFCURVE",
"452 193 OFFCURVE",
"341 82 CURVE",
"375 67 LINE",
"216 626 LINE SMOOTH",
"189 721 OFFCURVE",
"146 746 OFFCURVE",
"90 746 CURVE SMOOTH",
"50 746 OFFCURVE",
"18 733 OFFCURVE",
"-10 704 CURVE",
"16 688 OFFCURVE",
"24 659 OFFCURVE",
"38 616 CURVE SMOOTH",
"202 120 LINE SMOOTH",
"234 25 OFFCURVE",
"267 -11 OFFCURVE",
"337 -11 CURVE SMOOTH",
"487 -11 OFFCURVE",
"706 359 OFFCURVE",
"706 581 CURVE SMOOTH",
"706 686 OFFCURVE",
"657 747 OFFCURVE",
"584 747 CURVE SMOOTH",
"551 747 OFFCURVE",
"509 731 OFFCURVE",
"486 712 CURVE",
"513 659 OFFCURVE",
"521 613 OFFCURVE",
"521 533 CURVE SMOOTH"
);
}
);
width = 741;
},
{
layerId = "F2B2A884-D9B7-4604-B025-F8D4318BA1DA";
paths = (
{
closed = 1;
nodes = (
"573 396 OFFCURVE",
"453 157 OFFCURVE",
"298 24 CURVE",
"323 14 LINE",
"118 659 LINE SMOOTH",
"103 706 OFFCURVE",
"90 720 OFFCURVE",
"68 720 CURVE SMOOTH",
"48 720 OFFCURVE",
"28 707 OFFCURVE",
"20 683 CURVE",
"38 677 OFFCURVE",
"48 666 OFFCURVE",
"57 639 CURVE SMOOTH",
"257 33 LINE SMOOTH",
"268 1 OFFCURVE",
"281 -8 OFFCURVE",
"307 -8 CURVE",
"384 -8 OFFCURVE",
"643 315 OFFCURVE",
"643 582 CURVE SMOOTH",
"643 671 OFFCURVE",
"624 720 OFFCURVE",
"580 720 CURVE SMOOTH",
"564 720 OFFCURVE",
"546 712 OFFCURVE",
"534 701 CURVE",
"566 664 OFFCURVE",
"573 628 OFFCURVE",
"573 572 CURVE SMOOTH"
);
}
);
width = 683;
}
);
unicode = 0056;
},
{
glyphname = W;
layers = (
{
layerId = "6252BF4E-2FA9-4219-B920-178DA9EE1F12";
paths = (
{
closed = 1;
nodes = (
"246 626 LINE SMOOTH",
"227 720 OFFCURVE",
"176 746 OFFCURVE",
"120 746 CURVE SMOOTH",
"80 746 OFFCURVE",
"48 733 OFFCURVE",
"20 704 CURVE",
"46 688 OFFCURVE",
"57 659 OFFCURVE",
"68 616 CURVE SMOOTH",
"194 120 LINE SMOOTH",
"219 21 OFFCURVE",
"252 -11 OFFCURVE",
"322 -11 CURVE SMOOTH",
"430 -11 OFFCURVE",
"543 248 OFFCURVE",
"581 515 CURVE",
"482 641 LINE",
"443 386 OFFCURVE",
"406 213 OFFCURVE",
"298 67 CURVE",
"359 67 LINE"
);
},
{
closed = 1;
nodes = (
"602 650 LINE SMOOTH",
"585 720 OFFCURVE",
"550 746 OFFCURVE",
"494 746 CURVE SMOOTH",
"454 746 OFFCURVE",
"425 733 OFFCURVE",
"397 704 CURVE",
"423 688 OFFCURVE",
"433 659 OFFCURVE",
"445 616 CURVE SMOOTH",
"578 120 LINE SMOOTH",
"603 26 OFFCURVE",
"641 -11 OFFCURVE",
"688 -11 CURVE SMOOTH",
"814 -11 OFFCURVE",
"1013 373 OFFCURVE",
"1013 569 CURVE SMOOTH",
"1013 694 OFFCURVE",
"944 746 OFFCURVE",
"871 746 CURVE SMOOTH",
"840 746 OFFCURVE",
"790 727 OFFCURVE",
"771 713 CURVE",
"816 675 OFFCURVE",
"838 613 OFFCURVE",
"838 533 CURVE SMOOTH",
"838 416 OFFCURVE",
"791 259 OFFCURVE",
"699 82 CURVE",
"738 82 LINE"
);
}
);
width = 1033;
},
{
layerId = "F2B2A884-D9B7-4604-B025-F8D4318BA1DA";
paths = (
{
closed = 1;
nodes = (
"118 659 LINE SMOOTH",
"104 706 OFFCURVE",
"90 720 OFFCURVE",
"68 720 CURVE SMOOTH",
"48 720 OFFCURVE",
"28 707 OFFCURVE",
"20 683 CURVE",
"38 677 OFFCURVE",
"49 666 OFFCURVE",
"57 639 CURVE SMOOTH",
"237 34 LINE SMOOTH",
"247 2 OFFCURVE",
"261 -7 OFFCURVE",
"287 -7 CURVE SMOOTH",
"353 -7 OFFCURVE",
"492 358 OFFCURVE",
"513 530 CURVE",
"475 577 LINE",
"434 368 OFFCURVE",
"362 146 OFFCURVE",
"278 25 CURVE",
"303 15 LINE"
);
},
{
closed = 1;
nodes = (
"485 660 LINE SMOOTH",
"472 707 OFFCURVE",
"458 720 OFFCURVE",
"436 720 CURVE SMOOTH",
"416 720 OFFCURVE",
"396 707 OFFCURVE",
"388 683 CURVE",
"406 677 OFFCURVE",
"417 666 OFFCURVE",
"425 639 CURVE SMOOTH",
"597 34 LINE SMOOTH",
"606 3 OFFCURVE",
"619 -7 OFFCURVE",
"645 -7 CURVE SMOOTH",
"737 -7 OFFCURVE",
"893 337 OFFCURVE",
"893 562 CURVE SMOOTH",
"893 651 OFFCURVE",
"874 720 OFFCURVE",
"830 720 CURVE SMOOTH",
"815 720 OFFCURVE",
"798 713 OFFCURVE",
"787 701 CURVE",
"804 692 OFFCURVE",
"826 618 OFFCURVE",
"826 532 CURVE SMOOTH",
"826 395 OFFCURVE",
"763 129 OFFCURVE",
"638 29 CURVE",
"663 14 LINE"
);
}
);
width = 953;
}
);
unicode = 0057;
},
{
glyphname = X;
layers = (
{
layerId = "6252BF4E-2FA9-4219-B920-178DA9EE1F12";
paths = (
{
closed = 1;
nodes = (
"290 415 LINE",
"80 126 LINE SMOOTH",
"59 97 OFFCURVE",
"41 88 OFFCURVE",
"10 88 CURVE",
"10 23 OFFCURVE",
"50 -11 OFFCURVE",
"98 -11 CURVE SMOOTH",
"166 -11 OFFCURVE",
"202 35 OFFCURVE",
"266 157 CURVE SMOOTH",
"357 328 LINE"
);
},
{
closed = 1;
nodes = (
"236 668 LINE SMOOTH",
"198 728 OFFCURVE",
"164 746 OFFCURVE",
"118 746 CURVE SMOOTH",
"61 746 OFFCURVE",
"24 710 OFFCURVE",
"10 653 CURVE",
"40 653 OFFCURVE",
"72 640 OFFCURVE",
"108 583 CURVE SMOOTH",
"438 67 LINE SMOOTH",
"478 5 OFFCURVE",
"510 -11 OFFCURVE",
"557 -11 CURVE SMOOTH",
"613 -11 OFFCURVE",
"650 25 OFFCURVE",
"665 83 CURVE",
"635 83 OFFCURVE",
"602 96 OFFCURVE",
"566 152 CURVE SMOOTH"
);
},
{
closed = 1;
nodes = (
"666 711 OFFCURVE",
"626 747 OFFCURVE",
"578 747 CURVE SMOOTH",
"510 747 OFFCURVE",
"474 699 OFFCURVE",
"410 577 CURVE SMOOTH",
"319 406 LINE",
"386 319 LINE",
"596 608 LINE SMOOTH",
"617 637 OFFCURVE",
"635 646 OFFCURVE",
"666 646 CURVE"
);
}
);
width = 674;
},
{
layerId = "F2B2A884-D9B7-4604-B025-F8D4318BA1DA";
paths = (
{
closed = 1;
nodes = (
"283 362 LINE",
"74 67 LINE SMOOTH",
"59 45 OFFCURVE",
"45 37 OFFCURVE",
"26 37 CURVE",
"21 7 OFFCURVE",
"47 -8 OFFCURVE",
"65 -8 CURVE SMOOTH",
"86 -8 OFFCURVE",
"107 4 OFFCURVE",
"146 65 CURVE SMOOTH",
"310 323 LINE"
);
},
{
closed = 1;
nodes = (
"137 677 LINE SMOOTH",
"118 706 OFFCURVE",
"102 720 OFFCURVE",
"76 720 CURVE SMOOTH",
"54 720 OFFCURVE",
"32 703 OFFCURVE",
"25 681 CURVE",
"47 679 OFFCURVE",
"63 671 OFFCURVE",
"77 649 CURVE SMOOTH",
"484 35 LINE SMOOTH",
"504 6 OFFCURVE",
"519 -8 OFFCURVE",
"545 -8 CURVE SMOOTH",
"567 -8 OFFCURVE",
"586 10 OFFCURVE",
"592 27 CURVE",
"572 31 OFFCURVE",
"559 41 OFFCURVE",
"544 63 CURVE SMOOTH"
);
},
{
closed = 1;
nodes = (
"596 704 OFFCURVE",
"570 719 OFFCURVE",
"552 719 CURVE SMOOTH",
"531 719 OFFCURVE",
"510 707 OFFCURVE",
"471 646 CURVE SMOOTH",
"309 392 LINE",
"338 355 LINE",
"543 644 LINE SMOOTH",
"558 666 OFFCURVE",
"572 674 OFFCURVE",
"591 674 CURVE"
);
}
);
width = 618;
}
);
unicode = 0058;
},
{
glyphname = Y;
layers = (
{
anchors = (
{
name = top;
position = "{328, 736}";
}
);
layerId = "6252BF4E-2FA9-4219-B920-178DA9EE1F12";
paths = (
{
closed = 1;
nodes = (
"229 649 LINE SMOOTH",
"196 704 OFFCURVE",
"162 746 OFFCURVE",
"107 746 CURVE SMOOTH",
"61 746 OFFCURVE",
"25 724 OFFCURVE",
"6 666 CURVE",
"32 664 OFFCURVE",
"50 652 OFFCURVE",
"68 623 CURVE SMOOTH",
"253 319 LINE",
"252 112 LINE SMOOTH",
"252 32 OFFCURVE",
"288 -7 OFFCURVE",
"343 -7 CURVE SMOOTH",
"379 -7 OFFCURVE",
"401 -1 OFFCURVE",
"425 10 CURVE",
"414 30 OFFCURVE",
"408 66 OFFCURVE",
"408 95 CURVE SMOOTH",
"409 320 LINE",
"610 576 LINE SMOOTH",
"635 607 OFFCURVE",
"647 640 OFFCURVE",
"647 667 CURVE SMOOTH",
"647 713 OFFCURVE",
"607 746 OFFCURVE",
"545 746 CURVE SMOOTH",
"512 746 OFFCURVE",
"486 736 OFFCURVE",
"458 722 CURVE",
"487 692 OFFCURVE",
"491 650 OFFCURVE",
"456 605 CURVE SMOOTH",
"301 404 LINE",
"380 402 LINE"
);
}
);
width = 655;
},
{
anchors = (
{
name = top;
position = "{310, 712}";
}
);
layerId = "F2B2A884-D9B7-4604-B025-F8D4318BA1DA";
paths = (
{
closed = 1;
nodes = (
"129 680 LINE SMOOTH",
"114 707 OFFCURVE",
"94 720 OFFCURVE",
"69 720 CURVE SMOOTH",
"48 720 OFFCURVE",
"25 705 OFFCURVE",
"18 679 CURVE",
"43 678 OFFCURVE",
"63 663 OFFCURVE",
"77 642 CURVE",
"259 317 LINE",
"258 54 LINE SMOOTH",
"258 11 OFFCURVE",
"275 -8 OFFCURVE",
"302 -8 CURVE SMOOTH",
"319 -8 OFFCURVE",
"331 -1 OFFCURVE",
"340 8 CURVE",
"329 17 OFFCURVE",
"322 32 OFFCURVE",
"322 51 CURVE SMOOTH",
"323 320 LINE",
"540 650 LINE",
"546 663 OFFCURVE",
"551 675 OFFCURVE",
"551 686 CURVE SMOOTH",
"551 706 OFFCURVE",
"540 720 OFFCURVE",
"518 720 CURVE SMOOTH",
"499 720 OFFCURVE",
"485 717 OFFCURVE",
"475 711 CURVE",
"487 699 OFFCURVE",
"486 681 OFFCURVE",
"470 657 CURVE",
"279 349 LINE",
"310 349 LINE"
);
}
);
width = 580;
}
);
unicode = 0059;
},
{
glyphname = Z;
layers = (
{
anchors = (
{
name = top;
position = "{338, 736}";
}
);
layerId = "6252BF4E-2FA9-4219-B920-178DA9EE1F12";
paths = (
{
closed = 1;
nodes = (
"199 736 LINE SMOOTH",
"149 736 OFFCURVE",
"104 739 OFFCURVE",
"66 750 CURVE",
"52 732 OFFCURVE",
"42 708 OFFCURVE",
"42 682 CURVE SMOOTH",
"42 626 OFFCURVE",
"82 582 OFFCURVE",
"204 582 CURVE SMOOTH",
"270 582 OFFCURVE",
"391 590 OFFCURVE",
"505 613 CURVE",
"521 644 LINE",
"102 266 LINE SMOOTH",
"53 222 OFFCURVE",
"30 185 OFFCURVE",
"30 132 CURVE SMOOTH",
"30 50 OFFCURVE",
"102 0 OFFCURVE",
"192 0 CURVE SMOOTH",
"476 0 LINE SMOOTH",
"599 0 OFFCURVE",
"638 44 OFFCURVE",
"638 100 CURVE SMOOTH",
"638 126 OFFCURVE",
"628 156 OFFCURVE",
"613 174 CURVE",
"578 156 OFFCURVE",
"541 148 OFFCURVE",
"490 144 CURVE SMOOTH",
"160 122 LINE",
"150 96 LINE",
"563 469 LINE",
"611 515 OFFCURVE",
"635 551 OFFCURVE",
"635 604 CURVE SMOOTH",
"635 685 OFFCURVE",
"563 736 OFFCURVE",
"473 736 CURVE SMOOTH"
);
}
);
width = 677;
},
{
anchors = (
{
name = top;
position = "{296, 712}";
}
);
layerId = "F2B2A884-D9B7-4604-B025-F8D4318BA1DA";
paths = (
{
closed = 1;
nodes = (
"183 712 LINE SMOOTH",
"137 712 OFFCURVE",
"107 717 OFFCURVE",
"85 726 CURVE",
"76 720 OFFCURVE",
"70 710 OFFCURVE",
"70 700 CURVE SMOOTH",
"70 683 OFFCURVE",
"83 654 OFFCURVE",
"189 654 CURVE SMOOTH",
"274 654 OFFCURVE",
"386 660 OFFCURVE",
"495 669 CURVE",
"484 684 LINE",
"82 92 LINE SMOOTH",
"66 68 OFFCURVE",
"56 53 OFFCURVE",
"56 42 CURVE SMOOTH",
"56 20 OFFCURVE",
"71 0 OFFCURVE",
"104 0 CURVE SMOOTH",
"419 0 LINE SMOOTH",
"523 0 OFFCURVE",
"537 30 OFFCURVE",
"537 47 CURVE SMOOTH",
"537 58 OFFCURVE",
"531 70 OFFCURVE",
"521 79 CURVE",
"501 65 OFFCURVE",
"468 57 OFFCURVE",
"424 56 CURVE SMOOTH",
"68 43 LINE",
"104 18 LINE",
"511 618 LINE SMOOTH",
"527 642 OFFCURVE",
"537 659 OFFCURVE",
"537 670 CURVE SMOOTH",
"537 692 OFFCURVE",
"522 712 OFFCURVE",
"490 712 CURVE"
);
}
);
width = 592;
}
);
unicode = 005A;
},
{
glyphname = bracketleft;
layers = (
{
layerId = "6252BF4E-2FA9-4219-B920-178DA9EE1F12";
paths = (
{
closed = 1;
nodes = (
"197 -76 LINE",
"197 947 LINE",
"404 947 LINE",
"407 953 OFFCURVE",
"410 965 OFFCURVE",
"410 974 CURVE SMOOTH",
"410 1051 OFFCURVE",
"330 1051 OFFCURVE",
"298 1051 CURVE SMOOTH",
"40 1051 LINE",
"40 -26 LINE SMOOTH",
"40 -180 OFFCURVE",
"145 -180 OFFCURVE",
"187 -180 CURVE SMOOTH",
"404 -180 LINE",
"407 -174 OFFCURVE",
"410 -162 OFFCURVE",
"410 -152 CURVE SMOOTH",
"410 -76 OFFCURVE",
"330 -76 OFFCURVE",
"298 -76 CURVE SMOOTH"
);
}
);
width = 452;
},
{
layerId = "F2B2A884-D9B7-4604-B025-F8D4318BA1DA";
paths = (
{
closed = 1;
nodes = (
"151 -157 LINE",
"151 742 LINE",
"308 742 LINE",
"309 744 OFFCURVE",
"310 749 OFFCURVE",
"310 755 CURVE SMOOTH",
"310 790 OFFCURVE",
"276 790 OFFCURVE",
"262 790 CURVE SMOOTH",
"87 790 LINE",
"87 -138 LINE SMOOTH",
"87 -202 OFFCURVE",
"132 -202 OFFCURVE",
"152 -202 CURVE SMOOTH",
"308 -202 LINE",
"309 -200 OFFCURVE",
"310 -195 OFFCURVE",
"310 -191 CURVE SMOOTH",
"310 -157 OFFCURVE",
"276 -157 OFFCURVE",
"262 -157 CURVE SMOOTH"
);
}
);
width = 376;
}
);
unicode = 005B;
},
{
glyphname = backslash;
layers = (
{
layerId = "6252BF4E-2FA9-4219-B920-178DA9EE1F12";
paths = (
{
closed = 1;
nodes = (
"121 1052 OFFCURVE",
"97 1048 OFFCURVE",
"77 1031 CURVE",
"94 1019 OFFCURVE",
"107 984 OFFCURVE",
"115 959 CURVE",
"332 342 OFFCURVE",
"378 199 OFFCURVE",
"470 -64 CURVE SMOOTH",
"480 -91 OFFCURVE",
"503 -155 OFFCURVE",
"559 -155 CURVE SMOOTH",
"574 -155 OFFCURVE",
"594 -152 OFFCURVE",
"617 -132 CURVE",
"605 -122 OFFCURVE",
"588 -85 OFFCURVE",
"578 -58 CURVE SMOOTH",
"467 259 OFFCURVE",
"346 619 OFFCURVE",
"224 962 CURVE SMOOTH",
"215 989 OFFCURVE",
"192 1052 OFFCURVE",
"137 1052 CURVE SMOOTH"
);
}
);
width = 631;
},
{
layerId = "F2B2A884-D9B7-4604-B025-F8D4318BA1DA";
paths = (
{
closed = 1;
nodes = (
"74 945 OFFCURVE",
"64 942 OFFCURVE",
"53 934 CURVE",
"62 928 OFFCURVE",
"70 907 OFFCURVE",
"74 894 CURVE",
"276 323 OFFCURVE",
"319 190 OFFCURVE",
"406 -54 CURVE",
"410 -70 OFFCURVE",
"423 -103 OFFCURVE",
"453 -103 CURVE SMOOTH",
"460 -103 OFFCURVE",
"471 -103 OFFCURVE",
"484 -91 CURVE",
"479 -86 OFFCURVE",
"468 -65 OFFCURVE",
"464 -51 CURVE",
"358 244 OFFCURVE",
"247 578 OFFCURVE",
"132 896 CURVE",
"126 911 OFFCURVE",
"115 945 OFFCURVE",
"85 945 CURVE SMOOTH"
);
}
);
width = 544;
}
);
unicode = 005C;
},
{
glyphname = bracketright;
layers = (
{
layerId = "6252BF4E-2FA9-4219-B920-178DA9EE1F12";
paths = (
{
closed = 1;
nodes = (
"256 947 LINE",
"256 -76 LINE",
"48 -76 LINE",
"46 -82 OFFCURVE",
"42 -94 OFFCURVE",
"42 -103 CURVE SMOOTH",
"42 -180 OFFCURVE",
"122 -180 OFFCURVE",
"155 -180 CURVE SMOOTH",
"413 -180 LINE",
"413 898 LINE SMOOTH",
"413 1051 OFFCURVE",
"307 1051 OFFCURVE",
"265 1051 CURVE SMOOTH",
"48 1051 LINE",
"46 1045 OFFCURVE",
"42 1033 OFFCURVE",
"42 1024 CURVE SMOOTH",
"42 947 OFFCURVE",
"122 947 OFFCURVE",
"155 947 CURVE SMOOTH"
);
}
);
width = 452;
},
{
layerId = "F2B2A884-D9B7-4604-B025-F8D4318BA1DA";
paths = (
{
closed = 1;
nodes = (
"246 744 LINE",
"246 -156 LINE",
"89 -156 LINE",
"88 -158 OFFCURVE",
"87 -162 OFFCURVE",
"87 -168 CURVE SMOOTH",
"87 -202 OFFCURVE",
"122 -202 OFFCURVE",
"135 -202 CURVE SMOOTH",
"310 -202 LINE",
"310 724 LINE SMOOTH",
"310 790 OFFCURVE",
"265 790 OFFCURVE",
"245 790 CURVE SMOOTH",
"89 790 LINE",
"88 787 OFFCURVE",
"87 782 OFFCURVE",
"87 778 CURVE SMOOTH",
"87 744 OFFCURVE",
"122 744 OFFCURVE",
"135 744 CURVE SMOOTH"
);
}
);
width = 376;
}
);
unicode = 005D;
},
{
glyphname = asciicircum;
layers = (
{
layerId = "6252BF4E-2FA9-4219-B920-178DA9EE1F12";
paths = (
{
closed = 1;
nodes = (
"443 671 LINE SMOOTH",
"418 724 OFFCURVE",
"398 748 OFFCURVE",
"362 748 CURVE SMOOTH",
"326 748 OFFCURVE",
"298 724 OFFCURVE",
"271 677 CURVE SMOOTH",
"118 406 LINE SMOOTH",
"98 372 OFFCURVE",
"90 344 OFFCURVE",
"90 322 CURVE SMOOTH",
"90 262 OFFCURVE",
"143 235 OFFCURVE",
"187 235 CURVE",
"402 649 LINE",
"335 630 LINE",
"475 322 LINE SMOOTH",
"508 252 OFFCURVE",
"540 218 OFFCURVE",
"580 218 CURVE SMOOTH",
"600 218 OFFCURVE",
"622 227 OFFCURVE",
"644 244 CURVE"
);
}
);
width = 734;
},
{
layerId = "F2B2A884-D9B7-4604-B025-F8D4318BA1DA";
paths = (
{
closed = 1;
nodes = (
"281 631 LINE",
"275 645 OFFCURVE",
"265 650 OFFCURVE",
"253 650 CURVE SMOOTH",
"242 650 OFFCURVE",
"229 643 OFFCURVE",
"219 626 CURVE",
"62 341 LINE SMOOTH",
"49 317 OFFCURVE",
"44 297 OFFCURVE",
"44 280 CURVE SMOOTH",
"44 252 OFFCURVE",
"61 238 OFFCURVE",
"81 238 CURVE",
"278 616 LINE",
"229 618 LINE",
"412 277 LINE",
"424 253 OFFCURVE",
"439 241 OFFCURVE",
"456 241 CURVE SMOOTH",
"464 241 OFFCURVE",
"474 244 OFFCURVE",
"483 253 CURVE"
);
}
);
width = 527;
}
);
unicode = 005E;
},
{
glyphname = underscore;
layers = (
{
layerId = "6252BF4E-2FA9-4219-B920-178DA9EE1F12";
paths = (
{
closed = 1;
nodes = (
"145 -66 LINE SMOOTH",
"103 -66 OFFCURVE",
"0 -66 OFFCURVE",
"0 -164 CURVE SMOOTH",
"0 -178 OFFCURVE",
"5 -193 OFFCURVE",
"8 -200 CURVE",
"474 -200 LINE SMOOTH",
"516 -200 OFFCURVE",
"619 -200 OFFCURVE",
"619 -97 CURVE SMOOTH",
"619 -88 OFFCURVE",
"617 -73 OFFCURVE",
"613 -66 CURVE"
);
}
);
width = 619;
},
{
layerId = "F2B2A884-D9B7-4604-B025-F8D4318BA1DA";
paths = (
{
closed = 1;
nodes = (
"54 -90 LINE",
"37 -90 OFFCURVE",
"-2 -90 OFFCURVE",
"-2 -129 CURVE SMOOTH",
"-2 -134 OFFCURVE",
"-1 -139 OFFCURVE",
"0 -143 CURVE",
"509 -143 LINE SMOOTH",
"527 -143 OFFCURVE",
"566 -143 OFFCURVE",
"566 -103 CURVE SMOOTH",
"566 -98 OFFCURVE",
"565 -93 OFFCURVE",
"565 -90 CURVE"
);
}
);
width = 566;
}
);
unicode = 005F;
},
{
glyphname = grave;
layers = (
{
anchors = (
{
name = _top;
position = "{184, 523}";
}
);
layerId = "6252BF4E-2FA9-4219-B920-178DA9EE1F12";
paths = (
{
closed = 1;
nodes = (
"179 587 LINE SMOOTH",
"208 564 OFFCURVE",
"247 563 OFFCURVE",
"264 595 CURVE",
"209 689 LINE SMOOTH",
"168 758 OFFCURVE",
"136 785 OFFCURVE",
"84 785 CURVE SMOOTH",
"23 785 OFFCURVE",
"-6 724 OFFCURVE",
"24 666 CURVE",
"47 674 OFFCURVE",
"70 671 OFFCURVE",
"98 649 CURVE SMOOTH"
);
}
);
width = 276;
},
{
anchors = (
{
name = _top;
position = "{184, 503}";
}
);
layerId = "F2B2A884-D9B7-4604-B025-F8D4318BA1DA";
paths = (
{
closed = 1;
nodes = (
"166 584 LINE",
"190 557 OFFCURVE",
"207 569 OFFCURVE",
"211 580 CURVE",
"117 719 LINE SMOOTH",
"97 749 OFFCURVE",
"81 760 OFFCURVE",
"60 760 CURVE SMOOTH",
"28 760 OFFCURVE",
"9 738 OFFCURVE",
"12 701 CURVE",
"32 707 OFFCURVE",
"48 705 OFFCURVE",
"67 686 CURVE SMOOTH"
);
}
);
width = 223;
}
);
unicode = 0060;
},
{
glyphname = a;
layers = (
{
anchors = (
{
name = ogonek;
position = "{529, 26}";
},
{
name = top;
position = "{296, 523}";
}
);
layerId = "6252BF4E-2FA9-4219-B920-178DA9EE1F12";
paths = (
{
closed = 1;
nodes = (
"497 354 LINE SMOOTH",
"497 487 OFFCURVE",
"402 534 OFFCURVE",
"287 534 CURVE SMOOTH",
"172 534 OFFCURVE",
"65 495 OFFCURVE",
"65 409 CURVE SMOOTH",
"65 370 OFFCURVE",
"96 334 OFFCURVE",
"161 334 CURVE SMOOTH",
"198 334 OFFCURVE",
"229 347 OFFCURVE",
"251 370 CURVE",
"241 381 OFFCURVE",
"235 395 OFFCURVE",
"235 413 CURVE SMOOTH",
"235 445 OFFCURVE",
"258 465 OFFCURVE",
"287 465 CURVE SMOOTH",
"316 465 OFFCURVE",
"340 445 OFFCURVE",
"340 402 CURVE SMOOTH",
"340 108 LINE SMOOTH",
"340 28 OFFCURVE",
"370 -11 OFFCURVE",
"438 -11 CURVE SMOOTH",
"486 -11 OFFCURVE",
"529 16 OFFCURVE",
"551 47 CURVE",
"517 58 OFFCURVE",
"497 85 OFFCURVE",
"497 127 CURVE SMOOTH"
);
},
{
closed = 1;
nodes = (
"353 288 LINE",
"155 288 OFFCURVE",
"40 221 OFFCURVE",
"40 119 CURVE SMOOTH",
"40 35 OFFCURVE",
"101 -11 OFFCURVE",
"191 -11 CURVE SMOOTH",
"275 -11 OFFCURVE",
"334 34 OFFCURVE",
"364 78 CURVE",
"356 148 LINE",
"331 109 OFFCURVE",
"300 88 OFFCURVE",
"266 88 CURVE SMOOTH",
"233 88 OFFCURVE",
"210 102 OFFCURVE",
"210 137 CURVE SMOOTH",
"210 181 OFFCURVE",
"245 221 OFFCURVE",
"353 224 CURVE"
);
}
);
width = 569;
},
{
anchors = (
{
name = ogonek;
position = "{479, 16}";
},
{
name = top;
position = "{250, 503}";
}
);
layerId = "F2B2A884-D9B7-4604-B025-F8D4318BA1DA";
paths = (
{
closed = 1;
nodes = (
"419 356 LINE SMOOTH",
"419 449 OFFCURVE",
"360 512 OFFCURVE",
"251 512 CURVE SMOOTH",
"155 512 OFFCURVE",
"78 462 OFFCURVE",
"78 403 CURVE SMOOTH",
"78 372 OFFCURVE",
"100 357 OFFCURVE",
"125 357 CURVE SMOOTH",
"134 357 OFFCURVE",
"149 361 OFFCURVE",
"160 368 CURVE",
"150 378 OFFCURVE",
"147 390 OFFCURVE",
"147 403 CURVE SMOOTH",
"147 444 OFFCURVE",
"187 472 OFFCURVE",
"251 472 CURVE SMOOTH",
"315 472 OFFCURVE",
"355 434 OFFCURVE",
"355 357 CURVE SMOOTH",
"355 77 LINE SMOOTH",
"355 19 OFFCURVE",
"381 -8 OFFCURVE",
"417 -8 CURVE SMOOTH",
"442 -8 OFFCURVE",
"458 5 OFFCURVE",
"466 26 CURVE",
"439 27 OFFCURVE",
"419 38 OFFCURVE",
"419 80 CURVE SMOOTH"
);
},
{
closed = 1;
nodes = (
"362 288 LINE",
"148 283 OFFCURVE",
"58 214 OFFCURVE",
"58 119 CURVE SMOOTH",
"58 37 OFFCURVE",
"120 -8 OFFCURVE",
"197 -8 CURVE SMOOTH",
"274 -8 OFFCURVE",
"335 34 OFFCURVE",
"372 106 CURVE",
"365 139 LINE",
"328 80 OFFCURVE",
"273 48 OFFCURVE",
"213 48 CURVE SMOOTH",
"162 48 OFFCURVE",
"126 69 OFFCURVE",
"126 125 CURVE SMOOTH",
"126 188 OFFCURVE",
"193 243 OFFCURVE",
"362 249 CURVE"
);
}
);
width = 516;
}
);
unicode = 0061;
},
{
glyphname = b;
layers = (
{
layerId = "6252BF4E-2FA9-4219-B920-178DA9EE1F12";
paths = (
{
closed = 1;
nodes = (
"235 665 LINE SMOOTH",
"235 745 OFFCURVE",
"204 784 OFFCURVE",
"136 784 CURVE SMOOTH",
"96 784 OFFCURVE",
"66 766 OFFCURVE",
"44 742 CURVE",
"67 728 OFFCURVE",
"78 706 OFFCURVE",
"78 671 CURVE SMOOTH",
"78 155 LINE SMOOTH",
"78 24 OFFCURVE",
"164 -11 OFFCURVE",
"295 -11 CURVE SMOOTH",
"463 -11 OFFCURVE",
"586 95 OFFCURVE",
"586 282 CURVE SMOOTH",
"586 442 OFFCURVE",
"490 534 OFFCURVE",
"377 534 CURVE SMOOTH",
"314 534 OFFCURVE",
"262 508 OFFCURVE",
"226 456 CURVE",
"227 343 LINE",
"245 396 OFFCURVE",
"286 427 OFFCURVE",
"326 427 CURVE SMOOTH",
"377 427 OFFCURVE",
"428 373 OFFCURVE",
"428 262 CURVE SMOOTH",
"428 150 OFFCURVE",
"378 74 OFFCURVE",
"304 74 CURVE SMOOTH",
"263 74 OFFCURVE",
"235 94 OFFCURVE",
"235 155 CURVE SMOOTH"
);
}
);
width = 608;
},
{
layerId = "F2B2A884-D9B7-4604-B025-F8D4318BA1DA";
paths = (
{
closed = 1;
nodes = (
"155 698 LINE SMOOTH",
"155 735 OFFCURVE",
"139 754 OFFCURVE",
"111 754 CURVE SMOOTH",
"92 754 OFFCURVE",
"77 742 OFFCURVE",
"68 726 CURVE",
"84 720 OFFCURVE",
"91 714 OFFCURVE",
"91 694 CURVE SMOOTH",
"89 156 LINE SMOOTH",
"89 45 OFFCURVE",
"165 -7 OFFCURVE",
"285 -7 CURVE SMOOTH",
"411 -7 OFFCURVE",
"524 107 OFFCURVE",
"524 258 CURVE SMOOTH",
"524 429 OFFCURVE",
"431 512 OFFCURVE",
"313 512 CURVE SMOOTH",
"241 512 OFFCURVE",
"180 471 OFFCURVE",
"145 414 CURVE",
"154 357 LINE",
"193 429 OFFCURVE",
"249 453 OFFCURVE",
"309 453 CURVE SMOOTH",
"404 453 OFFCURVE",
"460 388 OFFCURVE",
"460 260 CURVE SMOOTH",
"460 120 OFFCURVE",
"392 43 OFFCURVE",
"284 43 CURVE SMOOTH",
"200 43 OFFCURVE",
"153 81 OFFCURVE",
"153 155 CURVE SMOOTH"
);
}
);
width = 568;
}
);
unicode = 0062;
},
{
glyphname = c;
layers = (
{
anchors = (
{
name = bottom;
position = "{262, 0}";
},
{
name = top;
position = "{262, 523}";
}
);
layerId = "6252BF4E-2FA9-4219-B920-178DA9EE1F12";
paths = (
{
closed = 1;
nodes = (
"487 491 OFFCURVE",
"403 534 OFFCURVE",
"319 534 CURVE SMOOTH",
"155 534 OFFCURVE",
"48 392 OFFCURVE",
"48 240 CURVE SMOOTH",
"48 86 OFFCURVE",
"137 -11 OFFCURVE",
"295 -11 CURVE SMOOTH",
"401 -11 OFFCURVE",
"486 52 OFFCURVE",
"486 119 CURVE SMOOTH",
"486 137 OFFCURVE",
"478 155 OFFCURVE",
"463 161 CURVE",
"432 126 OFFCURVE",
"390 98 OFFCURVE",
"324 98 CURVE SMOOTH",
"252 98 OFFCURVE",
"199 151 OFFCURVE",
"199 259 CURVE SMOOTH",
"199 367 OFFCURVE",
"244 444 OFFCURVE",
"295 444 CURVE SMOOTH",
"323 444 OFFCURVE",
"338 419 OFFCURVE",
"338 388 CURVE SMOOTH",
"338 380 OFFCURVE",
"337 368 OFFCURVE",
"335 360 CURVE",
"353 346 OFFCURVE",
"377 337 OFFCURVE",
"404 337 CURVE SMOOTH",
"451 337 OFFCURVE",
"487 364 OFFCURVE",
"487 415 CURVE SMOOTH"
);
}
);
width = 523;
},
{
anchors = (
{
name = bottom;
position = "{242, 0}";
},
{
name = top;
position = "{242, 503}";
}
);
layerId = "F2B2A884-D9B7-4604-B025-F8D4318BA1DA";
paths = (
{
closed = 1;
nodes = (
"433 468 OFFCURVE",
"389 512 OFFCURVE",
"303 512 CURVE SMOOTH",
"170 512 OFFCURVE",
"50 404 OFFCURVE",
"50 229 CURVE SMOOTH",
"50 72 OFFCURVE",
"163 -8 OFFCURVE",
"270 -8 CURVE SMOOTH",
"354 -8 OFFCURVE",
"426 42 OFFCURVE",
"426 76 CURVE SMOOTH",
"426 86 OFFCURVE",
"421 96 OFFCURVE",
"416 101 CURVE",
"384 71 OFFCURVE",
"331 51 OFFCURVE",
"278 51 CURVE SMOOTH",
"197 51 OFFCURVE",
"117 111 OFFCURVE",
"117 246 CURVE SMOOTH",
"117 398 OFFCURVE",
"211 464 OFFCURVE",
"290 464 CURVE SMOOTH",
"349 464 OFFCURVE",
"373 438 OFFCURVE",
"373 402 CURVE SMOOTH",
"373 395 OFFCURVE",
"373 388 OFFCURVE",
"370 381 CURVE",
"376 379 OFFCURVE",
"385 378 OFFCURVE",
"393 378 CURVE SMOOTH",
"413 378 OFFCURVE",
"433 393 OFFCURVE",
"433 423 CURVE SMOOTH"
);
}
);
width = 482;
}
);
unicode = 0063;
},
{
glyphname = d;
layers = (
{
anchors = (
{
name = topright;
position = "{528, 700}";
}
);
layerId = "6252BF4E-2FA9-4219-B920-178DA9EE1F12";
paths = (
{
closed = 1;
nodes = (
"529 665 LINE SMOOTH",
"529 745 OFFCURVE",
"498 784 OFFCURVE",
"430 784 CURVE SMOOTH",
"390 784 OFFCURVE",
"360 766 OFFCURVE",
"338 742 CURVE",
"361 728 OFFCURVE",
"372 706 OFFCURVE",
"372 671 CURVE SMOOTH",
"372 108 LINE SMOOTH",
"372 28 OFFCURVE",
"402 -11 OFFCURVE",
"470 -11 CURVE SMOOTH",
"511 -11 OFFCURVE",
"540 7 OFFCURVE",
"562 32 CURVE",
"539 44 OFFCURVE",
"529 67 OFFCURVE",
"529 103 CURVE SMOOTH"
);
},
{
closed = 1;
nodes = (
"412 515 LINE",
"386 526 OFFCURVE",
"338 534 OFFCURVE",
"300 534 CURVE SMOOTH",
"130 534 OFFCURVE",
"30 403 OFFCURVE",
"30 244 CURVE SMOOTH",
"30 84 OFFCURVE",
"130 -11 OFFCURVE",
"258 -11 CURVE SMOOTH",
"316 -11 OFFCURVE",
"385 25 OFFCURVE",
"403 78 CURVE",
"382 148 LINE",
"371 112 OFFCURVE",
"336 88 OFFCURVE",
"299 88 CURVE SMOOTH",
"232 88 OFFCURVE",
"192 142 OFFCURVE",
"192 262 CURVE SMOOTH",
"192 382 OFFCURVE",
"245 448 OFFCURVE",
"308 448 CURVE SMOOTH",
"340 448 OFFCURVE",
"370 433 OFFCURVE",
"382 406 CURVE"
);
}
);
width = 601;
},
{
anchors = (
{
name = topright;
position = "{528, 700}";
}
);
layerId = "F2B2A884-D9B7-4604-B025-F8D4318BA1DA";
paths = (
{
closed = 1;
nodes = (
"473 698 LINE SMOOTH",
"473 735 OFFCURVE",
"457 754 OFFCURVE",
"428 754 CURVE SMOOTH",
"410 754 OFFCURVE",
"394 742 OFFCURVE",
"386 726 CURVE",
"401 720 OFFCURVE",
"409 714 OFFCURVE",
"409 694 CURVE SMOOTH",
"409 49 LINE SMOOTH",
"409 12 OFFCURVE",
"424 -8 OFFCURVE",
"454 -8 CURVE SMOOTH",
"471 -8 OFFCURVE",
"487 5 OFFCURVE",
"496 21 CURVE",
"481 26 OFFCURVE",
"473 33 OFFCURVE",
"473 51 CURVE SMOOTH"
);
},
{
closed = 1;
nodes = (
"437 446 LINE",
"392 488 OFFCURVE",
"340 512 OFFCURVE",
"274 512 CURVE SMOOTH",
"157 512 OFFCURVE",
"52 411 OFFCURVE",
"52 244 CURVE SMOOTH",
"52 75 OFFCURVE",
"165 -8 OFFCURVE",
"263 -8 CURVE SMOOTH",
"339 -8 OFFCURVE",
"392 24 OFFCURVE",
"427 87 CURVE",
"430 164 LINE",
"408 83 OFFCURVE",
"351 41 OFFCURVE",
"274 41 CURVE SMOOTH",
"194 41 OFFCURVE",
"116 106 OFFCURVE",
"116 242 CURVE SMOOTH",
"116 392 OFFCURVE",
"187 463 OFFCURVE",
"282 463 CURVE SMOOTH",
"345 463 OFFCURVE",
"396 436 OFFCURVE",
"432 390 CURVE"
);
}
);
width = 565;
}
);
unicode = 0064;
},
{
glyphname = e;
layers = (
{
anchors = (
{
name = bottom;
position = "{268, 0}";
},
{
name = ogonek;
position = "{371, 20}";
},
{
name = top;
position = "{298, 523}";
}
);
layerId = "6252BF4E-2FA9-4219-B920-178DA9EE1F12";
paths = (
{
closed = 1;
nodes = (
"504 442 OFFCURVE",
"425 534 OFFCURVE",
"306 534 CURVE SMOOTH",
"156 534 OFFCURVE",
"48 404 OFFCURVE",
"48 234 CURVE SMOOTH",
"48 80 OFFCURVE",
"142 -11 OFFCURVE",
"300 -11 CURVE SMOOTH",
"406 -11 OFFCURVE",
"491 58 OFFCURVE",
"491 119 CURVE SMOOTH",
"491 137 OFFCURVE",
"482 155 OFFCURVE",
"468 161 CURVE",
"437 126 OFFCURVE",
"395 98 OFFCURVE",
"329 98 CURVE SMOOTH",
"257 98 OFFCURVE",
"204 140 OFFCURVE",
"204 259 CURVE SMOOTH",
"204 390 OFFCURVE",
"247 451 OFFCURVE",
"293 451 CURVE SMOOTH",
"325 451 OFFCURVE",
"348 416 OFFCURVE",
"348 374 CURVE SMOOTH",
"348 342 OFFCURVE",
"334 334 OFFCURVE",
"312 331 CURVE SMOOTH",
"187 316 LINE",
"187 241 LINE",
"389 247 LINE SMOOTH",
"472 250 OFFCURVE",
"504 278 OFFCURVE",
"504 352 CURVE SMOOTH"
);
}
);
width = 534;
},
{
anchors = (
{
name = bottom;
position = "{238, 0}";
},
{
name = ogonek;
position = "{367, 23}";
},
{
name = top;
position = "{275, 503}";
}
);
layerId = "F2B2A884-D9B7-4604-B025-F8D4318BA1DA";
paths = (
{
closed = 1;
nodes = (
"440 429 OFFCURVE",
"381 512 OFFCURVE",
"281 512 CURVE SMOOTH",
"170 512 OFFCURVE",
"50 403 OFFCURVE",
"50 234 CURVE SMOOTH",
"50 79 OFFCURVE",
"153 -8 OFFCURVE",
"281 -8 CURVE SMOOTH",
"369 -8 OFFCURVE",
"435 38 OFFCURVE",
"435 74 CURVE SMOOTH",
"435 85 OFFCURVE",
"431 92 OFFCURVE",
"423 97 CURVE",
"391 67 OFFCURVE",
"342 47 OFFCURVE",
"289 47 CURVE SMOOTH",
"187 47 OFFCURVE",
"118 107 OFFCURVE",
"119 250 CURVE",
"119 383 OFFCURVE",
"187 461 OFFCURVE",
"272 461 CURVE SMOOTH",
"332 461 OFFCURVE",
"372 412 OFFCURVE",
"372 351 CURVE SMOOTH",
"372 316 OFFCURVE",
"356 304 OFFCURVE",
"330 302 CURVE SMOOTH",
"111 286 LINE",
"111 252 LINE",
"333 259 LINE SMOOTH",
"409 261 OFFCURVE",
"440 291 OFFCURVE",
"440 349 CURVE SMOOTH"
);
}
);
width = 477;
}
);
unicode = 0065;
},
{
glyphname = f;
layers = (
{
layerId = "6252BF4E-2FA9-4219-B920-178DA9EE1F12";
paths = (
{
closed = 1;
nodes = (
"113 523 LINE SMOOTH",
"88 523 OFFCURVE",
"68 524 OFFCURVE",
"47 525 CURVE",
"35 517 OFFCURVE",
"25 500 OFFCURVE",
"25 481 CURVE SMOOTH",
"25 453 OFFCURVE",
"44 427 OFFCURVE",
"140 427 CURVE SMOOTH",
"286 427 LINE SMOOTH",
"370 427 OFFCURVE",
"398 469 OFFCURVE",
"398 502 CURVE SMOOTH",
"398 510 OFFCURVE",
"396 517 OFFCURVE",
"391 523 CURVE"
);
},
{
closed = 1;
nodes = (
"422 738 OFFCURVE",
"374 784 OFFCURVE",
"292 784 CURVE SMOOTH",
"185 784 OFFCURVE",
"112 720 OFFCURVE",
"112 610 CURVE SMOOTH",
"112 -64 LINE SMOOTH",
"112 -142 OFFCURVE",
"92 -178 OFFCURVE",
"6 -178 CURVE",
"19 -224 OFFCURVE",
"50 -268 OFFCURVE",
"127 -268 CURVE SMOOTH",
"204 -268 OFFCURVE",
"269 -218 OFFCURVE",
"269 -90 CURVE SMOOTH",
"269 606 LINE SMOOTH",
"269 662 OFFCURVE",
"294 680 OFFCURVE",
"324 680 CURVE SMOOTH",
"350 680 OFFCURVE",
"373 666 OFFCURVE",
"391 646 CURVE",
"412 650 OFFCURVE",
"422 668 OFFCURVE",
"422 689 CURVE SMOOTH"
);
}
);
width = 408;
},
{
layerId = "F2B2A884-D9B7-4604-B025-F8D4318BA1DA";
paths = (
{
closed = 1;
nodes = (
"115 503 LINE SMOOTH",
"84 503 OFFCURVE",
"60 505 OFFCURVE",
"48 508 CURVE",
"42 501 OFFCURVE",
"38 493 OFFCURVE",
"38 483 CURVE SMOOTH",
"38 464 OFFCURVE",
"63 447 OFFCURVE",
"158 447 CURVE SMOOTH",
"204 447 LINE SMOOTH",
"330 447 OFFCURVE",
"362 467 OFFCURVE",
"362 486 CURVE SMOOTH",
"362 493 OFFCURVE",
"361 498 OFFCURVE",
"357 503 CURVE"
);
},
{
closed = 1;
nodes = (
"389 716 OFFCURVE",
"343 754 OFFCURVE",
"269 754 CURVE SMOOTH",
"192 754 OFFCURVE",
"126 706 OFFCURVE",
"126 598 CURVE SMOOTH",
"126 -120 LINE SMOOTH",
"126 -178 OFFCURVE",
"107 -202 OFFCURVE",
"50 -202 CURVE",
"65 -230 OFFCURVE",
"90 -243 OFFCURVE",
"114 -243 CURVE SMOOTH",
"156 -243 OFFCURVE",
"190 -209 OFFCURVE",
"190 -137 CURVE SMOOTH",
"190 605 LINE SMOOTH",
"190 673 OFFCURVE",
"227 703 OFFCURVE",
"276 703 CURVE SMOOTH",
"324 703 OFFCURVE",
"354 680 OFFCURVE",
"377 653 CURVE",
"383 657 OFFCURVE",
"389 665 OFFCURVE",
"389 676 CURVE SMOOTH"
);
}
);
width = 374;
}
);
unicode = 0066;
},
{
glyphname = g;
layers = (
{
anchors = (
{
name = top;
position = "{243, 500}";
}
);
layerId = "6252BF4E-2FA9-4219-B920-178DA9EE1F12";
paths = (
{
closed = 1;
nodes = (
"156 534 OFFCURVE",
"53 457 OFFCURVE",
"53 331 CURVE SMOOTH",
"53 205 OFFCURVE",
"156 127 OFFCURVE",
"276 127 CURVE SMOOTH",
"396 127 OFFCURVE",
"498 205 OFFCURVE",
"498 331 CURVE SMOOTH",
"498 457 OFFCURVE",
"396 534 OFFCURVE",
"276 534 CURVE SMOOTH"
);
},
{
closed = 1;
nodes = (
"342 229 OFFCURVE",
"319 194 OFFCURVE",
"283 194 CURVE SMOOTH",
"247 194 OFFCURVE",
"221 229 OFFCURVE",
"215 331 CURVE SMOOTH",
"209 433 OFFCURVE",
"233 467 OFFCURVE",
"269 467 CURVE SMOOTH",
"305 467 OFFCURVE",
"330 433 OFFCURVE",
"336 331 CURVE SMOOTH"
);
},
{
closed = 1;
nodes = (
"182 185 LINE",
"113 158 OFFCURVE",
"58 124 OFFCURVE",
"58 53 CURVE SMOOTH",
"58 -41 OFFCURVE",
"155 -78 OFFCURVE",
"248 -78 CURVE SMOOTH",
"407 -78 LINE SMOOTH",
"426 -78 OFFCURVE",
"433 -88 OFFCURVE",
"433 -100 CURVE SMOOTH",
"433 -132 OFFCURVE",
"382 -156 OFFCURVE",
"271 -156 CURVE SMOOTH",
"163 -156 OFFCURVE",
"115 -132 OFFCURVE",
"113 -64 CURVE",
"64 -64 OFFCURVE",
"16 -92 OFFCURVE",
"16 -146 CURVE SMOOTH",
"16 -200 OFFCURVE",
"66 -268 OFFCURVE",
"245 -268 CURVE SMOOTH",
"430 -268 OFFCURVE",
"541 -184 OFFCURVE",
"541 -67 CURVE SMOOTH",
"541 14 OFFCURVE",
"498 68 OFFCURVE",
"395 68 CURVE SMOOTH",
"258 68 LINE SMOOTH",
"203 68 OFFCURVE",
"178 74 OFFCURVE",
"178 107 CURVE SMOOTH",
"178 134 OFFCURVE",
"210 145 OFFCURVE",
"242 144 CURVE"
);
},
{
closed = 1;
nodes = (
"452 630 OFFCURVE",
"407 580 OFFCURVE",
"407 482 CURVE",
"452 431 LINE",
"452 472 OFFCURVE",
"479 497 OFFCURVE",
"508 497 CURVE SMOOTH",
"524 497 OFFCURVE",
"542 491 OFFCURVE",
"557 480 CURVE",
"576 491 OFFCURVE",
"589 520 OFFCURVE",
"589 550 CURVE SMOOTH",
"589 589 OFFCURVE",
"560 630 OFFCURVE",
"508 630 CURVE SMOOTH"
);
}
);
width = 565;
},
{
anchors = (
{
name = top;
position = "{249, 500}";
}
);
layerId = "F2B2A884-D9B7-4604-B025-F8D4318BA1DA";
paths = (
{
closed = 1;
nodes = (
"169 512 OFFCURVE",
"72 441 OFFCURVE",
"72 315 CURVE SMOOTH",
"72 186 OFFCURVE",
"169 117 OFFCURVE",
"261 117 CURVE SMOOTH",
"351 117 OFFCURVE",
"450 186 OFFCURVE",
"450 315 CURVE SMOOTH",
"450 441 OFFCURVE",
"351 512 OFFCURVE",
"261 512 CURVE SMOOTH"
);
},
{
closed = 1;
nodes = (
"393 219 OFFCURVE",
"333 159 OFFCURVE",
"268 159 CURVE SMOOTH",
"202 159 OFFCURVE",
"142 219 OFFCURVE",
"135 315 CURVE SMOOTH",
"127 408 OFFCURVE",
"187 469 OFFCURVE",
"253 469 CURVE SMOOTH",
"318 469 OFFCURVE",
"381 408 OFFCURVE",
"387 315 CURVE SMOOTH"
);
},
{
closed = 1;
nodes = (
"161 160 LINE",
"112 148 OFFCURVE",
"81 117 OFFCURVE",
"81 76 CURVE SMOOTH",
"81 5 OFFCURVE",
"147 -20 OFFCURVE",
"232 -20 CURVE SMOOTH",
"351 -20 LINE SMOOTH",
"415 -20 OFFCURVE",
"446 -42 OFFCURVE",
"446 -80 CURVE SMOOTH",
"446 -139 OFFCURVE",
"384 -182 OFFCURVE",
"275 -182 CURVE SMOOTH",
"129 -182 OFFCURVE",
"90 -111 OFFCURVE",
"87 -39 CURVE",
"60 -46 OFFCURVE",
"39 -68 OFFCURVE",
"39 -106 CURVE SMOOTH",
"40 -177 OFFCURVE",
"123 -242 OFFCURVE",
"266 -242 CURVE SMOOTH",
"384 -242 OFFCURVE",
"501 -172 OFFCURVE",
"501 -77 CURVE SMOOTH",
"501 -6 OFFCURVE",
"447 39 OFFCURVE",
"349 39 CURVE SMOOTH",
"240 39 LINE SMOOTH",
"173 39 OFFCURVE",
"141 52 OFFCURVE",
"141 84 CURVE SMOOTH",
"141 120 OFFCURVE",
"178 136 OFFCURVE",
"261 136 CURVE"
);
},
{
closed = 1;
nodes = (
"406 590 OFFCURVE",
"350 538 OFFCURVE",
"350 464 CURVE",
"384 440 LINE",
"384 485 OFFCURVE",
"410 523 OFFCURVE",
"452 523 CURVE SMOOTH",
"469 523 OFFCURVE",
"487 517 OFFCURVE",
"501 506 CURVE",
"511 513 OFFCURVE",
"520 528 OFFCURVE",
"520 541 CURVE SMOOTH",
"520 568 OFFCURVE",
"497 590 OFFCURVE",
"453 590 CURVE SMOOTH"
);
}
);
width = 556;
}
);
unicode = 0067;
},
{
glyphname = h;
layers = (
{
layerId = "6252BF4E-2FA9-4219-B920-178DA9EE1F12";
paths = (
{
closed = 1;
nodes = (
"235 665 LINE SMOOTH",
"235 745 OFFCURVE",
"204 784 OFFCURVE",
"136 784 CURVE SMOOTH",
"96 784 OFFCURVE",
"66 766 OFFCURVE",
"44 742 CURVE",
"67 728 OFFCURVE",
"78 706 OFFCURVE",
"78 671 CURVE SMOOTH",
"78 108 LINE SMOOTH",
"78 28 OFFCURVE",
"108 -11 OFFCURVE",
"176 -11 CURVE SMOOTH",
"217 -11 OFFCURVE",
"246 7 OFFCURVE",
"268 32 CURVE",
"245 44 OFFCURVE",
"235 67 OFFCURVE",
"235 103 CURVE SMOOTH"
);
},
{
closed = 1;
nodes = (
"564 354 LINE SMOOTH",
"564 475 OFFCURVE",
"502 534 OFFCURVE",
"414 534 CURVE SMOOTH",
"326 534 OFFCURVE",
"246 485 OFFCURVE",
"217 386 CURVE",
"232 275 LINE",
"247 370 OFFCURVE",
"299 408 OFFCURVE",
"341 408 CURVE SMOOTH",
"383 408 OFFCURVE",
"407 379 OFFCURVE",
"407 331 CURVE SMOOTH",
"407 108 LINE SMOOTH",
"407 28 OFFCURVE",
"437 -11 OFFCURVE",
"505 -11 CURVE SMOOTH",
"546 -11 OFFCURVE",
"575 7 OFFCURVE",
"596 32 CURVE",
"574 44 OFFCURVE",
"564 67 OFFCURVE",
"564 103 CURVE SMOOTH"
);
}
);
width = 636;
},
{
layerId = "F2B2A884-D9B7-4604-B025-F8D4318BA1DA";
paths = (
{
closed = 1;
nodes = (
"159 698 LINE SMOOTH",
"159 735 OFFCURVE",
"144 754 OFFCURVE",
"114 754 CURVE SMOOTH",
"96 754 OFFCURVE",
"80 742 OFFCURVE",
"73 726 CURVE",
"87 720 OFFCURVE",
"96 714 OFFCURVE",
"96 694 CURVE SMOOTH",
"96 49 LINE SMOOTH",
"96 12 OFFCURVE",
"110 -8 OFFCURVE",
"140 -8 CURVE SMOOTH",
"158 -8 OFFCURVE",
"173 5 OFFCURVE",
"182 21 CURVE",
"167 26 OFFCURVE",
"159 33 OFFCURVE",
"159 51 CURVE"
);
},
{
closed = 1;
nodes = (
"491 342 LINE SMOOTH",
"491 459 OFFCURVE",
"431 512 OFFCURVE",
"340 512 CURVE SMOOTH",
"250 512 OFFCURVE",
"180 442 OFFCURVE",
"152 370 CURVE",
"150 244 LINE",
"160 371 OFFCURVE",
"247 454 OFFCURVE",
"329 454 CURVE SMOOTH",
"403 454 OFFCURVE",
"428 409 OFFCURVE",
"428 341 CURVE SMOOTH",
"428 49 LINE SMOOTH",
"428 12 OFFCURVE",
"444 -8 OFFCURVE",
"472 -8 CURVE SMOOTH",
"491 -8 OFFCURVE",
"506 5 OFFCURVE",
"515 21 CURVE",
"499 26 OFFCURVE",
"491 33 OFFCURVE",
"491 51 CURVE SMOOTH"
);
}
);
width = 583;
}
);
unicode = 0068;
},
{
glyphname = i;
layers = (
{
anchors = (
{
name = ogonek;
position = "{238, 15}";
}
);
layerId = "6252BF4E-2FA9-4219-B920-178DA9EE1F12";
paths = (
{
closed = 1;
nodes = (
"235 415 LINE SMOOTH",
"235 496 OFFCURVE",
"204 534 OFFCURVE",
"136 534 CURVE SMOOTH",
"96 534 OFFCURVE",
"66 516 OFFCURVE",
"44 491 CURVE",
"67 479 OFFCURVE",
"78 456 OFFCURVE",
"78 421 CURVE SMOOTH",
"78 108 LINE SMOOTH",
"78 28 OFFCURVE",
"108 -11 OFFCURVE",
"176 -11 CURVE SMOOTH",
"217 -11 OFFCURVE",
"246 7 OFFCURVE",
"268 32 CURVE",
"245 44 OFFCURVE",
"235 67 OFFCURVE",
"235 103 CURVE SMOOTH"
);
},
{
closed = 1;
nodes = (
"253 749 OFFCURVE",
"214 784 OFFCURVE",
"164 784 CURVE SMOOTH",
"116 784 OFFCURVE",
"53 745 OFFCURVE",
"53 679 CURVE SMOOTH",
"53 634 OFFCURVE",
"90 596 OFFCURVE",
"143 596 CURVE SMOOTH",
"204 596 OFFCURVE",
"253 647 OFFCURVE",
"253 702 CURVE SMOOTH"
);
}
);
width = 307;
},
{
anchors = (
{
name = ogonek;
position = "{192, 12}";
}
);
layerId = "F2B2A884-D9B7-4604-B025-F8D4318BA1DA";
paths = (
{
closed = 1;
nodes = (
"159 455 LINE SMOOTH",
"159 492 OFFCURVE",
"144 512 OFFCURVE",
"114 512 CURVE SMOOTH",
"96 512 OFFCURVE",
"80 498 OFFCURVE",
"73 483 CURVE",
"87 478 OFFCURVE",
"96 470 OFFCURVE",
"96 452 CURVE SMOOTH",
"96 49 LINE SMOOTH",
"96 12 OFFCURVE",
"110 -8 OFFCURVE",
"140 -8 CURVE SMOOTH",
"158 -8 OFFCURVE",
"173 5 OFFCURVE",
"182 21 CURVE",
"167 26 OFFCURVE",
"159 33 OFFCURVE",
"159 51 CURVE"
);
},
{
closed = 1;
nodes = (
"179 698 OFFCURVE",
"157 716 OFFCURVE",
"130 716 CURVE SMOOTH",
"103 716 OFFCURVE",
"67 696 OFFCURVE",
"67 659 CURVE SMOOTH",
"67 634 OFFCURVE",
"89 613 OFFCURVE",
"117 613 CURVE SMOOTH",
"151 613 OFFCURVE",
"179 640 OFFCURVE",
"179 670 CURVE SMOOTH"
);
}
);
width = 254;
}
);
unicode = 0069;
},
{
glyphname = j;
layers = (
{
layerId = "6252BF4E-2FA9-4219-B920-178DA9EE1F12";
paths = (
{
closed = 1;
nodes = (
"253 749 OFFCURVE",
"214 784 OFFCURVE",
"164 784 CURVE SMOOTH",
"116 784 OFFCURVE",
"53 745 OFFCURVE",
"53 679 CURVE SMOOTH",
"53 634 OFFCURVE",
"90 596 OFFCURVE",
"143 596 CURVE SMOOTH",
"204 596 OFFCURVE",
"253 647 OFFCURVE",
"253 702 CURVE SMOOTH"
);
},
{
closed = 1;
nodes = (
"235 415 LINE SMOOTH",
"235 496 OFFCURVE",
"204 534 OFFCURVE",
"136 534 CURVE SMOOTH",
"96 534 OFFCURVE",
"66 516 OFFCURVE",
"44 492 CURVE",
"67 479 OFFCURVE",
"78 456 OFFCURVE",
"78 421 CURVE SMOOTH",
"78 -64 LINE SMOOTH",
"78 -142 OFFCURVE",
"59 -178 OFFCURVE",
"-28 -178 CURVE",
"-14 -224 OFFCURVE",
"17 -268 OFFCURVE",
"94 -268 CURVE SMOOTH",
"170 -268 OFFCURVE",
"235 -218 OFFCURVE",
"235 -90 CURVE SMOOTH"
);
}
);
width = 304;
},
{
layerId = "F2B2A884-D9B7-4604-B025-F8D4318BA1DA";
paths = (
{
closed = 1;
nodes = (
"179 698 OFFCURVE",
"157 716 OFFCURVE",
"130 716 CURVE SMOOTH",
"103 716 OFFCURVE",
"67 696 OFFCURVE",
"67 659 CURVE SMOOTH",
"67 634 OFFCURVE",
"89 613 OFFCURVE",
"117 613 CURVE SMOOTH",
"151 613 OFFCURVE",
"179 640 OFFCURVE",
"179 670 CURVE SMOOTH"
);
},
{
closed = 1;
nodes = (
"159 455 LINE",
"159 492 OFFCURVE",
"144 512 OFFCURVE",
"114 512 CURVE SMOOTH",
"96 512 OFFCURVE",
"80 498 OFFCURVE",
"73 483 CURVE",
"87 478 OFFCURVE",
"96 470 OFFCURVE",
"96 452 CURVE",
"96 -120 LINE SMOOTH",
"96 -178 OFFCURVE",
"76 -202 OFFCURVE",
"18 -202 CURVE",
"34 -230 OFFCURVE",
"59 -243 OFFCURVE",
"83 -243 CURVE SMOOTH",
"124 -243 OFFCURVE",
"159 -209 OFFCURVE",
"159 -137 CURVE"
);
}
);
width = 255;
}
);
unicode = 006A;
},
{
glyphname = k;
layers = (
{
anchors = (
{
name = bottom;
position = "{319, 0}";
}
);
layerId = "6252BF4E-2FA9-4219-B920-178DA9EE1F12";
paths = (
{
closed = 1;
nodes = (
"235 665 LINE SMOOTH",
"235 745 OFFCURVE",
"204 784 OFFCURVE",
"136 784 CURVE SMOOTH",
"96 784 OFFCURVE",
"66 766 OFFCURVE",
"44 742 CURVE",
"67 728 OFFCURVE",
"78 706 OFFCURVE",
"78 671 CURVE SMOOTH",
"78 108 LINE SMOOTH",
"78 28 OFFCURVE",
"108 -11 OFFCURVE",
"176 -11 CURVE SMOOTH",
"217 -11 OFFCURVE",
"246 7 OFFCURVE",
"268 32 CURVE",
"245 44 OFFCURVE",
"235 67 OFFCURVE",
"235 103 CURVE SMOOTH"
);
},
{
closed = 1;
nodes = (
"221 300 LINE",
"332 66 OFFCURVE",
"397 -11 OFFCURVE",
"482 -11 CURVE SMOOTH",
"550 -11 OFFCURVE",
"593 38 OFFCURVE",
"593 122 CURVE",
"514 122 OFFCURVE",
"472 139 OFFCURVE",
"300 319 CURVE",
"296 280 LINE",
"428 275 OFFCURVE",
"570 345 OFFCURVE",
"570 431 CURVE SMOOTH",
"570 494 OFFCURVE",
"511 534 OFFCURVE",
"421 534 CURVE",
"421 436 OFFCURVE",
"396 376 OFFCURVE",
"221 330 CURVE"
);
}
);
width = 637;
},
{
anchors = (
{
name = bottom;
position = "{275, 0}";
}
);
layerId = "F2B2A884-D9B7-4604-B025-F8D4318BA1DA";
paths = (
{
closed = 1;
nodes = (
"159 698 LINE SMOOTH",
"159 735 OFFCURVE",
"144 754 OFFCURVE",
"114 754 CURVE SMOOTH",
"96 754 OFFCURVE",
"80 742 OFFCURVE",
"73 726 CURVE",
"87 720 OFFCURVE",
"96 714 OFFCURVE",
"96 694 CURVE SMOOTH",
"96 49 LINE SMOOTH",
"96 12 OFFCURVE",
"110 -8 OFFCURVE",
"140 -8 CURVE SMOOTH",
"158 -8 OFFCURVE",
"173 5 OFFCURVE",
"182 21 CURVE",
"167 26 OFFCURVE",
"159 33 OFFCURVE",
"159 51 CURVE SMOOTH"
);
},
{
closed = 1;
nodes = (
"155 270 LINE",
"339 46 OFFCURVE",
"378 -8 OFFCURVE",
"441 -8 CURVE SMOOTH",
"475 -8 OFFCURVE",
"490 24 OFFCURVE",
"490 52 CURVE",
"433 52 OFFCURVE",
"386 68 OFFCURVE",
"206 290 CURVE",
"198 275 LINE",
"372 314 OFFCURVE",
"479 377 OFFCURVE",
"479 453 CURVE SMOOTH",
"479 493 OFFCURVE",
"448 512 OFFCURVE",
"415 512 CURVE",
"415 427 OFFCURVE",
"364 366 OFFCURVE",
"155 298 CURVE"
);
}
);
width = 540;
}
);
unicode = 006B;
},
{
glyphname = l;
layers = (
{
anchors = (
{
name = bottom;
position = "{156, 0}";
},
{
name = top;
position = "{186, 771}";
},
{
name = topright;
position = "{292, 700}";
}
);
layerId = "6252BF4E-2FA9-4219-B920-178DA9EE1F12";
paths = (
{
closed = 1;
nodes = (
"235 665 LINE SMOOTH",
"235 745 OFFCURVE",
"204 784 OFFCURVE",
"136 784 CURVE SMOOTH",
"96 784 OFFCURVE",
"66 766 OFFCURVE",
"44 742 CURVE",
"67 728 OFFCURVE",
"78 706 OFFCURVE",
"78 671 CURVE SMOOTH",
"78 108 LINE SMOOTH",
"78 28 OFFCURVE",
"108 -11 OFFCURVE",
"176 -11 CURVE SMOOTH",
"217 -11 OFFCURVE",
"246 7 OFFCURVE",
"268 32 CURVE",
"245 44 OFFCURVE",
"235 67 OFFCURVE",
"235 103 CURVE SMOOTH"
);
}
);
width = 312;
},
{
anchors = (
{
name = bottom;
position = "{138, 0}";
},
{
name = top;
position = "{127, 734}";
},
{
name = topright;
position = "{214, 700}";
}
);
layerId = "F2B2A884-D9B7-4604-B025-F8D4318BA1DA";
paths = (
{
closed = 1;
nodes = (
"159 698 LINE SMOOTH",
"159 735 OFFCURVE",
"144 754 OFFCURVE",
"114 754 CURVE SMOOTH",
"96 754 OFFCURVE",
"80 742 OFFCURVE",
"73 726 CURVE",
"87 720 OFFCURVE",
"96 714 OFFCURVE",
"96 694 CURVE SMOOTH",
"96 49 LINE SMOOTH",
"96 12 OFFCURVE",
"110 -8 OFFCURVE",
"140 -8 CURVE SMOOTH",
"158 -8 OFFCURVE",
"173 5 OFFCURVE",
"182 21 CURVE",
"167 26 OFFCURVE",
"159 33 OFFCURVE",
"159 51 CURVE"
);
}
);
width = 254;
}
);
unicode = 006C;
},
{
glyphname = m;
layers = (
{
layerId = "6252BF4E-2FA9-4219-B920-178DA9EE1F12";
paths = (
{
closed = 1;
nodes = (
"235 415 LINE SMOOTH",
"235 496 OFFCURVE",
"204 534 OFFCURVE",
"136 534 CURVE SMOOTH",
"96 534 OFFCURVE",
"66 516 OFFCURVE",
"44 491 CURVE",
"67 479 OFFCURVE",
"78 456 OFFCURVE",
"78 421 CURVE SMOOTH",
"78 108 LINE SMOOTH",
"78 28 OFFCURVE",
"108 -11 OFFCURVE",
"176 -11 CURVE SMOOTH",
"217 -11 OFFCURVE",
"246 7 OFFCURVE",
"268 32 CURVE",
"245 44 OFFCURVE",
"235 67 OFFCURVE",
"235 103 CURVE SMOOTH"
);
},
{
closed = 1;
nodes = (
"564 354 LINE SMOOTH",
"564 475 OFFCURVE",
"502 534 OFFCURVE",
"414 534 CURVE SMOOTH",
"326 534 OFFCURVE",
"246 485 OFFCURVE",
"217 386 CURVE",
"232 275 LINE",
"247 370 OFFCURVE",
"299 408 OFFCURVE",
"341 408 CURVE SMOOTH",
"383 408 OFFCURVE",
"407 379 OFFCURVE",
"407 331 CURVE SMOOTH",
"407 108 LINE SMOOTH",
"407 28 OFFCURVE",
"437 -11 OFFCURVE",
"505 -11 CURVE SMOOTH",
"546 -11 OFFCURVE",
"575 7 OFFCURVE",
"596 32 CURVE",
"574 44 OFFCURVE",
"564 67 OFFCURVE",
"564 103 CURVE SMOOTH"
);
},
{
closed = 1;
nodes = (
"893 354 LINE SMOOTH",
"893 475 OFFCURVE",
"830 534 OFFCURVE",
"743 534 CURVE SMOOTH",
"655 534 OFFCURVE",
"575 485 OFFCURVE",
"546 386 CURVE",
"560 275 LINE",
"576 370 OFFCURVE",
"628 408 OFFCURVE",
"670 408 CURVE SMOOTH",
"712 408 OFFCURVE",
"736 379 OFFCURVE",
"736 331 CURVE SMOOTH",
"736 108 LINE SMOOTH",
"736 28 OFFCURVE",
"766 -11 OFFCURVE",
"834 -11 CURVE SMOOTH",
"875 -11 OFFCURVE",
"904 7 OFFCURVE",
"925 32 CURVE",
"902 44 OFFCURVE",
"893 67 OFFCURVE",
"893 103 CURVE SMOOTH"
);
}
);
width = 965;
},
{
layerId = "F2B2A884-D9B7-4604-B025-F8D4318BA1DA";
paths = (
{
closed = 1;
nodes = (
"159 455 LINE SMOOTH",
"159 492 OFFCURVE",
"144 512 OFFCURVE",
"114 512 CURVE SMOOTH",
"96 512 OFFCURVE",
"80 498 OFFCURVE",
"73 483 CURVE",
"87 478 OFFCURVE",
"96 470 OFFCURVE",
"96 452 CURVE SMOOTH",
"96 49 LINE SMOOTH",
"96 12 OFFCURVE",
"110 -8 OFFCURVE",
"140 -8 CURVE SMOOTH",
"158 -8 OFFCURVE",
"173 5 OFFCURVE",
"182 21 CURVE",
"167 26 OFFCURVE",
"159 33 OFFCURVE",
"159 51 CURVE"
);
},
{
closed = 1;
nodes = (
"491 342 LINE SMOOTH",
"491 459 OFFCURVE",
"431 512 OFFCURVE",
"340 512 CURVE SMOOTH",
"250 512 OFFCURVE",
"180 442 OFFCURVE",
"152 370 CURVE",
"150 244 LINE",
"160 371 OFFCURVE",
"247 454 OFFCURVE",
"329 454 CURVE SMOOTH",
"403 454 OFFCURVE",
"428 409 OFFCURVE",
"428 341 CURVE SMOOTH",
"428 49 LINE SMOOTH",
"428 12 OFFCURVE",
"444 -8 OFFCURVE",
"472 -8 CURVE SMOOTH",
"491 -8 OFFCURVE",
"506 5 OFFCURVE",
"515 21 CURVE",
"499 26 OFFCURVE",
"491 33 OFFCURVE",
"491 51 CURVE SMOOTH"
);
},
{
closed = 1;
nodes = (
"824 342 LINE SMOOTH",
"824 459 OFFCURVE",
"763 512 OFFCURVE",
"673 512 CURVE SMOOTH",
"582 512 OFFCURVE",
"512 442 OFFCURVE",
"486 370 CURVE",
"483 244 LINE",
"492 371 OFFCURVE",
"580 454 OFFCURVE",
"661 454 CURVE SMOOTH",
"735 454 OFFCURVE",
"760 409 OFFCURVE",
"760 341 CURVE SMOOTH",
"760 49 LINE SMOOTH",
"760 12 OFFCURVE",
"776 -8 OFFCURVE",
"805 -8 CURVE SMOOTH",
"823 -8 OFFCURVE",
"839 5 OFFCURVE",
"847 21 CURVE",
"833 26 OFFCURVE",
"824 33 OFFCURVE",
"824 51 CURVE SMOOTH"
);
}
);
width = 918;
}
);
unicode = 006D;
},
{
glyphname = n;
layers = (
{
anchors = (
{
name = bottom;
position = "{337, 0}";
},
{
name = top;
position = "{325, 523}";
}
);
layerId = "6252BF4E-2FA9-4219-B920-178DA9EE1F12";
paths = (
{
closed = 1;
nodes = (
"235 415 LINE SMOOTH",
"235 496 OFFCURVE",
"204 534 OFFCURVE",
"136 534 CURVE SMOOTH",
"96 534 OFFCURVE",
"66 516 OFFCURVE",
"44 491 CURVE",
"67 479 OFFCURVE",
"78 456 OFFCURVE",
"78 421 CURVE SMOOTH",
"78 108 LINE SMOOTH",
"78 28 OFFCURVE",
"108 -11 OFFCURVE",
"176 -11 CURVE SMOOTH",
"217 -11 OFFCURVE",
"246 7 OFFCURVE",
"268 32 CURVE",
"245 44 OFFCURVE",
"235 67 OFFCURVE",
"235 103 CURVE SMOOTH"
);
},
{
closed = 1;
nodes = (
"564 354 LINE SMOOTH",
"564 475 OFFCURVE",
"502 534 OFFCURVE",
"414 534 CURVE SMOOTH",
"326 534 OFFCURVE",
"246 485 OFFCURVE",
"217 386 CURVE",
"232 275 LINE",
"247 370 OFFCURVE",
"299 408 OFFCURVE",
"341 408 CURVE SMOOTH",
"383 408 OFFCURVE",
"407 379 OFFCURVE",
"407 331 CURVE SMOOTH",
"407 108 LINE SMOOTH",
"407 28 OFFCURVE",
"437 -11 OFFCURVE",
"505 -11 CURVE SMOOTH",
"546 -11 OFFCURVE",
"575 7 OFFCURVE",
"596 32 CURVE",
"574 44 OFFCURVE",
"564 67 OFFCURVE",
"564 103 CURVE SMOOTH"
);
}
);
width = 636;
},
{
anchors = (
{
name = bottom;
position = "{309, 0}";
},
{
name = top;
position = "{291, 503}";
}
);
layerId = "F2B2A884-D9B7-4604-B025-F8D4318BA1DA";
paths = (
{
closed = 1;
nodes = (
"159 455 LINE SMOOTH",
"159 492 OFFCURVE",
"144 512 OFFCURVE",
"114 512 CURVE SMOOTH",
"96 512 OFFCURVE",
"80 498 OFFCURVE",
"73 483 CURVE",
"87 478 OFFCURVE",
"96 470 OFFCURVE",
"96 452 CURVE SMOOTH",
"96 49 LINE SMOOTH",
"96 12 OFFCURVE",
"110 -8 OFFCURVE",
"140 -8 CURVE SMOOTH",
"158 -8 OFFCURVE",
"173 5 OFFCURVE",
"182 21 CURVE",
"167 26 OFFCURVE",
"159 33 OFFCURVE",
"159 51 CURVE SMOOTH"
);
},
{
closed = 1;
nodes = (
"491 342 LINE SMOOTH",
"491 459 OFFCURVE",
"431 512 OFFCURVE",
"340 512 CURVE SMOOTH",
"250 512 OFFCURVE",
"180 442 OFFCURVE",
"152 370 CURVE",
"150 244 LINE",
"160 371 OFFCURVE",
"247 454 OFFCURVE",
"329 454 CURVE SMOOTH",
"403 454 OFFCURVE",
"428 409 OFFCURVE",
"428 341 CURVE SMOOTH",
"428 49 LINE SMOOTH",
"428 12 OFFCURVE",
"444 -8 OFFCURVE",
"472 -8 CURVE SMOOTH",
"491 -8 OFFCURVE",
"506 5 OFFCURVE",
"515 21 CURVE",
"499 26 OFFCURVE",
"491 33 OFFCURVE",
"491 51 CURVE SMOOTH"
);
}
);
width = 583;
}
);
unicode = 006E;
},
{
glyphname = o;
layers = (
{
anchors = (
{
name = top;
position = "{305, 523}";
}
);
layerId = "6252BF4E-2FA9-4219-B920-178DA9EE1F12";
paths = (
{
closed = 1;
nodes = (
"562 442 OFFCURVE",
"452 534 OFFCURVE",
"305 534 CURVE SMOOTH",
"157 534 OFFCURVE",
"48 442 OFFCURVE",
"48 262 CURVE SMOOTH",
"48 82 OFFCURVE",
"157 -11 OFFCURVE",
"305 -11 CURVE SMOOTH",
"452 -11 OFFCURVE",
"562 82 OFFCURVE",
"562 262 CURVE SMOOTH"
);
},
{
closed = 1;
nodes = (
"198 406 OFFCURVE",
"232 458 OFFCURVE",
"292 458 CURVE SMOOTH",
"352 458 OFFCURVE",
"392 406 OFFCURVE",
"402 262 CURVE SMOOTH",
"412 118 OFFCURVE",
"378 65 OFFCURVE",
"318 65 CURVE SMOOTH",
"258 65 OFFCURVE",
"217 118 OFFCURVE",
"208 262 CURVE SMOOTH"
);
}
);
width = 610;
},
{
anchors = (
{
name = top;
position = "{282, 503}";
}
);
layerId = "F2B2A884-D9B7-4604-B025-F8D4318BA1DA";
paths = (
{
closed = 1;
nodes = (
"516 424 OFFCURVE",
"401 512 OFFCURVE",
"284 512 CURVE SMOOTH",
"167 512 OFFCURVE",
"50 427 OFFCURVE",
"50 252 CURVE SMOOTH",
"50 78 OFFCURVE",
"167 -8 OFFCURVE",
"284 -8 CURVE SMOOTH",
"401 -8 OFFCURVE",
"516 78 OFFCURVE",
"516 252 CURVE SMOOTH"
);
},
{
closed = 1;
nodes = (
"116 402 OFFCURVE",
"184 461 OFFCURVE",
"277 461 CURVE SMOOTH",
"369 461 OFFCURVE",
"440 402 OFFCURVE",
"445 252 CURVE SMOOTH",
"450 103 OFFCURVE",
"384 42 OFFCURVE",
"291 42 CURVE SMOOTH",
"199 42 OFFCURVE",
"126 103 OFFCURVE",
"121 252 CURVE SMOOTH"
);
}
);
width = 565;
}
);
unicode = 006F;
},
{
glyphname = p;
layers = (
{
layerId = "6252BF4E-2FA9-4219-B920-178DA9EE1F12";
paths = (
{
closed = 1;
nodes = (
"586 442 OFFCURVE",
"490 534 OFFCURVE",
"377 534 CURVE SMOOTH",
"314 534 OFFCURVE",
"262 508 OFFCURVE",
"226 456 CURVE",
"227 343 LINE",
"245 396 OFFCURVE",
"286 427 OFFCURVE",
"326 427 CURVE SMOOTH",
"377 427 OFFCURVE",
"428 373 OFFCURVE",
"428 262 CURVE SMOOTH",
"428 150 OFFCURVE",
"377 80 OFFCURVE",
"326 80 CURVE SMOOTH",
"286 80 OFFCURVE",
"256 95 OFFCURVE",
"227 137 CURVE",
"220 35 LINE",
"258 4 OFFCURVE",
"304 -11 OFFCURVE",
"348 -11 CURVE SMOOTH",
"463 -11 OFFCURVE",
"586 82 OFFCURVE",
"586 262 CURVE SMOOTH"
);
},
{
closed = 1;
nodes = (
"235 415 LINE SMOOTH",
"235 496 OFFCURVE",
"204 534 OFFCURVE",
"136 534 CURVE SMOOTH",
"96 534 OFFCURVE",
"66 516 OFFCURVE",
"44 492 CURVE",
"67 479 OFFCURVE",
"78 456 OFFCURVE",
"78 421 CURVE SMOOTH",
"78 -149 LINE SMOOTH",
"78 -229 OFFCURVE",
"108 -268 OFFCURVE",
"176 -268 CURVE SMOOTH",
"217 -268 OFFCURVE",
"246 -250 OFFCURVE",
"268 -224 CURVE",
"245 -212 OFFCURVE",
"235 -190 OFFCURVE",
"235 -154 CURVE SMOOTH"
);
}
);
width = 613;
},
{
layerId = "F2B2A884-D9B7-4604-B025-F8D4318BA1DA";
paths = (
{
closed = 1;
nodes = (
"524 423 OFFCURVE",
"425 512 OFFCURVE",
"310 512 CURVE SMOOTH",
"233 512 OFFCURVE",
"187 475 OFFCURVE",
"145 416 CURVE",
"154 359 LINE",
"191 424 OFFCURVE",
"236 455 OFFCURVE",
"298 455 CURVE SMOOTH",
"395 455 OFFCURVE",
"457 380 OFFCURVE",
"457 252 CURVE SMOOTH",
"457 125 OFFCURVE",
"384 43 OFFCURVE",
"290 43 CURVE SMOOTH",
"232 43 OFFCURVE",
"192 59 OFFCURVE",
"154 111 CURVE",
"145 59 LINE",
"187 10 OFFCURVE",
"236 -7 OFFCURVE",
"300 -7 CURVE SMOOTH",
"411 -7 OFFCURVE",
"524 92 OFFCURVE",
"524 252 CURVE SMOOTH"
);
},
{
closed = 1;
nodes = (
"159 455 LINE SMOOTH",
"159 492 OFFCURVE",
"144 512 OFFCURVE",
"114 512 CURVE SMOOTH",
"96 512 OFFCURVE",
"80 498 OFFCURVE",
"73 483 CURVE",
"87 478 OFFCURVE",
"96 470 OFFCURVE",
"96 452 CURVE SMOOTH",
"96 -185 LINE SMOOTH",
"96 -222 OFFCURVE",
"110 -243 OFFCURVE",
"140 -243 CURVE SMOOTH",
"158 -243 OFFCURVE",
"173 -230 OFFCURVE",
"182 -214 CURVE",
"167 -209 OFFCURVE",
"159 -201 OFFCURVE",
"159 -183 CURVE SMOOTH"
);
}
);
width = 572;
}
);
unicode = 0070;
},
{
glyphname = q;
layers = (
{
layerId = "6252BF4E-2FA9-4219-B920-178DA9EE1F12";
paths = (
{
closed = 1;
nodes = (
"445 440 LINE",
"422 488 OFFCURVE",
"362 534 OFFCURVE",
"293 534 CURVE SMOOTH",
"122 534 OFFCURVE",
"30 389 OFFCURVE",
"30 244 CURVE SMOOTH",
"30 84 OFFCURVE",
"138 -11 OFFCURVE",
"253 -11 CURVE SMOOTH",
"325 -11 OFFCURVE",
"377 30 OFFCURVE",
"404 78 CURVE",
"379 148 LINE",
"364 112 OFFCURVE",
"326 88 OFFCURVE",
"287 88 CURVE SMOOTH",
"232 88 OFFCURVE",
"192 142 OFFCURVE",
"192 262 CURVE SMOOTH",
"192 382 OFFCURVE",
"241 448 OFFCURVE",
"300 448 CURVE SMOOTH",
"331 448 OFFCURVE",
"372 427 OFFCURVE",
"372 374 CURVE"
);
},
{
closed = 1;
nodes = (
"529 534 LINE",
"490 534 LINE SMOOTH",
"410 534 OFFCURVE",
"372 496 OFFCURVE",
"372 389 CURVE SMOOTH",
"372 -149 LINE SMOOTH",
"372 -229 OFFCURVE",
"402 -268 OFFCURVE",
"470 -268 CURVE SMOOTH",
"511 -268 OFFCURVE",
"540 -250 OFFCURVE",
"562 -224 CURVE",
"539 -212 OFFCURVE",
"529 -190 OFFCURVE",
"529 -154 CURVE SMOOTH"
);
}
);
width = 581;
},
{
layerId = "F2B2A884-D9B7-4604-B025-F8D4318BA1DA";
paths = (
{
closed = 1;
nodes = (
"416 416 LINE",
"396 470 OFFCURVE",
"348 512 OFFCURVE",
"274 512 CURVE SMOOTH",
"149 512 OFFCURVE",
"52 405 OFFCURVE",
"52 243 CURVE SMOOTH",
"52 81 OFFCURVE",
"155 -8 OFFCURVE",
"271 -8 CURVE SMOOTH",
"351 -8 OFFCURVE",
"389 29 OFFCURVE",
"426 80 CURVE",
"423 133 LINE",
"391 76 OFFCURVE",
"345 41 OFFCURVE",
"279 41 CURVE SMOOTH",
"192 41 OFFCURVE",
"119 106 OFFCURVE",
"119 243 CURVE SMOOTH",
"119 392 OFFCURVE",
"185 463 OFFCURVE",
"279 463 CURVE SMOOTH",
"357 463 OFFCURVE",
"409 407 OFFCURVE",
"409 320 CURVE"
);
},
{
closed = 1;
nodes = (
"473 512 LINE",
"455 512 LINE SMOOTH",
"428 512 OFFCURVE",
"409 491 OFFCURVE",
"409 452 CURVE",
"409 -185 LINE SMOOTH",
"409 -222 OFFCURVE",
"424 -243 OFFCURVE",
"454 -243 CURVE SMOOTH",
"471 -243 OFFCURVE",
"487 -230 OFFCURVE",
"496 -214 CURVE",
"481 -209 OFFCURVE",
"473 -201 OFFCURVE",
"473 -183 CURVE SMOOTH"
);
}
);
width = 561;
}
);
unicode = 0071;
},
{
glyphname = r;
layers = (
{
anchors = (
{
name = bottom;
position = "{168, 0}";
},
{
name = top;
position = "{247, 500}";
}
);
layerId = "6252BF4E-2FA9-4219-B920-178DA9EE1F12";
paths = (
{
closed = 1;
nodes = (
"235 415 LINE SMOOTH",
"235 496 OFFCURVE",
"204 534 OFFCURVE",
"136 534 CURVE SMOOTH",
"96 534 OFFCURVE",
"66 516 OFFCURVE",
"44 491 CURVE",
"67 479 OFFCURVE",
"78 456 OFFCURVE",
"78 421 CURVE SMOOTH",
"78 108 LINE SMOOTH",
"78 28 OFFCURVE",
"108 -11 OFFCURVE",
"176 -11 CURVE SMOOTH",
"217 -11 OFFCURVE",
"246 7 OFFCURVE",
"268 32 CURVE",
"245 44 OFFCURVE",
"235 67 OFFCURVE",
"235 103 CURVE SMOOTH"
);
},
{
closed = 1;
nodes = (
"475 496 OFFCURVE",
"427 534 OFFCURVE",
"367 534 CURVE SMOOTH",
"288 534 OFFCURVE",
"242 485 OFFCURVE",
"217 386 CURVE",
"232 311 LINE",
"244 383 OFFCURVE",
"276 408 OFFCURVE",
"308 408 CURVE SMOOTH",
"335 408 OFFCURVE",
"358 389 OFFCURVE",
"358 354 CURVE SMOOTH",
"358 347 OFFCURVE",
"356 340 OFFCURVE",
"354 331 CURVE",
"364 330 OFFCURVE",
"372 329 OFFCURVE",
"380 329 CURVE SMOOTH",
"446 329 OFFCURVE",
"475 371 OFFCURVE",
"475 430 CURVE SMOOTH"
);
}
);
width = 493;
},
{
anchors = (
{
name = bottom;
position = "{145, 0}";
},
{
name = top;
position = "{201, 500}";
}
);
layerId = "F2B2A884-D9B7-4604-B025-F8D4318BA1DA";
paths = (
{
closed = 1;
nodes = (
"159 455 LINE SMOOTH",
"159 492 OFFCURVE",
"144 512 OFFCURVE",
"114 512 CURVE SMOOTH",
"96 512 OFFCURVE",
"80 498 OFFCURVE",
"73 483 CURVE",
"87 478 OFFCURVE",
"96 470 OFFCURVE",
"96 452 CURVE SMOOTH",
"96 49 LINE SMOOTH",
"96 12 OFFCURVE",
"110 -8 OFFCURVE",
"140 -8 CURVE SMOOTH",
"158 -8 OFFCURVE",
"173 5 OFFCURVE",
"182 21 CURVE",
"167 26 OFFCURVE",
"159 33 OFFCURVE",
"159 51 CURVE SMOOTH"
);
},
{
closed = 1;
nodes = (
"397 472 OFFCURVE",
"369 512 OFFCURVE",
"300 512 CURVE SMOOTH",
"211 512 OFFCURVE",
"143 431 OFFCURVE",
"138 298 CURVE",
"153 275 LINE",
"165 419 OFFCURVE",
"235 465 OFFCURVE",
"279 465 CURVE SMOOTH",
"312 465 OFFCURVE",
"329 447 OFFCURVE",
"329 416 CURVE SMOOTH",
"329 408 OFFCURVE",
"329 399 OFFCURVE",
"327 389 CURVE",
"333 387 OFFCURVE",
"343 385 OFFCURVE",
"351 385 CURVE SMOOTH",
"371 385 OFFCURVE",
"397 400 OFFCURVE",
"397 438 CURVE SMOOTH"
);
}
);
width = 402;
}
);
unicode = 0072;
},
{
glyphname = s;
layers = (
{
anchors = (
{
name = bottom;
position = "{263, 0}";
},
{
name = top;
position = "{263, 523}";
}
);
layerId = "6252BF4E-2FA9-4219-B920-178DA9EE1F12";
paths = (
{
closed = 1;
nodes = (
"472 485 OFFCURVE",
"392 534 OFFCURVE",
"272 534 CURVE SMOOTH",
"160 534 OFFCURVE",
"61 462 OFFCURVE",
"61 374 CURVE SMOOTH",
"61 226 OFFCURVE",
"341 206 OFFCURVE",
"341 126 CURVE SMOOTH",
"341 95 OFFCURVE",
"312 73 OFFCURVE",
"259 73 CURVE SMOOTH",
"215 73 OFFCURVE",
"182 91 OFFCURVE",
"182 118 CURVE SMOOTH",
"182 133 OFFCURVE",
"187 148 OFFCURVE",
"199 158 CURVE",
"184 180 OFFCURVE",
"157 192 OFFCURVE",
"121 192 CURVE SMOOTH",
"77 192 OFFCURVE",
"34 162 OFFCURVE",
"36 113 CURVE SMOOTH",
"38 41 OFFCURVE",
"138 -11 OFFCURVE",
"260 -11 CURVE SMOOTH",
"391 -11 OFFCURVE",
"498 56 OFFCURVE",
"498 157 CURVE SMOOTH",
"498 308 OFFCURVE",
"218 319 OFFCURVE",
"218 406 CURVE SMOOTH",
"218 436 OFFCURVE",
"244 451 OFFCURVE",
"277 451 CURVE SMOOTH",
"317 451 OFFCURVE",
"337 430 OFFCURVE",
"338 404 CURVE",
"338 396 OFFCURVE",
"337 386 OFFCURVE",
"334 376 CURVE",
"355 360 OFFCURVE",
"380 352 OFFCURVE",
"404 352 CURVE SMOOTH",
"444 352 OFFCURVE",
"476 376 OFFCURVE",
"474 424 CURVE SMOOTH"
);
}
);
width = 526;
},
{
anchors = (
{
name = bottom;
position = "{251, 0}";
},
{
name = top;
position = "{249, 503}";
}
);
layerId = "F2B2A884-D9B7-4604-B025-F8D4318BA1DA";
paths = (
{
closed = 1;
nodes = (
"429 478 OFFCURVE",
"337 512 OFFCURVE",
"254 512 CURVE SMOOTH",
"151 512 OFFCURVE",
"79 455 OFFCURVE",
"79 377 CURVE SMOOTH",
"79 240 OFFCURVE",
"367 242 OFFCURVE",
"367 127 CURVE SMOOTH",
"367 75 OFFCURVE",
"318 39 OFFCURVE",
"243 39 CURVE SMOOTH",
"163 39 OFFCURVE",
"128 72 OFFCURVE",
"128 116 CURVE SMOOTH",
"128 132 OFFCURVE",
"133 145 OFFCURVE",
"141 158 CURVE",
"133 166 OFFCURVE",
"123 170 OFFCURVE",
"112 170 CURVE SMOOTH",
"87 170 OFFCURVE",
"60 151 OFFCURVE",
"60 108 CURVE SMOOTH",
"60 38 OFFCURVE",
"138 -8 OFFCURVE",
"240 -8 CURVE SMOOTH",
"364 -8 OFFCURVE",
"434 62 OFFCURVE",
"434 131 CURVE SMOOTH",
"434 272 OFFCURVE",
"142 293 OFFCURVE",
"142 386 CURVE SMOOTH",
"142 429 OFFCURVE",
"181 465 OFFCURVE",
"254 465 CURVE SMOOTH",
"324 465 OFFCURVE",
"354 431 OFFCURVE",
"353 402 CURVE",
"353 394 OFFCURVE",
"351 385 OFFCURVE",
"347 378 CURVE",
"355 373 OFFCURVE",
"367 370 OFFCURVE",
"378 370 CURVE SMOOTH",
"403 370 OFFCURVE",
"429 385 OFFCURVE",
"429 415 CURVE SMOOTH"
);
}
);
width = 496;
}
);
unicode = 0073;
},
{
glyphname = t;
layers = (
{
anchors = (
{
name = bottom;
position = "{241, 0}";
},
{
name = topright;
position = "{187, 750}";
}
);
layerId = "6252BF4E-2FA9-4219-B920-178DA9EE1F12";
paths = (
{
closed = 1;
nodes = (
"240 547 LINE SMOOTH",
"240 628 OFFCURVE",
"209 666 OFFCURVE",
"140 666 CURVE SMOOTH",
"101 666 OFFCURVE",
"71 648 OFFCURVE",
"49 623 CURVE",
"72 611 OFFCURVE",
"83 588 OFFCURVE",
"83 553 CURVE SMOOTH",
"83 139 LINE SMOOTH",
"83 34 OFFCURVE",
"154 -11 OFFCURVE",
"253 -11 CURVE SMOOTH",
"349 -11 OFFCURVE",
"422 49 OFFCURVE",
"422 101 CURVE SMOOTH",
"422 127 OFFCURVE",
"407 143 OFFCURVE",
"389 143 CURVE",
"362 114 OFFCURVE",
"324 94 OFFCURVE",
"289 94 CURVE SMOOTH",
"256 94 OFFCURVE",
"240 113 OFFCURVE",
"240 157 CURVE SMOOTH"
);
},
{
closed = 1;
nodes = (
"83 523 LINE SMOOTH",
"67 523 OFFCURVE",
"48 524 OFFCURVE",
"32 526 CURVE",
"19 517 OFFCURVE",
"11 500 OFFCURVE",
"11 481 CURVE SMOOTH",
"11 458 OFFCURVE",
"32 427 OFFCURVE",
"86 427 CURVE SMOOTH",
"248 427 LINE SMOOTH",
"370 427 OFFCURVE",
"398 469 OFFCURVE",
"398 503 CURVE SMOOTH",
"398 510 OFFCURVE",
"396 517 OFFCURVE",
"391 523 CURVE"
);
}
);
width = 434;
},
{
anchors = (
{
name = bottom;
position = "{218, 0}";
},
{
name = topright;
position = "{190, 700}";
}
);
layerId = "F2B2A884-D9B7-4604-B025-F8D4318BA1DA";
paths = (
{
closed = 1;
nodes = (
"159 600 LINE SMOOTH",
"159 637 OFFCURVE",
"143 657 OFFCURVE",
"114 657 CURVE SMOOTH",
"96 657 OFFCURVE",
"80 644 OFFCURVE",
"72 629 CURVE",
"86 623 OFFCURVE",
"95 616 OFFCURVE",
"95 597 CURVE SMOOTH",
"95 120 LINE SMOOTH",
"95 37 OFFCURVE",
"132 -8 OFFCURVE",
"211 -8 CURVE SMOOTH",
"300 -8 OFFCURVE",
"359 37 OFFCURVE",
"359 77 CURVE SMOOTH",
"359 91 OFFCURVE",
"351 98 OFFCURVE",
"346 102 CURVE",
"314 72 OFFCURVE",
"273 49 OFFCURVE",
"224 49 CURVE SMOOTH",
"177 49 OFFCURVE",
"159 69 OFFCURVE",
"159 119 CURVE SMOOTH"
);
},
{
closed = 1;
nodes = (
"76 503 LINE SMOOTH",
"48 503 OFFCURVE",
"34 506 OFFCURVE",
"21 508 CURVE",
"14 502 OFFCURVE",
"11 493 OFFCURVE",
"11 484 CURVE SMOOTH",
"11 467 OFFCURVE",
"28 450 OFFCURVE",
"97 448 CURVE",
"174 448 LINE SMOOTH",
"304 448 OFFCURVE",
"335 468 OFFCURVE",
"335 487 CURVE SMOOTH",
"335 495 OFFCURVE",
"334 498 OFFCURVE",
"331 503 CURVE"
);
}
);
width = 388;
}
);
unicode = 0074;
},
{
glyphname = u;
layers = (
{
anchors = (
{
name = ogonek;
position = "{572, 12}";
},
{
name = top;
position = "{318, 523}";
}
);
layerId = "6252BF4E-2FA9-4219-B920-178DA9EE1F12";
paths = (
{
closed = 1;
nodes = (
"564 415 LINE SMOOTH",
"564 496 OFFCURVE",
"533 534 OFFCURVE",
"464 534 CURVE SMOOTH",
"425 534 OFFCURVE",
"395 516 OFFCURVE",
"373 491 CURVE",
"396 479 OFFCURVE",
"407 456 OFFCURVE",
"407 421 CURVE SMOOTH",
"407 108 LINE SMOOTH",
"407 28 OFFCURVE",
"437 -11 OFFCURVE",
"505 -11 CURVE SMOOTH",
"546 -11 OFFCURVE",
"575 7 OFFCURVE",
"596 32 CURVE",
"574 44 OFFCURVE",
"564 67 OFFCURVE",
"564 103 CURVE SMOOTH"
);
},
{
closed = 1;
nodes = (
"235 415 LINE SMOOTH",
"235 496 OFFCURVE",
"204 534 OFFCURVE",
"136 534 CURVE SMOOTH",
"96 534 OFFCURVE",
"66 516 OFFCURVE",
"44 491 CURVE",
"67 479 OFFCURVE",
"78 456 OFFCURVE",
"78 421 CURVE SMOOTH",
"78 169 LINE SMOOTH",
"78 48 OFFCURVE",
"152 -11 OFFCURVE",
"264 -11 CURVE SMOOTH",
"352 -11 OFFCURVE",
"415 46 OFFCURVE",
"440 142 CURVE",
"410 193 LINE",
"392 134 OFFCURVE",
"359 108 OFFCURVE",
"313 108 CURVE SMOOTH",
"259 108 OFFCURVE",
"235 137 OFFCURVE",
"235 185 CURVE SMOOTH"
);
}
);
width = 636;
},
{
anchors = (
{
name = ogonek;
position = "{525, 12}";
},
{
name = top;
position = "{292, 503}";
}
);
layerId = "F2B2A884-D9B7-4604-B025-F8D4318BA1DA";
paths = (
{
closed = 1;
nodes = (
"491 455 LINE SMOOTH",
"491 492 OFFCURVE",
"476 512 OFFCURVE",
"448 512 CURVE SMOOTH",
"428 512 OFFCURVE",
"414 498 OFFCURVE",
"405 483 CURVE",
"420 478 OFFCURVE",
"428 470 OFFCURVE",
"428 452 CURVE SMOOTH",
"428 49 LINE SMOOTH",
"428 12 OFFCURVE",
"444 -8 OFFCURVE",
"472 -8 CURVE SMOOTH",
"491 -8 OFFCURVE",
"506 5 OFFCURVE",
"515 21 CURVE",
"499 26 OFFCURVE",
"491 33 OFFCURVE",
"491 51 CURVE SMOOTH"
);
},
{
closed = 1;
nodes = (
"159 455 LINE SMOOTH",
"159 492 OFFCURVE",
"144 512 OFFCURVE",
"114 512 CURVE SMOOTH",
"96 512 OFFCURVE",
"80 498 OFFCURVE",
"73 483 CURVE",
"87 478 OFFCURVE",
"96 470 OFFCURVE",
"96 452 CURVE SMOOTH",
"96 161 LINE SMOOTH",
"96 46 OFFCURVE",
"155 -8 OFFCURVE",
"260 -8 CURVE SMOOTH",
"349 -8 OFFCURVE",
"408 47 OFFCURVE",
"437 107 CURVE",
"436 193 LINE",
"411 103 OFFCURVE",
"346 50 OFFCURVE",
"270 50 CURVE SMOOTH",
"184 50 OFFCURVE",
"159 96 OFFCURVE",
"159 164 CURVE SMOOTH"
);
}
);
width = 583;
}
);
unicode = 0075;
},
{
glyphname = v;
layers = (
{
layerId = "6252BF4E-2FA9-4219-B920-178DA9EE1F12";
paths = (
{
closed = 1;
nodes = (
"214 421 LINE SMOOTH",
"193 501 OFFCURVE",
"163 534 OFFCURVE",
"98 534 CURVE SMOOTH",
"59 534 OFFCURVE",
"30 517 OFFCURVE",
"5 484 CURVE",
"25 471 OFFCURVE",
"37 436 OFFCURVE",
"51 394 CURVE SMOOTH",
"145 115 LINE SMOOTH",
"174 30 OFFCURVE",
"200 -11 OFFCURVE",
"276 -11 CURVE SMOOTH",
"380 -11 OFFCURVE",
"569 221 OFFCURVE",
"569 389 CURVE SMOOTH",
"569 492 OFFCURVE",
"525 534 OFFCURVE",
"473 534 CURVE SMOOTH",
"439 534 OFFCURVE",
"410 522 OFFCURVE",
"385 502 CURVE",
"451 422 OFFCURVE",
"382 178 OFFCURVE",
"280 101 CURVE",
"306 62 LINE"
);
}
);
width = 611;
},
{
layerId = "F2B2A884-D9B7-4604-B025-F8D4318BA1DA";
paths = (
{
closed = 1;
nodes = (
"115 454 LINE",
"104 493 OFFCURVE",
"82 512 OFFCURVE",
"55 512 CURVE SMOOTH",
"31 512 OFFCURVE",
"8 495 OFFCURVE",
"11 468 CURVE",
"35 470 OFFCURVE",
"47 458 OFFCURVE",
"51 441 CURVE",
"180 48 LINE SMOOTH",
"193 9 OFFCURVE",
"211 -8 OFFCURVE",
"241 -8 CURVE SMOOTH",
"296 -8 OFFCURVE",
"476 219 OFFCURVE",
"476 434 CURVE SMOOTH",
"476 489 OFFCURVE",
"453 512 OFFCURVE",
"430 512 CURVE SMOOTH",
"416 512 OFFCURVE",
"405 507 OFFCURVE",
"394 500 CURVE",
"442 330 OFFCURVE",
"330 146 OFFCURVE",
"233 23 CURVE",
"245 23 LINE"
);
}
);
width = 531;
}
);
unicode = 0076;
},
{
glyphname = w;
layers = (
{
layerId = "6252BF4E-2FA9-4219-B920-178DA9EE1F12";
paths = (
{
closed = 1;
nodes = (
"211 421 LINE SMOOTH",
"187 499 OFFCURVE",
"160 534 OFFCURVE",
"108 534 CURVE SMOOTH",
"61 534 OFFCURVE",
"30 515 OFFCURVE",
"5 476 CURVE",
"29 463 OFFCURVE",
"36 438 OFFCURVE",
"52 394 CURVE SMOOTH",
"155 115 LINE SMOOTH",
"186 31 OFFCURVE",
"212 -11 OFFCURVE",
"292 -11 CURVE SMOOTH",
"376 -11 OFFCURVE",
"455 138 OFFCURVE",
"495 336 CURVE",
"415 430 LINE",
"392 290 OFFCURVE",
"336 124 OFFCURVE",
"267 78 CURVE",
"334 14 LINE"
);
},
{
closed = 1;
nodes = (
"542 421 LINE SMOOTH",
"521 501 OFFCURVE",
"491 534 OFFCURVE",
"426 534 CURVE SMOOTH",
"387 534 OFFCURVE",
"358 517 OFFCURVE",
"333 484 CURVE",
"353 471 OFFCURVE",
"364 436 OFFCURVE",
"379 394 CURVE SMOOTH",
"475 115 LINE SMOOTH",
"504 30 OFFCURVE",
"530 -11 OFFCURVE",
"606 -11 CURVE SMOOTH",
"710 -11 OFFCURVE",
"857 221 OFFCURVE",
"857 389 CURVE SMOOTH",
"857 492 OFFCURVE",
"813 534 OFFCURVE",
"761 534 CURVE SMOOTH",
"738 534 OFFCURVE",
"694 528 OFFCURVE",
"673 513 CURVE",
"739 433 OFFCURVE",
"712 178 OFFCURVE",
"610 101 CURVE",
"636 62 LINE"
);
}
);
width = 899;
},
{
layerId = "F2B2A884-D9B7-4604-B025-F8D4318BA1DA";
paths = (
{
closed = 1;
nodes = (
"116 454 LINE SMOOTH",
"105 493 OFFCURVE",
"83 512 OFFCURVE",
"56 512 CURVE SMOOTH",
"32 512 OFFCURVE",
"9 495 OFFCURVE",
"12 468 CURVE",
"36 470 OFFCURVE",
"47 458 OFFCURVE",
"52 441 CURVE SMOOTH",
"175 48 LINE SMOOTH",
"187 11 OFFCURVE",
"204 -8 OFFCURVE",
"233 -8 CURVE SMOOTH",
"317 -8 OFFCURVE",
"431 249 OFFCURVE",
"442 396 CURVE",
"402 439 LINE",
"374 257 OFFCURVE",
"312 119 OFFCURVE",
"232 22 CURVE",
"241 22 LINE"
);
},
{
closed = 1;
nodes = (
"439 454 LINE",
"428 493 OFFCURVE",
"406 512 OFFCURVE",
"379 512 CURVE SMOOTH",
"355 512 OFFCURVE",
"332 495 OFFCURVE",
"335 468 CURVE",
"359 470 OFFCURVE",
"371 458 OFFCURVE",
"375 441 CURVE",
"504 48 LINE SMOOTH",
"517 9 OFFCURVE",
"535 -8 OFFCURVE",
"565 -8 CURVE SMOOTH",
"620 -8 OFFCURVE",
"770 219 OFFCURVE",
"770 434 CURVE SMOOTH",
"770 489 OFFCURVE",
"747 512 OFFCURVE",
"724 512 CURVE SMOOTH",
"710 512 OFFCURVE",
"699 507 OFFCURVE",
"688 500 CURVE",
"736 330 OFFCURVE",
"654 146 OFFCURVE",
"557 23 CURVE",
"569 23 LINE"
);
}
);
width = 805;
}
);
unicode = 0077;
},
{
glyphname = x;
layers = (
{
layerId = "6252BF4E-2FA9-4219-B920-178DA9EE1F12";
paths = (
{
closed = 1;
nodes = (
"233 288 LINE",
"88 102 LINE SMOOTH",
"68 77 OFFCURVE",
"60 68 OFFCURVE",
"30 67 CURVE",
"37 14 OFFCURVE",
"79 -11 OFFCURVE",
"121 -11 CURVE SMOOTH",
"175 -11 OFFCURVE",
"207 7 OFFCURVE",
"280 190 CURVE SMOOTH",
"302 247 LINE"
);
},
{
closed = 1;
nodes = (
"234 466 LINE SMOOTH",
"202 510 OFFCURVE",
"167 534 OFFCURVE",
"119 534 CURVE SMOOTH",
"73 534 OFFCURVE",
"30 509 OFFCURVE",
"30 456 CURVE",
"48 456 OFFCURVE",
"60 448 OFFCURVE",
"71 432 CURVE SMOOTH",
"344 57 LINE SMOOTH",
"376 13 OFFCURVE",
"411 -11 OFFCURVE",
"459 -11 CURVE SMOOTH",
"505 -11 OFFCURVE",
"548 14 OFFCURVE",
"548 67 CURVE",
"530 67 OFFCURVE",
"517 75 OFFCURVE",
"506 91 CURVE SMOOTH"
);
},
{
closed = 1;
nodes = (
"345 235 LINE",
"490 421 LINE SMOOTH",
"510 446 OFFCURVE",
"518 455 OFFCURVE",
"548 456 CURVE",
"541 509 OFFCURVE",
"499 534 OFFCURVE",
"457 534 CURVE SMOOTH",
"403 534 OFFCURVE",
"371 516 OFFCURVE",
"298 333 CURVE SMOOTH",
"276 276 LINE"
);
}
);
width = 579;
},
{
layerId = "F2B2A884-D9B7-4604-B025-F8D4318BA1DA";
paths = (
{
closed = 1;
nodes = (
"225 253 LINE",
"84 68 LINE SMOOTH",
"66 45 OFFCURVE",
"53 36 OFFCURVE",
"35 36 CURVE",
"35 8 OFFCURVE",
"55 -7 OFFCURVE",
"80 -7 CURVE SMOOTH",
"103 -7 OFFCURVE",
"117 4 OFFCURVE",
"139 40 CURVE SMOOTH",
"253 228 LINE"
);
},
{
closed = 1;
nodes = (
"120 483 LINE SMOOTH",
"105 503 OFFCURVE",
"91 512 OFFCURVE",
"72 512 CURVE SMOOTH",
"50 512 OFFCURVE",
"35 496 OFFCURVE",
"35 469 CURVE",
"48 469 OFFCURVE",
"54 466 OFFCURVE",
"66 449 CURVE SMOOTH",
"376 22 LINE SMOOTH",
"391 2 OFFCURVE",
"406 -7 OFFCURVE",
"425 -7 CURVE SMOOTH",
"447 -7 OFFCURVE",
"462 9 OFFCURVE",
"462 36 CURVE",
"449 36 OFFCURVE",
"443 39 OFFCURVE",
"431 56 CURVE SMOOTH"
);
},
{
closed = 1;
nodes = (
"272 252 LINE",
"413 437 LINE SMOOTH",
"431 460 OFFCURVE",
"444 469 OFFCURVE",
"462 469 CURVE",
"462 497 OFFCURVE",
"442 512 OFFCURVE",
"417 512 CURVE SMOOTH",
"394 512 OFFCURVE",
"380 501 OFFCURVE",
"358 465 CURVE SMOOTH",
"244 277 LINE"
);
}
);
width = 497;
}
);
unicode = 0078;
},
{
glyphname = y;
layers = (
{
anchors = (
{
name = top;
position = "{293, 523}";
}
);
layerId = "6252BF4E-2FA9-4219-B920-178DA9EE1F12";
paths = (
{
closed = 1;
nodes = (
"572 385 LINE SMOOTH",
"608 482 OFFCURVE",
"559 534 OFFCURVE",
"493 534 CURVE SMOOTH",
"470 534 OFFCURVE",
"445 527 OFFCURVE",
"428 516 CURVE",
"443 492 OFFCURVE",
"442 463 OFFCURVE",
"428 422 CURVE SMOOTH",
"256 -86 LINE SMOOTH",
"243 -124 OFFCURVE",
"214 -142 OFFCURVE",
"185 -142 CURVE SMOOTH",
"166 -142 OFFCURVE",
"147 -133 OFFCURVE",
"131 -120 CURVE",
"121 -136 OFFCURVE",
"113 -156 OFFCURVE",
"113 -178 CURVE SMOOTH",
"113 -232 OFFCURVE",
"159 -268 OFFCURVE",
"223 -268 CURVE SMOOTH",
"292 -268 OFFCURVE",
"345 -230 OFFCURVE",
"381 -132 CURVE SMOOTH"
);
},
{
closed = 1;
nodes = (
"221 421 LINE SMOOTH",
"201 498 OFFCURVE",
"169 534 OFFCURVE",
"111 534 CURVE SMOOTH",
"73 534 OFFCURVE",
"43 518 OFFCURVE",
"15 491 CURVE",
"38 473 OFFCURVE",
"46 450 OFFCURVE",
"59 408 CURVE SMOOTH",
"154 104 LINE SMOOTH",
"184 8 OFFCURVE",
"260 -38 OFFCURVE",
"334 8 CURVE"
);
}
);
width = 625;
},
{
anchors = (
{
name = top;
position = "{264, 503}";
}
);
layerId = "F2B2A884-D9B7-4604-B025-F8D4318BA1DA";
paths = (
{
closed = 1;
nodes = (
"475 428 LINE SMOOTH",
"497 481 OFFCURVE",
"468 512 OFFCURVE",
"440 512 CURVE SMOOTH",
"424 512 OFFCURVE",
"411 507 OFFCURVE",
"399 498 CURVE",
"412 484 OFFCURVE",
"419 464 OFFCURVE",
"407 432 CURVE SMOOTH",
"201 -124 LINE SMOOTH",
"186 -164 OFFCURVE",
"167 -179 OFFCURVE",
"142 -179 CURVE SMOOTH",
"122 -179 OFFCURVE",
"106 -174 OFFCURVE",
"95 -160 CURVE",
"87 -169 OFFCURVE",
"82 -179 OFFCURVE",
"82 -191 CURVE SMOOTH",
"82 -215 OFFCURVE",
"100 -243 OFFCURVE",
"145 -243 CURVE SMOOTH",
"190 -243 OFFCURVE",
"224 -217 OFFCURVE",
"250 -150 CURVE SMOOTH"
);
},
{
closed = 1;
nodes = (
"113 460 LINE SMOOTH",
"101 496 OFFCURVE",
"85 512 OFFCURVE",
"61 512 CURVE SMOOTH",
"42 512 OFFCURVE",
"27 504 OFFCURVE",
"20 490 CURVE",
"36 483 OFFCURVE",
"43 468 OFFCURVE",
"48 452 CURVE",
"197 27 LINE SMOOTH",
"208 -5 OFFCURVE",
"241 -18 OFFCURVE",
"273 -1 CURVE"
);
}
);
width = 535;
}
);
unicode = 0079;
},
{
glyphname = z;
layers = (
{
anchors = (
{
name = top;
position = "{251, 523}";
}
);
layerId = "6252BF4E-2FA9-4219-B920-178DA9EE1F12";
paths = (
{
closed = 1;
nodes = (
"157 523 LINE SMOOTH",
"121 523 OFFCURVE",
"87 526 OFFCURVE",
"61 530 CURVE",
"50 516 OFFCURVE",
"44 496 OFFCURVE",
"44 476 CURVE SMOOTH",
"44 437 OFFCURVE",
"73 396 OFFCURVE",
"160 396 CURVE SMOOTH",
"208 396 OFFCURVE",
"289 402 OFFCURVE",
"348 414 CURVE",
"348 428 LINE",
"109 249 LINE SMOOTH",
"51 206 OFFCURVE",
"32 175 OFFCURVE",
"32 133 CURVE SMOOTH",
"32 43 OFFCURVE",
"133 -11 OFFCURVE",
"270 -11 CURVE SMOOTH",
"439 -11 OFFCURVE",
"478 65 OFFCURVE",
"478 108 CURVE SMOOTH",
"478 146 OFFCURVE",
"459 179 OFFCURVE",
"421 195 CURVE",
"403 149 OFFCURVE",
"359 121 OFFCURVE",
"292 121 CURVE SMOOTH",
"225 121 OFFCURVE",
"175 130 OFFCURVE",
"122 159 CURVE",
"82 88 LINE",
"412 320 LINE SMOOTH",
"453 349 OFFCURVE",
"464 379 OFFCURVE",
"464 416 CURVE SMOOTH",
"464 475 OFFCURVE",
"421 523 OFFCURVE",
"331 523 CURVE SMOOTH"
);
}
);
width = 500;
},
{
anchors = (
{
name = top;
position = "{254, 503}";
}
);
layerId = "F2B2A884-D9B7-4604-B025-F8D4318BA1DA";
paths = (
{
closed = 1;
nodes = (
"196 503 LINE SMOOTH",
"149 503 OFFCURVE",
"118 508 OFFCURVE",
"94 519 CURVE",
"85 512 OFFCURVE",
"78 503 OFFCURVE",
"78 491 CURVE SMOOTH",
"78 459 OFFCURVE",
"118 438 OFFCURVE",
"197 438 CURVE SMOOTH",
"269 438 OFFCURVE",
"340 453 OFFCURVE",
"442 465 CURVE",
"410 476 LINE",
"108 174 LINE SMOOTH",
"80 146 OFFCURVE",
"71 126 OFFCURVE",
"71 105 CURVE SMOOTH",
"71 48 OFFCURVE",
"181 -8 OFFCURVE",
"298 -8 CURVE SMOOTH",
"405 -8 OFFCURVE",
"455 36 OFFCURVE",
"455 74 CURVE SMOOTH",
"455 91 OFFCURVE",
"449 103 OFFCURVE",
"438 111 CURVE",
"405 75 OFFCURVE",
"358 53 OFFCURVE",
"297 53 CURVE SMOOTH",
"221 53 OFFCURVE",
"159 68 OFFCURVE",
"110 97 CURVE",
"110 84 LINE",
"426 403 LINE SMOOTH",
"449 427 OFFCURVE",
"454 446 OFFCURVE",
"454 459 CURVE SMOOTH",
"454 483 OFFCURVE",
"435 503 OFFCURVE",
"404 503 CURVE SMOOTH"
);
}
);
width = 509;
}
);
unicode = 007A;
},
{
glyphname = braceleft;
layers = (
{
layerId = "6252BF4E-2FA9-4219-B920-178DA9EE1F12";
paths = (
{
closed = 1;
nodes = (
"419 1085 OFFCURVE",
"366 1098 OFFCURVE",
"338 1098 CURVE SMOOTH",
"257 1098 OFFCURVE",
"175 1037 OFFCURVE",
"175 896 CURVE SMOOTH",
"175 790 OFFCURVE",
"205 680 OFFCURVE",
"205 593 CURVE SMOOTH",
"205 470 OFFCURVE",
"120 472 OFFCURVE",
"120 433 CURVE SMOOTH",
"120 395 OFFCURVE",
"205 396 OFFCURVE",
"205 274 CURVE SMOOTH",
"205 186 OFFCURVE",
"175 77 OFFCURVE",
"175 -30 CURVE SMOOTH",
"175 -170 OFFCURVE",
"257 -232 OFFCURVE",
"338 -232 CURVE SMOOTH",
"366 -232 OFFCURVE",
"419 -218 OFFCURVE",
"436 -192 CURVE",
"371 -176 OFFCURVE",
"328 -126 OFFCURVE",
"328 -47 CURVE SMOOTH",
"328 24 OFFCURVE",
"355 182 OFFCURVE",
"355 257 CURVE SMOOTH",
"355 392 OFFCURVE",
"256 432 OFFCURVE",
"238 433 CURVE",
"256 434 OFFCURVE",
"355 474 OFFCURVE",
"355 610 CURVE SMOOTH",
"355 684 OFFCURVE",
"328 842 OFFCURVE",
"328 913 CURVE SMOOTH",
"328 992 OFFCURVE",
"371 1043 OFFCURVE",
"436 1058 CURVE"
);
}
);
width = 588;
},
{
layerId = "F2B2A884-D9B7-4604-B025-F8D4318BA1DA";
paths = (
{
closed = 1;
nodes = (
"267 797 OFFCURVE",
"254 805 OFFCURVE",
"231 805 CURVE SMOOTH",
"180 805 OFFCURVE",
"104 759 OFFCURVE",
"104 625 CURVE SMOOTH",
"104 579 OFFCURVE",
"118 484 OFFCURVE",
"118 417 CURVE SMOOTH",
"118 318 OFFCURVE",
"54 314 OFFCURVE",
"54 293 CURVE SMOOTH",
"54 272 OFFCURVE",
"118 266 OFFCURVE",
"118 168 CURVE SMOOTH",
"118 98 OFFCURVE",
"104 -2 OFFCURVE",
"104 -55 CURVE SMOOTH",
"104 -187 OFFCURVE",
"180 -234 OFFCURVE",
"231 -234 CURVE SMOOTH",
"254 -234 OFFCURVE",
"267 -227 OFFCURVE",
"279 -214 CURVE",
"216 -209 OFFCURVE",
"166 -167 OFFCURVE",
"166 -87 CURVE SMOOTH",
"166 -27 OFFCURVE",
"181 116 OFFCURVE",
"181 177 CURVE SMOOTH",
"181 257 OFFCURVE",
"106 289 OFFCURVE",
"102 292 CURVE",
"104 293 OFFCURVE",
"181 327 OFFCURVE",
"181 409 CURVE SMOOTH",
"181 467 OFFCURVE",
"166 601 OFFCURVE",
"166 657 CURVE SMOOTH",
"166 738 OFFCURVE",
"216 781 OFFCURVE",
"279 785 CURVE"
);
}
);
width = 330;
}
);
unicode = 007B;
},
{
glyphname = bar;
layers = (
{
layerId = "6252BF4E-2FA9-4219-B920-178DA9EE1F12";
paths = (
{
closed = 1;
nodes = (
"268 868 LINE SMOOTH",
"268 948 OFFCURVE",
"236 986 OFFCURVE",
"168 986 CURVE SMOOTH",
"128 986 OFFCURVE",
"98 968 OFFCURVE",
"77 943 CURVE",
"100 931 OFFCURVE",
"110 908 OFFCURVE",
"110 874 CURVE SMOOTH",
"110 -108 LINE SMOOTH",
"110 -188 OFFCURVE",
"140 -227 OFFCURVE",
"209 -227 CURVE SMOOTH",
"250 -227 OFFCURVE",
"278 -209 OFFCURVE",
"300 -184 CURVE",
"277 -172 OFFCURVE",
"268 -149 OFFCURVE",
"268 -113 CURVE SMOOTH"
);
}
);
width = 377;
},
{
layerId = "F2B2A884-D9B7-4604-B025-F8D4318BA1DA";
paths = (
{
closed = 1;
nodes = (
"156 811 LINE SMOOTH",
"156 848 OFFCURVE",
"140 867 OFFCURVE",
"111 867 CURVE SMOOTH",
"93 867 OFFCURVE",
"77 855 OFFCURVE",
"69 839 CURVE",
"84 833 OFFCURVE",
"92 827 OFFCURVE",
"92 808 CURVE SMOOTH",
"92 -101 LINE SMOOTH",
"92 -139 OFFCURVE",
"107 -158 OFFCURVE",
"136 -158 CURVE SMOOTH",
"154 -158 OFFCURVE",
"170 -145 OFFCURVE",
"179 -129 CURVE",
"164 -124 OFFCURVE",
"156 -117 OFFCURVE",
"156 -99 CURVE"
);
}
);
width = 253;
}
);
unicode = 007C;
},
{
glyphname = braceright;
layers = (
{
layerId = "6252BF4E-2FA9-4219-B920-178DA9EE1F12";
paths = (
{
closed = 1;
nodes = (
"380 1037 OFFCURVE",
"299 1098 OFFCURVE",
"217 1098 CURVE SMOOTH",
"190 1098 OFFCURVE",
"137 1085 OFFCURVE",
"120 1058 CURVE",
"185 1043 OFFCURVE",
"228 992 OFFCURVE",
"228 913 CURVE SMOOTH",
"228 842 OFFCURVE",
"200 684 OFFCURVE",
"200 610 CURVE SMOOTH",
"200 474 OFFCURVE",
"300 434 OFFCURVE",
"318 433 CURVE",
"300 432 OFFCURVE",
"200 392 OFFCURVE",
"200 257 CURVE SMOOTH",
"200 182 OFFCURVE",
"228 24 OFFCURVE",
"228 -47 CURVE SMOOTH",
"228 -126 OFFCURVE",
"185 -176 OFFCURVE",
"120 -192 CURVE",
"137 -218 OFFCURVE",
"190 -232 OFFCURVE",
"217 -232 CURVE SMOOTH",
"299 -232 OFFCURVE",
"380 -170 OFFCURVE",
"380 -30 CURVE SMOOTH",
"380 77 OFFCURVE",
"350 186 OFFCURVE",
"350 274 CURVE SMOOTH",
"350 396 OFFCURVE",
"436 395 OFFCURVE",
"436 433 CURVE SMOOTH",
"436 472 OFFCURVE",
"350 470 OFFCURVE",
"350 593 CURVE SMOOTH",
"350 680 OFFCURVE",
"380 790 OFFCURVE",
"380 896 CURVE SMOOTH"
);
}
);
width = 588;
},
{
layerId = "F2B2A884-D9B7-4604-B025-F8D4318BA1DA";
paths = (
{
closed = 1;
nodes = (
"228 759 OFFCURVE",
"153 805 OFFCURVE",
"102 805 CURVE SMOOTH",
"79 805 OFFCURVE",
"66 797 OFFCURVE",
"54 785 CURVE",
"116 781 OFFCURVE",
"166 738 OFFCURVE",
"166 657 CURVE SMOOTH",
"166 601 OFFCURVE",
"152 467 OFFCURVE",
"152 409 CURVE SMOOTH",
"152 327 OFFCURVE",
"229 293 OFFCURVE",
"231 292 CURVE",
"226 289 OFFCURVE",
"152 257 OFFCURVE",
"152 177 CURVE SMOOTH",
"152 116 OFFCURVE",
"166 -27 OFFCURVE",
"166 -87 CURVE SMOOTH",
"166 -167 OFFCURVE",
"116 -209 OFFCURVE",
"54 -214 CURVE",
"66 -227 OFFCURVE",
"79 -234 OFFCURVE",
"102 -234 CURVE SMOOTH",
"153 -234 OFFCURVE",
"228 -187 OFFCURVE",
"228 -55 CURVE SMOOTH",
"228 -2 OFFCURVE",
"215 98 OFFCURVE",
"215 168 CURVE SMOOTH",
"215 266 OFFCURVE",
"279 272 OFFCURVE",
"279 293 CURVE SMOOTH",
"279 314 OFFCURVE",
"215 318 OFFCURVE",
"215 417 CURVE SMOOTH",
"215 484 OFFCURVE",
"228 579 OFFCURVE",
"228 625 CURVE SMOOTH"
);
}
);
width = 330;
}
);
unicode = 007D;
},
{
glyphname = asciitilde;
layers = (
{
layerId = "6252BF4E-2FA9-4219-B920-178DA9EE1F12";
paths = (
{
closed = 1;
nodes = (
"568 347 OFFCURVE",
"545 324 OFFCURVE",
"508 324 CURVE SMOOTH",
"404 324 OFFCURVE",
"292 394 OFFCURVE",
"194 394 CURVE SMOOTH",
"121 394 OFFCURVE",
"60 343 OFFCURVE",
"60 272 CURVE SMOOTH",
"60 236 OFFCURVE",
"76 212 OFFCURVE",
"103 204 CURVE",
"106 238 OFFCURVE",
"128 260 OFFCURVE",
"166 260 CURVE SMOOTH",
"256 260 OFFCURVE",
"362 191 OFFCURVE",
"479 191 CURVE SMOOTH",
"552 191 OFFCURVE",
"613 241 OFFCURVE",
"613 312 CURVE SMOOTH",
"613 344 OFFCURVE",
"598 368 OFFCURVE",
"570 380 CURVE"
);
}
);
width = 673;
},
{
layerId = "F2B2A884-D9B7-4604-B025-F8D4318BA1DA";
paths = (
{
closed = 1;
nodes = (
"542 313 OFFCURVE",
"519 293 OFFCURVE",
"480 293 CURVE SMOOTH",
"441 293 OFFCURVE",
"234 345 OFFCURVE",
"173 345 CURVE SMOOTH",
"111 345 OFFCURVE",
"80 310 OFFCURVE",
"80 273 CURVE SMOOTH",
"80 253 OFFCURVE",
"90 240 OFFCURVE",
"101 237 CURVE",
"104 270 OFFCURVE",
"127 290 OFFCURVE",
"166 290 CURVE SMOOTH",
"214 290 OFFCURVE",
"421 238 OFFCURVE",
"473 238 CURVE SMOOTH",
"535 238 OFFCURVE",
"566 274 OFFCURVE",
"566 309 CURVE SMOOTH",
"566 330 OFFCURVE",
"556 342 OFFCURVE",
"545 347 CURVE"
);
}
);
width = 646;
}
);
unicode = 007E;
},
{
glyphname = exclamdown;
layers = (
{
layerId = "6252BF4E-2FA9-4219-B920-178DA9EE1F12";
paths = (
{
closed = 1;
nodes = (
"95 376 OFFCURVE",
"124 344 OFFCURVE",
"168 344 CURVE SMOOTH",
"218 344 OFFCURVE",
"269 392 OFFCURVE",
"269 445 CURVE SMOOTH",
"269 486 OFFCURVE",
"240 518 OFFCURVE",
"196 518 CURVE SMOOTH",
"143 518 OFFCURVE",
"95 470 OFFCURVE",
"95 416 CURVE SMOOTH"
);
},
{
closed = 1;
nodes = (
"240 -266 OFFCURVE",
"293 -202 OFFCURVE",
"272 -98 CURVE SMOOTH",
"227 137 LINE SMOOTH",
"218 182 OFFCURVE",
"215 232 OFFCURVE",
"221 270 CURVE",
"210 280 OFFCURVE",
"199 284 OFFCURVE",
"182 284 CURVE SMOOTH",
"143 284 OFFCURVE",
"122 251 OFFCURVE",
"114 192 CURVE SMOOTH",
"74 -98 LINE SMOOTH",
"60 -203 OFFCURVE",
"108 -266 OFFCURVE",
"174 -266 CURVE SMOOTH"
);
}
);
width = 349;
},
{
layerId = "F2B2A884-D9B7-4604-B025-F8D4318BA1DA";
paths = (
{
closed = 1;
nodes = (
"109 463 OFFCURVE",
"127 445 OFFCURVE",
"153 445 CURVE SMOOTH",
"183 445 OFFCURVE",
"212 471 OFFCURVE",
"212 504 CURVE SMOOTH",
"212 530 OFFCURVE",
"195 548 OFFCURVE",
"170 548 CURVE SMOOTH",
"139 548 OFFCURVE",
"109 520 OFFCURVE",
"109 488 CURVE SMOOTH"
);
},
{
closed = 1;
nodes = (
"175 -243 OFFCURVE",
"191 -224 OFFCURVE",
"191 -179 CURVE",
"178 264 LINE SMOOTH",
"176 317 OFFCURVE",
"181 332 OFFCURVE",
"189 348 CURVE",
"183 357 OFFCURVE",
"176 363 OFFCURVE",
"164 363 CURVE SMOOTH",
"143 363 OFFCURVE",
"131 346 OFFCURVE",
"129 304 CURVE",
"122 -179 LINE SMOOTH",
"122 -224 OFFCURVE",
"136 -243 OFFCURVE",
"155 -243 CURVE SMOOTH"
);
}
);
width = 323;
}
);
unicode = 00A1;
},
{
glyphname = cent;
layers = (
{
components = (
{
name = c;
alignment = -1;
}
);
layerId = "6252BF4E-2FA9-4219-B920-178DA9EE1F12";
paths = (
{
closed = 1;
nodes = (
"233 492 LINE",
"390 492 LINE",
"390 559 LINE SMOOTH",
"390 640 OFFCURVE",
"359 678 OFFCURVE",
"290 678 CURVE SMOOTH",
"251 678 OFFCURVE",
"221 660 OFFCURVE",
"199 635 CURVE",
"222 623 OFFCURVE",
"233 600 OFFCURVE",
"233 565 CURVE SMOOTH"
);
},
{
closed = 1;
nodes = (
"358 56 LINE",
"200 56 LINE",
"200 -36 LINE SMOOTH",
"200 -116 OFFCURVE",
"230 -155 OFFCURVE",
"299 -155 CURVE SMOOTH",
"340 -155 OFFCURVE",
"368 -137 OFFCURVE",
"390 -112 CURVE",
"367 -100 OFFCURVE",
"358 -77 OFFCURVE",
"358 -41 CURVE SMOOTH"
);
}
);
width = 523;
},
{
components = (
{
name = c;
alignment = -1;
}
);
layerId = "F2B2A884-D9B7-4604-B025-F8D4318BA1DA";
paths = (
{
closed = 1;
nodes = (
"230 484 LINE",
"293 484 LINE",
"293 585 LINE SMOOTH",
"293 622 OFFCURVE",
"279 643 OFFCURVE",
"249 643 CURVE SMOOTH",
"231 643 OFFCURVE",
"216 629 OFFCURVE",
"207 614 CURVE",
"222 609 OFFCURVE",
"230 601 OFFCURVE",
"230 583 CURVE SMOOTH"
);
},
{
closed = 1;
nodes = (
"277 19 LINE",
"213 19 LINE",
"213 -82 LINE SMOOTH",
"213 -119 OFFCURVE",
"229 -139 OFFCURVE",
"258 -139 CURVE SMOOTH",
"276 -139 OFFCURVE",
"292 -126 OFFCURVE",
"300 -110 CURVE",
"286 -104 OFFCURVE",
"277 -98 OFFCURVE",
"277 -80 CURVE SMOOTH"
);
}
);
width = 482;
}
);
unicode = 00A2;
},
{
glyphname = sterling;
layers = (
{
layerId = "6252BF4E-2FA9-4219-B920-178DA9EE1F12";
paths = (
{
closed = 1;
nodes = (
"600 696 OFFCURVE",
"550 746 OFFCURVE",
"436 746 CURVE SMOOTH",
"289 746 OFFCURVE",
"161 646 OFFCURVE",
"161 491 CURVE SMOOTH",
"161 458 OFFCURVE",
"161 440 OFFCURVE",
"162 422 CURVE",
"126 422 LINE SMOOTH",
"100 422 OFFCURVE",
"36 422 OFFCURVE",
"36 362 CURVE SMOOTH",
"36 354 OFFCURVE",
"38 344 OFFCURVE",
"41 341 CURVE",
"166 341 LINE",
"167 313 OFFCURVE",
"168 290 OFFCURVE",
"168 246 CURVE SMOOTH",
"168 191 OFFCURVE",
"160 170 OFFCURVE",
"154 157 CURVE",
"96 140 OFFCURVE",
"61 95 OFFCURVE",
"61 48 CURVE SMOOTH",
"61 24 OFFCURVE",
"67 6 OFFCURVE",
"76 -10 CURVE",
"115 23 OFFCURVE",
"162 28 OFFCURVE",
"210 28 CURVE SMOOTH",
"295 28 OFFCURVE",
"379 -11 OFFCURVE",
"509 -11 CURVE SMOOTH",
"590 -11 OFFCURVE",
"644 46 OFFCURVE",
"644 107 CURVE SMOOTH",
"644 131 OFFCURVE",
"638 149 OFFCURVE",
"630 164 CURVE",
"594 132 OFFCURVE",
"552 127 OFFCURVE",
"509 127 CURVE SMOOTH",
"422 127 OFFCURVE",
"366 152 OFFCURVE",
"289 162 CURVE",
"331 191 OFFCURVE",
"344 244 OFFCURVE",
"344 288 CURVE SMOOTH",
"344 341 LINE",
"421 341 LINE SMOOTH",
"448 341 OFFCURVE",
"511 341 OFFCURVE",
"511 404 CURVE SMOOTH",
"511 409 OFFCURVE",
"510 419 OFFCURVE",
"506 422 CURVE",
"341 422 LINE",
"338 452 OFFCURVE",
"337 492 OFFCURVE",
"337 529 CURVE SMOOTH",
"337 589 OFFCURVE",
"349 646 OFFCURVE",
"396 646 CURVE SMOOTH",
"437 646 OFFCURVE",
"474 602 OFFCURVE",
"486 544 CURVE",
"552 547 OFFCURVE",
"600 586 OFFCURVE",
"600 642 CURVE SMOOTH"
);
}
);
width = 668;
},
{
layerId = "F2B2A884-D9B7-4604-B025-F8D4318BA1DA";
paths = (
{
closed = 1;
nodes = (
"502 658 OFFCURVE",
"453 720 OFFCURVE",
"361 720 CURVE SMOOTH",
"296 720 OFFCURVE",
"197 650 OFFCURVE",
"197 519 CURVE SMOOTH",
"197 461 OFFCURVE",
"200 426 OFFCURVE",
"202 392 CURVE",
"107 392 LINE SMOOTH",
"89 392 OFFCURVE",
"45 392 OFFCURVE",
"45 349 CURVE SMOOTH",
"45 343 OFFCURVE",
"48 337 OFFCURVE",
"49 334 CURVE",
"203 334 LINE",
"206 316 OFFCURVE",
"205 294 OFFCURVE",
"205 268 CURVE SMOOTH",
"205 138 OFFCURVE",
"174 107 OFFCURVE",
"143 84 CURVE",
"85 76 OFFCURVE",
"59 39 OFFCURVE",
"59 13 CURVE SMOOTH",
"59 4 OFFCURVE",
"60 -1 OFFCURVE",
"65 -7 CURVE",
"94 16 OFFCURVE",
"124 25 OFFCURVE",
"155 25 CURVE SMOOTH",
"259 25 OFFCURVE",
"366 -8 OFFCURVE",
"464 -8 CURVE SMOOTH",
"541 -8 OFFCURVE",
"577 35 OFFCURVE",
"577 66 CURVE SMOOTH",
"577 74 OFFCURVE",
"575 82 OFFCURVE",
"571 85 CURVE",
"539 59 OFFCURVE",
"507 49 OFFCURVE",
"476 49 CURVE SMOOTH",
"388 49 OFFCURVE",
"296 78 OFFCURVE",
"207 85 CURVE",
"260 117 OFFCURVE",
"265 258 OFFCURVE",
"265 295 CURVE SMOOTH",
"265 334 LINE",
"388 334 LINE SMOOTH",
"406 334 OFFCURVE",
"451 334 OFFCURVE",
"451 378 CURVE SMOOTH",
"451 383 OFFCURVE",
"450 388 OFFCURVE",
"449 392 CURVE",
"263 392 LINE",
"261 443 OFFCURVE",
"258 483 OFFCURVE",
"258 541 CURVE SMOOTH",
"258 625 OFFCURVE",
"293 672 OFFCURVE",
"356 672 CURVE SMOOTH",
"424 672 OFFCURVE",
"455 604 OFFCURVE",
"465 558 CURVE",
"490 565 OFFCURVE",
"502 584 OFFCURVE",
"502 609 CURVE SMOOTH"
);
}
);
width = 588;
}
);
unicode = 00A3;
},
{
glyphname = currency;
layers = (
{
layerId = "6252BF4E-2FA9-4219-B920-178DA9EE1F12";
paths = (
{
closed = 1;
nodes = (
"238 530 OFFCURVE",
"136 452 OFFCURVE",
"136 302 CURVE SMOOTH",
"136 152 OFFCURVE",
"238 75 OFFCURVE",
"376 75 CURVE SMOOTH",
"514 75 OFFCURVE",
"616 152 OFFCURVE",
"616 302 CURVE SMOOTH",
"616 452 OFFCURVE",
"514 530 OFFCURVE",
"376 530 CURVE SMOOTH"
);
},
{
closed = 1;
nodes = (
"432 452 OFFCURVE",
"478 412 OFFCURVE",
"485 302 CURVE",
"495 193 OFFCURVE",
"454 152 OFFCURVE",
"387 152 CURVE SMOOTH",
"320 152 OFFCURVE",
"274 193 OFFCURVE",
"267 302 CURVE SMOOTH",
"260 412 OFFCURVE",
"298 452 OFFCURVE",
"365 452 CURVE SMOOTH"
);
},
{
closed = 1;
nodes = (
"186 399 LINE",
"274 486 LINE",
"228 532 LINE SMOOTH",
"202 559 OFFCURVE",
"171 572 OFFCURVE",
"143 572 CURVE SMOOTH",
"108 572 OFFCURVE",
"80 552 OFFCURVE",
"70 513 CURVE"
);
},
{
closed = 1;
nodes = (
"478 486 LINE",
"566 399 LINE",
"682 513 LINE",
"672 552 OFFCURVE",
"644 572 OFFCURVE",
"609 572 CURVE SMOOTH",
"581 572 OFFCURVE",
"550 559 OFFCURVE",
"524 532 CURVE SMOOTH"
);
},
{
closed = 1;
nodes = (
"274 120 LINE",
"186 206 LINE",
"70 92 LINE",
"80 54 OFFCURVE",
"108 33 OFFCURVE",
"143 33 CURVE SMOOTH",
"171 33 OFFCURVE",
"202 46 OFFCURVE",
"228 73 CURVE SMOOTH"
);
},
{
closed = 1;
nodes = (
"566 206 LINE",
"478 120 LINE",
"524 73 LINE SMOOTH",
"550 46 OFFCURVE",
"581 33 OFFCURVE",
"609 33 CURVE SMOOTH",
"644 33 OFFCURVE",
"672 54 OFFCURVE",
"682 92 CURVE"
);
}
);
width = 752;
},
{
layerId = "F2B2A884-D9B7-4604-B025-F8D4318BA1DA";
paths = (
{
closed = 1;
nodes = (
"210 486 OFFCURVE",
"114 423 OFFCURVE",
"114 289 CURVE SMOOTH",
"114 156 OFFCURVE",
"210 91 OFFCURVE",
"306 91 CURVE SMOOTH",
"401 91 OFFCURVE",
"494 156 OFFCURVE",
"494 289 CURVE SMOOTH",
"494 421 OFFCURVE",
"401 486 OFFCURVE",
"306 486 CURVE SMOOTH"
);
},
{
closed = 1;
nodes = (
"366 444 OFFCURVE",
"428 401 OFFCURVE",
"438 289 CURVE SMOOTH",
"446 176 OFFCURVE",
"388 133 OFFCURVE",
"316 133 CURVE SMOOTH",
"243 133 OFFCURVE",
"182 176 OFFCURVE",
"173 289 CURVE SMOOTH",
"164 401 OFFCURVE",
"221 444 OFFCURVE",
"294 444 CURVE SMOOTH"
);
},
{
closed = 1;
nodes = (
"163 378 LINE",
"201 415 LINE",
"154 464 LINE SMOOTH",
"125 493 OFFCURVE",
"98 499 OFFCURVE",
"79 477 CURVE",
"78 472 OFFCURVE",
"76 466 OFFCURVE",
"75 467 CURVE"
);
},
{
closed = 1;
nodes = (
"408 415 LINE",
"445 378 LINE",
"534 467 LINE",
"532 466 OFFCURVE",
"531 472 OFFCURVE",
"530 477 CURVE",
"511 499 OFFCURVE",
"483 493 OFFCURVE",
"454 464 CURVE"
);
},
{
closed = 1;
nodes = (
"195 137 LINE",
"158 175 LINE",
"75 94 LINE",
"75 95 OFFCURVE",
"77 89 OFFCURVE",
"79 85 CURVE",
"98 63 OFFCURVE",
"123 68 OFFCURVE",
"153 96 CURVE"
);
},
{
closed = 1;
nodes = (
"450 175 LINE",
"412 137 LINE",
"456 96 LINE",
"484 68 OFFCURVE",
"511 63 OFFCURVE",
"530 85 CURVE",
"532 89 OFFCURVE",
"534 95 OFFCURVE",
"534 94 CURVE"
);
}
);
width = 609;
}
);
unicode = 00A4;
},
{
glyphname = yen;
layers = (
{
components = (
{
name = Y;
alignment = -1;
}
);
layerId = "6252BF4E-2FA9-4219-B920-178DA9EE1F12";
paths = (
{
closed = 1;
nodes = (
"606 229 OFFCURVE",
"605 239 OFFCURVE",
"601 242 CURVE",
"161 242 LINE SMOOTH",
"134 242 OFFCURVE",
"71 242 OFFCURVE",
"71 182 CURVE SMOOTH",
"71 174 OFFCURVE",
"73 164 OFFCURVE",
"76 161 CURVE",
"516 161 LINE SMOOTH",
"542 161 OFFCURVE",
"606 161 OFFCURVE",
"606 224 CURVE SMOOTH"
);
},
{
closed = 1;
nodes = (
"316 318 LINE",
"286 400 LINE",
"161 400 LINE SMOOTH",
"134 400 OFFCURVE",
"71 400 OFFCURVE",
"71 340 CURVE SMOOTH",
"71 331 OFFCURVE",
"73 322 OFFCURVE",
"76 318 CURVE"
);
},
{
closed = 1;
nodes = (
"382 400 LINE",
"352 318 LINE",
"516 318 LINE SMOOTH",
"542 318 OFFCURVE",
"606 318 OFFCURVE",
"606 382 CURVE SMOOTH",
"606 386 OFFCURVE",
"605 396 OFFCURVE",
"601 400 CURVE"
);
}
);
width = 701;
},
{
components = (
{
name = Y;
alignment = -1;
}
);
layerId = "F2B2A884-D9B7-4604-B025-F8D4318BA1DA";
paths = (
{
closed = 1;
nodes = (
"515 236 OFFCURVE",
"513 241 OFFCURVE",
"512 245 CURVE",
"136 245 LINE SMOOTH",
"98 245 OFFCURVE",
"66 233 OFFCURVE",
"66 202 CURVE SMOOTH",
"66 196 OFFCURVE",
"68 190 OFFCURVE",
"69 187 CURVE",
"445 187 LINE SMOOTH",
"483 187 OFFCURVE",
"515 200 OFFCURVE",
"515 230 CURVE SMOOTH"
);
},
{
closed = 1;
nodes = (
"283 324 LINE",
"260 381 LINE",
"136 381 LINE SMOOTH",
"98 381 OFFCURVE",
"66 369 OFFCURVE",
"66 338 CURVE SMOOTH",
"66 332 OFFCURVE",
"68 326 OFFCURVE",
"69 324 CURVE"
);
},
{
closed = 1;
nodes = (
"339 381 LINE",
"303 324 LINE",
"445 324 LINE SMOOTH",
"483 324 OFFCURVE",
"515 336 OFFCURVE",
"515 366 CURVE SMOOTH",
"515 372 OFFCURVE",
"513 377 OFFCURVE",
"512 381 CURVE"
);
}
);
width = 592;
}
);
unicode = 00A5;
},
